<mxfile host="app.diagrams.net" agent="Mozilla/5.0 (Windows NT 10.0; Win64; x64) AppleWebKit/537.36 (KHTML, like Gecko) Chrome/136.0.0.0 Safari/537.36 Edg/136.0.0.0" version="27.0.3">
  <diagram name="Page-1" id="Gb-xtGOXBUfviRv5oRcT">
    <mxGraphModel dx="1880" dy="1058" grid="1" gridSize="10" guides="1" tooltips="1" connect="1" arrows="1" fold="1" page="1" pageScale="1" pageWidth="850" pageHeight="1100" math="0" shadow="0">
      <root>
        <mxCell id="0" />
        <mxCell id="1" parent="0" />
        <mxCell id="d_2kDDL-OIFMtuNCJloi-1" value="Học viên/sinh viên" style="swimlane;startSize=20;whiteSpace=wrap;html=1;fontStyle=1" parent="1" vertex="1">
          <mxGeometry x="30" y="150" width="380" height="1320" as="geometry" />
        </mxCell>
        <mxCell id="d_2kDDL-OIFMtuNCJloi-2" value="" style="ellipse;html=1;shape=startState;fillColor=#000000;strokeColor=#ff0000;fontStyle=1" parent="d_2kDDL-OIFMtuNCJloi-1" vertex="1">
          <mxGeometry x="170" y="30" width="30" height="30" as="geometry" />
        </mxCell>
        <mxCell id="d_2kDDL-OIFMtuNCJloi-3" value="" style="edgeStyle=orthogonalEdgeStyle;html=1;verticalAlign=bottom;endArrow=open;endSize=8;strokeColor=#ff0000;rounded=0;fontStyle=1" parent="d_2kDDL-OIFMtuNCJloi-1" source="d_2kDDL-OIFMtuNCJloi-2" edge="1">
          <mxGeometry relative="1" as="geometry">
            <mxPoint x="185" y="120" as="targetPoint" />
          </mxGeometry>
        </mxCell>
        <mxCell id="d_2kDDL-OIFMtuNCJloi-58" value="Truy cập khóa học" style="rounded=1;whiteSpace=wrap;html=1;fontStyle=1" parent="d_2kDDL-OIFMtuNCJloi-1" vertex="1">
          <mxGeometry x="125" y="120" width="120" height="60" as="geometry" />
        </mxCell>
        <mxCell id="d_2kDDL-OIFMtuNCJloi-61" value="Chọn hoạt động học tập" style="rhombus;whiteSpace=wrap;html=1;fontStyle=1" parent="d_2kDDL-OIFMtuNCJloi-1" vertex="1">
          <mxGeometry x="140" y="220" width="80" height="80" as="geometry" />
        </mxCell>
        <mxCell id="d_2kDDL-OIFMtuNCJloi-114" style="edgeStyle=orthogonalEdgeStyle;rounded=0;orthogonalLoop=1;jettySize=auto;html=1;fontStyle=1" parent="d_2kDDL-OIFMtuNCJloi-1" source="d_2kDDL-OIFMtuNCJloi-98" target="d_2kDDL-OIFMtuNCJloi-110" edge="1">
          <mxGeometry relative="1" as="geometry" />
        </mxCell>
        <mxCell id="d_2kDDL-OIFMtuNCJloi-98" value="Làm bài&amp;nbsp;" style="rounded=1;whiteSpace=wrap;html=1;fontStyle=1" parent="d_2kDDL-OIFMtuNCJloi-1" vertex="1">
          <mxGeometry x="140" y="700" width="120" height="60" as="geometry" />
        </mxCell>
        <mxCell id="d_2kDDL-OIFMtuNCJloi-113" style="edgeStyle=orthogonalEdgeStyle;rounded=0;orthogonalLoop=1;jettySize=auto;html=1;fontStyle=1" parent="d_2kDDL-OIFMtuNCJloi-1" source="d_2kDDL-OIFMtuNCJloi-102" target="d_2kDDL-OIFMtuNCJloi-111" edge="1">
          <mxGeometry relative="1" as="geometry" />
        </mxCell>
        <mxCell id="d_2kDDL-OIFMtuNCJloi-102" value="Xem nội dung bài học" style="rounded=1;whiteSpace=wrap;html=1;fontStyle=1" parent="d_2kDDL-OIFMtuNCJloi-1" vertex="1">
          <mxGeometry x="10" y="700" width="120" height="60" as="geometry" />
        </mxCell>
        <mxCell id="d_2kDDL-OIFMtuNCJloi-110" value="Nộp bài" style="rounded=1;whiteSpace=wrap;html=1;fontStyle=1" parent="d_2kDDL-OIFMtuNCJloi-1" vertex="1">
          <mxGeometry x="140" y="810" width="120" height="60" as="geometry" />
        </mxCell>
        <mxCell id="d_2kDDL-OIFMtuNCJloi-111" value="Đánh dấu nội dung đã học" style="rounded=1;whiteSpace=wrap;html=1;fontStyle=1" parent="d_2kDDL-OIFMtuNCJloi-1" vertex="1">
          <mxGeometry x="10" y="810" width="120" height="60" as="geometry" />
        </mxCell>
        <mxCell id="d_2kDDL-OIFMtuNCJloi-44" value="&lt;span style=&quot;font-size: 24px;&quot;&gt;Truy cập nội dung khóa học, làm bài tập/bài trắc nghiệm&lt;/span&gt;" style="text;html=1;align=center;verticalAlign=middle;whiteSpace=wrap;rounded=0;fontStyle=1" parent="1" vertex="1">
          <mxGeometry x="70" y="100" width="691" height="30" as="geometry" />
        </mxCell>
        <mxCell id="d_2kDDL-OIFMtuNCJloi-15" value="Hệ Thống" style="swimlane;startSize=20;whiteSpace=wrap;html=1;fontStyle=1" parent="1" vertex="1">
          <mxGeometry x="410" y="150" width="370" height="1320" as="geometry" />
        </mxCell>
        <mxCell id="d_2kDDL-OIFMtuNCJloi-59" value="Hiển thị danh sách bài học" style="rounded=1;whiteSpace=wrap;html=1;fontStyle=1" parent="d_2kDDL-OIFMtuNCJloi-15" vertex="1">
          <mxGeometry x="150" y="120" width="120" height="60" as="geometry" />
        </mxCell>
        <mxCell id="d_2kDDL-OIFMtuNCJloi-63" value="Phát video/tài liệu/slide bài giảng" style="rounded=1;whiteSpace=wrap;html=1;fontStyle=1" parent="d_2kDDL-OIFMtuNCJloi-15" vertex="1">
          <mxGeometry x="50" y="410" width="120" height="60" as="geometry" />
        </mxCell>
        <mxCell id="d_2kDDL-OIFMtuNCJloi-97" style="edgeStyle=orthogonalEdgeStyle;rounded=0;orthogonalLoop=1;jettySize=auto;html=1;entryX=0.5;entryY=0;entryDx=0;entryDy=0;fontStyle=1" parent="d_2kDDL-OIFMtuNCJloi-15" source="d_2kDDL-OIFMtuNCJloi-66" target="d_2kDDL-OIFMtuNCJloi-96" edge="1">
          <mxGeometry relative="1" as="geometry" />
        </mxCell>
        <mxCell id="d_2kDDL-OIFMtuNCJloi-66" value="Hiển thị đề bài" style="rounded=1;whiteSpace=wrap;html=1;fontStyle=1" parent="d_2kDDL-OIFMtuNCJloi-15" vertex="1">
          <mxGeometry x="210" y="410" width="120" height="60" as="geometry" />
        </mxCell>
        <mxCell id="d_2kDDL-OIFMtuNCJloi-96" value="Thời gian làm bài" style="rhombus;whiteSpace=wrap;html=1;fontStyle=1" parent="d_2kDDL-OIFMtuNCJloi-15" vertex="1">
          <mxGeometry x="230" y="500" width="80" height="80" as="geometry" />
        </mxCell>
        <mxCell id="d_2kDDL-OIFMtuNCJloi-127" style="edgeStyle=orthogonalEdgeStyle;rounded=0;orthogonalLoop=1;jettySize=auto;html=1;entryX=0.25;entryY=0;entryDx=0;entryDy=0;fontStyle=1" parent="d_2kDDL-OIFMtuNCJloi-15" source="d_2kDDL-OIFMtuNCJloi-116" target="d_2kDDL-OIFMtuNCJloi-125" edge="1">
          <mxGeometry relative="1" as="geometry">
            <Array as="points">
              <mxPoint x="78" y="1100" />
              <mxPoint x="179" y="1100" />
            </Array>
          </mxGeometry>
        </mxCell>
        <mxCell id="d_2kDDL-OIFMtuNCJloi-116" value="Cập nhật tiến độ học tập" style="rounded=1;whiteSpace=wrap;html=1;fontStyle=1" parent="d_2kDDL-OIFMtuNCJloi-15" vertex="1">
          <mxGeometry x="17.75" y="1010" width="120" height="60" as="geometry" />
        </mxCell>
        <mxCell id="d_2kDDL-OIFMtuNCJloi-124" style="edgeStyle=orthogonalEdgeStyle;rounded=0;orthogonalLoop=1;jettySize=auto;html=1;entryX=0.5;entryY=0;entryDx=0;entryDy=0;fontStyle=1" parent="d_2kDDL-OIFMtuNCJloi-15" source="d_2kDDL-OIFMtuNCJloi-119" target="d_2kDDL-OIFMtuNCJloi-122" edge="1">
          <mxGeometry relative="1" as="geometry" />
        </mxCell>
        <mxCell id="d_2kDDL-OIFMtuNCJloi-119" value="Chấm điểm tự động" style="rounded=1;whiteSpace=wrap;html=1;fontStyle=1" parent="d_2kDDL-OIFMtuNCJloi-15" vertex="1">
          <mxGeometry x="149.5" y="900" width="120" height="60" as="geometry" />
        </mxCell>
        <mxCell id="d_2kDDL-OIFMtuNCJloi-128" style="edgeStyle=orthogonalEdgeStyle;rounded=0;orthogonalLoop=1;jettySize=auto;html=1;entryX=0.5;entryY=0;entryDx=0;entryDy=0;fontStyle=1" parent="d_2kDDL-OIFMtuNCJloi-15" source="d_2kDDL-OIFMtuNCJloi-122" target="d_2kDDL-OIFMtuNCJloi-125" edge="1">
          <mxGeometry relative="1" as="geometry" />
        </mxCell>
        <mxCell id="d_2kDDL-OIFMtuNCJloi-122" value="Lưu kết quả&amp;nbsp;" style="rounded=1;whiteSpace=wrap;html=1;fontStyle=1" parent="d_2kDDL-OIFMtuNCJloi-15" vertex="1">
          <mxGeometry x="149.5" y="1010" width="120" height="60" as="geometry" />
        </mxCell>
        <mxCell id="d_2kDDL-OIFMtuNCJloi-133" style="edgeStyle=orthogonalEdgeStyle;rounded=0;orthogonalLoop=1;jettySize=auto;html=1;entryX=0.5;entryY=0;entryDx=0;entryDy=0;fontStyle=1" parent="d_2kDDL-OIFMtuNCJloi-15" source="d_2kDDL-OIFMtuNCJloi-125" target="d_2kDDL-OIFMtuNCJloi-132" edge="1">
          <mxGeometry relative="1" as="geometry" />
        </mxCell>
        <mxCell id="d_2kDDL-OIFMtuNCJloi-125" value="Cập nhật trạng thái học tập" style="rounded=1;whiteSpace=wrap;html=1;fontStyle=1" parent="d_2kDDL-OIFMtuNCJloi-15" vertex="1">
          <mxGeometry x="149.5" y="1120" width="120" height="60" as="geometry" />
        </mxCell>
        <mxCell id="d_2kDDL-OIFMtuNCJloi-132" value="" style="ellipse;html=1;shape=endState;fillColor=#000000;strokeColor=#ff0000;fontStyle=1" parent="d_2kDDL-OIFMtuNCJloi-15" vertex="1">
          <mxGeometry x="195" y="1260" width="30" height="30" as="geometry" />
        </mxCell>
        <mxCell id="d_2kDDL-OIFMtuNCJloi-60" style="edgeStyle=orthogonalEdgeStyle;rounded=0;orthogonalLoop=1;jettySize=auto;html=1;fontStyle=1" parent="1" source="d_2kDDL-OIFMtuNCJloi-58" target="d_2kDDL-OIFMtuNCJloi-59" edge="1">
          <mxGeometry relative="1" as="geometry" />
        </mxCell>
        <mxCell id="d_2kDDL-OIFMtuNCJloi-62" style="edgeStyle=orthogonalEdgeStyle;rounded=0;orthogonalLoop=1;jettySize=auto;html=1;entryX=0.5;entryY=0;entryDx=0;entryDy=0;fontStyle=1" parent="1" source="d_2kDDL-OIFMtuNCJloi-59" target="d_2kDDL-OIFMtuNCJloi-61" edge="1">
          <mxGeometry relative="1" as="geometry">
            <Array as="points">
              <mxPoint x="630" y="350" />
              <mxPoint x="210" y="350" />
            </Array>
          </mxGeometry>
        </mxCell>
        <mxCell id="d_2kDDL-OIFMtuNCJloi-87" style="edgeStyle=orthogonalEdgeStyle;rounded=0;orthogonalLoop=1;jettySize=auto;html=1;entryX=0;entryY=0.5;entryDx=0;entryDy=0;fontStyle=1" parent="1" source="d_2kDDL-OIFMtuNCJloi-61" target="d_2kDDL-OIFMtuNCJloi-63" edge="1">
          <mxGeometry relative="1" as="geometry">
            <Array as="points">
              <mxPoint x="210" y="590" />
            </Array>
          </mxGeometry>
        </mxCell>
        <mxCell id="d_2kDDL-OIFMtuNCJloi-88" value="Chọn bài học" style="edgeLabel;html=1;align=center;verticalAlign=middle;resizable=0;points=[];fontStyle=1" parent="d_2kDDL-OIFMtuNCJloi-87" vertex="1" connectable="0">
          <mxGeometry x="0.3" y="-1" relative="1" as="geometry">
            <mxPoint x="9" y="-1" as="offset" />
          </mxGeometry>
        </mxCell>
        <mxCell id="d_2kDDL-OIFMtuNCJloi-89" style="edgeStyle=orthogonalEdgeStyle;rounded=0;orthogonalLoop=1;jettySize=auto;html=1;entryX=0.5;entryY=0;entryDx=0;entryDy=0;fontStyle=1" parent="1" source="d_2kDDL-OIFMtuNCJloi-61" target="d_2kDDL-OIFMtuNCJloi-66" edge="1">
          <mxGeometry relative="1" as="geometry" />
        </mxCell>
        <mxCell id="d_2kDDL-OIFMtuNCJloi-90" value="Chọn bài tập/trắc nghiệm" style="edgeLabel;html=1;align=center;verticalAlign=middle;resizable=0;points=[];fontStyle=1" parent="d_2kDDL-OIFMtuNCJloi-89" vertex="1" connectable="0">
          <mxGeometry x="-0.562" y="-2" relative="1" as="geometry">
            <mxPoint x="133" y="-2" as="offset" />
          </mxGeometry>
        </mxCell>
        <mxCell id="d_2kDDL-OIFMtuNCJloi-99" style="edgeStyle=orthogonalEdgeStyle;rounded=0;orthogonalLoop=1;jettySize=auto;html=1;entryX=0.5;entryY=0;entryDx=0;entryDy=0;fontStyle=1" parent="1" source="d_2kDDL-OIFMtuNCJloi-96" target="d_2kDDL-OIFMtuNCJloi-98" edge="1">
          <mxGeometry relative="1" as="geometry" />
        </mxCell>
        <mxCell id="d_2kDDL-OIFMtuNCJloi-101" value="Chưa hết thời gian" style="edgeLabel;html=1;align=center;verticalAlign=middle;resizable=0;points=[];fontStyle=1" parent="d_2kDDL-OIFMtuNCJloi-99" vertex="1" connectable="0">
          <mxGeometry x="-0.4073" y="2" relative="1" as="geometry">
            <mxPoint x="68" y="-2" as="offset" />
          </mxGeometry>
        </mxCell>
        <mxCell id="d_2kDDL-OIFMtuNCJloi-103" style="edgeStyle=orthogonalEdgeStyle;rounded=0;orthogonalLoop=1;jettySize=auto;html=1;fontStyle=1" parent="1" source="d_2kDDL-OIFMtuNCJloi-63" target="d_2kDDL-OIFMtuNCJloi-102" edge="1">
          <mxGeometry relative="1" as="geometry">
            <Array as="points">
              <mxPoint x="515" y="650" />
              <mxPoint x="100" y="650" />
            </Array>
          </mxGeometry>
        </mxCell>
        <mxCell id="d_2kDDL-OIFMtuNCJloi-117" style="edgeStyle=orthogonalEdgeStyle;rounded=0;orthogonalLoop=1;jettySize=auto;html=1;entryX=0;entryY=0.5;entryDx=0;entryDy=0;fontStyle=1" parent="1" source="d_2kDDL-OIFMtuNCJloi-111" target="d_2kDDL-OIFMtuNCJloi-116" edge="1">
          <mxGeometry relative="1" as="geometry">
            <Array as="points">
              <mxPoint x="100" y="1190" />
            </Array>
          </mxGeometry>
        </mxCell>
        <mxCell id="d_2kDDL-OIFMtuNCJloi-121" style="edgeStyle=orthogonalEdgeStyle;rounded=0;orthogonalLoop=1;jettySize=auto;html=1;entryX=0.5;entryY=0;entryDx=0;entryDy=0;fontStyle=1" parent="1" source="d_2kDDL-OIFMtuNCJloi-110" target="d_2kDDL-OIFMtuNCJloi-119" edge="1">
          <mxGeometry relative="1" as="geometry">
            <Array as="points">
              <mxPoint x="230" y="1030" />
              <mxPoint x="650" y="1030" />
            </Array>
          </mxGeometry>
        </mxCell>
        <mxCell id="d_2kDDL-OIFMtuNCJloi-130" style="edgeStyle=orthogonalEdgeStyle;rounded=0;orthogonalLoop=1;jettySize=auto;html=1;entryX=0.75;entryY=0;entryDx=0;entryDy=0;fontStyle=1;exitX=0.5;exitY=1;exitDx=0;exitDy=0;" parent="1" source="d_2kDDL-OIFMtuNCJloi-96" target="d_2kDDL-OIFMtuNCJloi-110" edge="1">
          <mxGeometry relative="1" as="geometry">
            <Array as="points">
              <mxPoint x="680" y="930" />
              <mxPoint x="260" y="930" />
            </Array>
          </mxGeometry>
        </mxCell>
        <mxCell id="d_2kDDL-OIFMtuNCJloi-131" value="Hết thời gian" style="edgeLabel;html=1;align=center;verticalAlign=middle;resizable=0;points=[];fontStyle=1" parent="d_2kDDL-OIFMtuNCJloi-130" vertex="1" connectable="0">
          <mxGeometry x="-0.7031" y="-1" relative="1" as="geometry">
            <mxPoint as="offset" />
          </mxGeometry>
        </mxCell>
        <mxCell id="uPlZju0oY3Lkiqwc--5y-1" value="" style="shape=image;verticalLabelPosition=bottom;labelBackgroundColor=default;verticalAlign=top;aspect=fixed;imageAspect=0;image=data:image/png,iVBORw0KGgoAAAANSUhEUgAAAwsAAAUTCAYAAACN8752AAAAAXNSR0IArs4c6QAAAARnQU1BAACxjwv8YQUAAAAJcEhZcwAAFxEAABcRAcom8z8AAP+lSURBVHhe7J0HmBTVtrbRY87ea845Yziigh5RTAhmUMEsKqgYMIsB9Yg5B1BBMOeIEfwFEwZAzCKKCQMqggnRS5L9+25qzewuu2a6Z7qnu7q/93m2MlXVlcP6Vti7mRNCCCGEEEKILEgsCCGEEEIIIbIisSCEEEIIIYTIisSCECngm2++cS+88IJ78cUX3aRJk6Kp6WDq1KnujTfe8Ps/bty4aKpII//3f//nXn/9dTds2DA3dOhQN3ny5GiOKAVcj9GjR/tna8yYMe6vv/6K5pQvv/32mxs+fLi/f1555RX3yy+/RHOaltmzZ7t33nnHn7tRo0a5mTNnRnNKB/vw3nvvueeee87v1xdffBHNEaK0SCwIUebwMT3ggANcs2bNfDvrrLPc9OnTo7nlz2233ebmnXdev+8tWrRwH3/8cTRHpA2MmPnnn99fyy222MJ9+OGH0RxRCh566CG3xBJL+OuxzjrreOO33Pnyyy/d3nvvXfM+u/32273h3tQgeldaaSW/D4svvrgXwKXmzz//dJdeemnNuTnooINS9a4XlYvEgigrfv/9d/fEE0+4O+64I+fGB7IUH5umAE9h//79vYG29NJLu//5n//xHziMtjSAt3OzzTZzCy+8sFtuueX8B/CMM85w06ZNi5aYA8f51ltv+et55513em9pY/nqq6/c/fff79f5/PPP+3sr7eB5JLrEMd1zzz05RWq+/vpr9+CDD/rfPPvss+6PP/6I5uQH2+7WrZu/huuvv74bOXJkNKc4sD28z+z3XXfdVRFeVu7BwYMH+2Oivf3229GcTJjOc8AyI0aMyPp+Gz9+vNt22229ELdni+vT0OubDx988EHNMeCVnzVrVjQnN8aOHeu22247v88dO3Z0P/74YzQnk59//tk9/vjjfjuDBg1KXC4Jng8im3F+/fVXt//++/vtr7rqqv7/u+66a1GitnauECMzZszwApv7mWk8Q/GIBvfI6aef7vdp9dVXd6+++mo0R4jSIbEgyorPPvvMrbLKKv5FmWs77bTTUhF+bwgvvfSSW2qppdw888zjRUOvXr38MeOhL/eUnokTJ7pOnTr5/T3iiCO8F3SFFVZwc801lzd0QwMD71mPHj1qrukJJ5wQzWk4GMj/+te//Pq23npr9/nnn0dz0guGRNu2bWvOU58+faI5yTzyyCNugQUW8Ms3b97ci4eGgCd2oYUW8oIVQV9sMPLMoKRhXKUdBM8mm2xSc0w77rij+/7776O5tZxyyik1y3Tp0uUf7zeM6K5du/r5++yzj7/GG2ywgf/7pptu8kZpMTn//PNr9q+hAoX7ac011/Tr4FnNBqJp+eWX98vw7iB9KRc+/fRT75Q4+OCDvagK4V1zwQUX+HXiyHjqqaf8+4G/idri3S8UbOv444/360YUkTZm26YdeeSRWZ0YvDv3228/vwznN+5cEaKpkVgQZQUv+ZVXXrnmZZpLO/XUUytWLOB5OvPMM30qD8eIYXH11Ve7Cy+80H3yySfRUuXJd99956677jr33//+13300Ud+GkbN2Wef7YYMGZLhUeOjeuKJJ9ZcUz6wjQWPJEKL9eE1JP0h7WBA77vvvv6YMNxvvfXWaE4yTz75ZI3B9Z///Md9++230Zz8eP/99/19h+hrCjBAd999d7/fiGWiRGnHogEcE42I2zXXXPOPyMG5555bI3R5FuLvN2pFbr75ZnfeeefVpB49/fTT/nePPfZY0VNXLrvssppjOPnkkxtsYP+///f//D4nec+JNlrUhHuYGof6wInC885vEGbx+x3DG89+uN3XXnvNCyCep0JGZohu7rTTTn5frrjiCj/tkksu8fcz03jnZYt8AM4Nri/7KrEgSo3EgigrCA/ffffd/gNqDe+LvVzXXntt17t374z5FISJdIMxhBeRDyMNI6GxSCzMIS4WJkyYEM0pb6pBLNCI9sRrDeoTC6UmLhaKJU6IoBDF4p3A/3NJQ0IA2LnbZpttmiQtK4mXX37ZLbPMMj4aRwQDLrroopzEghDlhMSCKHvI0bY0Coy+uBcOTxqhelJd6HWHv4866ig/jY8Meajk//I3oXu82iHklBKdYD4vcj5IeLwOP/xwPy1b+gMveLzmts58jFvyxjEA+C0NwyDp93jfH374YXfsscf6/aEdd9xx7oEHHvjHR5DjxGvPOok+0OsI5+Loo4/200htIP85V4jykDvLb0l3IYSOZ490IaaxT6y/LkOGc0vYneVp/DZbvQUpSeRykzpAJIVzlA9ELI455hi/Dc4BOdFcZ+o87L6xdATOAeeQZTlPYRoA54w0Dju+MO2BbdhxEPFB2OLd5b5jGl5Ai6Bkg9xuO5+kWWHUcE5vvPFGP410Omo86qIusUCkiWvMPUJh5DPPPOOnY6SYWGjdurW/v4kS9OzZs2Zf6ivu5JrZvtO4pqyjLvB0c57tvuX6UMw6ZcqUaIm6CcUCefmPPvqoP/6BAwfW7McNN9zgfvrpp+gX/4T77+KLL65ZHsO2vnsLLznPPM81v+H6cp/E01kaQjaxQFoe75/wec5FLNBRAMWwdv9xHZPSw3geunfv7pcj5Yd7l7TG8N7lec+VUCxwHxHp4Nra+jjnddWY8FyddNJJNfcG72ueA9JvQohOXnXVVf69wP/x1CfBdeN+IE3POlTg+ScVkndCeHxEG1ifbZ9Gime29yNRB46JxnPCPvJbm3bllVf+Y78N7iOu71ZbbVWTNlqfWCBNkPMX7hv3Q1xQEmW2Z5iIHx1h8M6zbwvzwvcR7xu2Z/PUOYHIB4kFUfbwAbQeWMjxjReh8TK1D9cOO+xQU7BGa9++vfcok7tq04hMhGBMLbLIIn7euuuu65fnpWvLUx8Q92hh+K222mp+PmlTb775ZjQnGT4CfNCz1WRsuOGG7vrrr8/w0OEBxmBddtll/7E83ioM7x9++CFaek7Y2oxCzgHGQfy36623njdwc8lpxitGLyH8jtziww47rCbH2Brbw7jH+Ajhw8VHMczPtsa+YUSGH36OuyE1C3geWdZSFazxcd5zzz1reooJxQIfcFuuVatWGfcTH2BLYaDdcsst0RyXsX977bWXN0ow2G0aje3iyY+DUW855dY22mgjd+2117o2bdr4vxdbbLF6Ddm4WBgwYICfjmG2xx571Kyb58CMgVAskJuNyN18881rlqWtscYaNesKwSDFAAyfKWsbb7yxN5riXmWuCbnf1tNM2LgehxxySE6pUKFY4PknjYN7cNFFF61Z34ILLuif/7hhym95ztlHW9Yazx/CJZvxjwgkt3zJJZfM+A3GJ1GZxtZqZBMLNCJg5nmGusQC9wARVfLtMUTD9ay44or+fMQNf5wftgz3AAajvfOscU+YwKyPUCxwjbgnuX9tGvvFcdKxQAgGPftOhNiWtca15H0dCuYwDam+mgXeQdtvv/0/1kvjfUn9F1A0z/Mx99xz/2M53sM4lkKHFKLK5tuxmrFP495gfXGhwTsWkcIyhx56aE0qUV1igX3jHWLrDhvvCxxHBueJ42Ie74LOnTv/49vC+SRie9999/3jnHP/8I4XIhckFkTZU59YwPAMX4LW+BhgjGG44l1nGuvBwAlBGFidxJZbbunHNMDbvMsuu/hpGNxxIw4P1nzzzefn4xXEQ1wXGFB8GFg+qWEE4T0FPO14M20exg0fErzeGHZM44Nz7733+uUBkWMGKfsWNySsIQDCj04SeNRMEJmnLlvjI48xYmAQ8EG085PU6A7WijsxODEwmc51Q4DUBx/jsNAyWzODKxQLpLOYMYjBH44VEBYWcj3wlhrsn33k6zofGBSht5t0KDPW4w0D63//93/9vznXceMqTlwskLLH/U2qnq2THOkw5QrxgqHFPI7JBGC8xdNh8OratpIa154c7NCYRYzavYdxz71BQbsZK8xDsNRHKBa4J5LOIY37zWBfcrn/MK44RgPPb1g8nq1lSxnKh1AssH8WMaUhbm1/ksQC9zwe+LhIjTfOW1jITnTWhHO4zXij+9VcHB+hWOAeCNcRNhwtRDUM7kW7/9q1a+fFCe/3li1b1vyGCJY5M0gxpectpvNuI3KcBFFBjGNbT9h4Z+LgweljyyCseJ/yXsXhYM82AjMUn4gHrgX3bV3njusa/g5njzke8PwbSWIB5wmClOl8j3j3sG9EXWwbRAZtGwh5nFtMT3rX0xAZcWeKtQMPPDDnSJ+obiQWRNmTr1jAsMYDhVeKFyHNeg7JRSyYx5vwMtMwVAiDG6yPNA/mhbmodUGKDcvyGww2PE58vNg2ebVMp+GxRqhgNNiHA08TAsbAeLDlMZatUDgUCzS8lX379vXbwbOEJ8nmYQQmhc6NUCzQ8C7b+vAOmleLRjqEGTSce/s48ZHFk8w0fke6g50Hzqt5szmGfMUCIXYTTvyGc4dhynYwYEPvcKHFAo2+4jHu8VhieNp0roEZXNwrtj4akRaMD/aRYw8/4vmKBYwuvO0YHGYYEymJd8cZigXaWmut5Y139oHfmxFJsS1eVAOhbaKIbWHw8BsMT66prY9okxWKIpK4DkzHSAlTlSh0NwMYERHvMjJOKBasce9jMGJk7rzzzjXTMbQR5MC+hBEwoorsM/vOMZixyrXkGA2ed+4j5nGvE1XiN6QyhpGVXO7NJEKxwDrx8JsxzDW0SBbPdSgWzNPNO80MRBpREO4Zu5aWdkfjb+txjOMPnweuDelI/A7HRxgF4j6vz/kRigUazxHXhPWRQmPnGCOWlDXAiYBRznTet2E6Is+CRSZw0ti1zEcscKwIPlImTUxxnKTDcR9yP+Eksfudd7DBO5+oAtM5TxaFABMLzKMRvcB5xLFybHas3Dth72TM5zjZXtgpQFwscF6AfeN88cyREmWw7xahReDYvpF2GN4LPOOcR7ZLipdNp+Hwsnc330f7niIO80k/E9WLxIIoe/IRC5tuummGJwsIT+cjFswry4fZpvOBt5QfUhXMKMeLa0ZoEnjJ+KiwPA0vMB8ugw8JwgBBwrr56OFppxtZmhn1TMfAIrfd1sVHxbxwoVjA0MX4CcPpnEf67WY+RjZdF9ZFKBb4IPKxsfWxzXCgODMI2EcMdZuOMRNeL0LxCAbzRuJdxMBkvfmKBbzqGLj8Ju7BjJ+nQokFMxrwhIaDy2Gg2r1CqpcZz3ihLRUGkRSP6PBxN4M8X7GAwUHagf0eY4drFicUC3hGwxoczr2tj3nm8cdY49owHQMG49DuMyCNyPqpZ75dL5bhPHPfWtQIEcl07kc7fxjw4fqyERcLu+22W8a9hOAxkcT1tecEQ9uMfvYxTHlimxyLeWIRHBwrAp0uSJnGb0MRARjAiHpEcmMGFQzFAteOSCIiir9p9v7CoAzFgoFhb8viIQ+jB9zz7J8Z3TgZrJgdA9PueduuwbNHCqQZ0byL6uteNxQLDM4X1lzx7grFDvcR9y33AdcC45T/8zfb5ppwLW3/uCZ2nfMRCwbPgJ0DUq7CFEmedYxs7k97B3PeEAvmTOE5DWt4QrGA0W7PNnCsRELsGeTdYcY/UV/upX//+98ZtQNJkQXuQ+4tIge2b5wbzgFOAJbnObZ9C8UCz274XSMlyt7d7HuYess3xsQv34H491KIbEgsiLInH7FAyDbeb3W+YsHCvIS1zSAmBcLyefEe2cuej6Z51JPgA2WRiDDP3OBjhdGW1D0eBgYGHnmveIXDsD+GtxldoVjAIIinS2BMmQHIOihOrotQLLDd8CMJYVqVhdk512Z0kRNNmD8OHyuLCCBe+Og1RCycc845NUYhtR1xuG8sxadQYsG2Rx5/eL3IHzbPJMaNCbHQUMdwiRth1JmQ2sJ8PuD5iIV4I80nSSxYCg/bCI0DIh+W5sA9gTEKDIpnx8O9lC01hUJj2zbXPP7cEQ2jEJ9nDw+mCTsa93I+YgHjHoM9hIiePQsYzlxHjLcOHTrUbId9jMOxcEzM5xip7eA6YPQyjXdB3CjF0876zVPfUEKxQFQJ7zrnKcxTp/iUQmxLeTGxwPm19xjvn8svv9xPD+Hacq5ZhsgfnmQIxQI1MmGtE2CQmuHJueHvugjFAu/feCSCSIZ53KmFiN/3PGfcl3jAEdMY9ybgiCzYM9kQscAzxLPLbziv2epj2F/ODRFRxAnnyt7pRGRfeOGFaMlMscB9a2LA4BraueUeYt/5JvBuZhoOE54zI0ksGPzNceJ0oRaCd5gtT2TB9i0UC2w/rD/gPrC6JH4TpolyTnmfM4//N0b8iupBYkGUPfmIBYpQQ689xMUCtQAhvEjNeAjFAmBsYCDyIcM45YNNCgXLYniF4eok+DCHBmjo2U2Cjw0fPbx8YSEi+x/mYieJBT6w8UHI+IiROsN81lFf3UIoFvjwvPvuu9GcOYTpUCYW8I5Zni4fMLz/cfCy2X7yIcNYa4hYYBkzMOgFKA4Gu+XJJ4kFppthAuQ020BydYkFth2KBVIFwnNvYgEPrqVr8eGPGy54NM1QbKhYsH3i/xj+cdEZigU8lGFKG/UOpMIwLxQL7D8REqZzXPQqFIeImG0brz/iGjB0MMDMYKPhebVnmJavWMBYi99LjOgbFwsYgfYb9i3bmBAci10rjpG0LQwm8yyTwmRGdqGJiwWuDRC1s+cccYk32p5zEwucX3v3ICSyCXHuJ0tZwUNuAp/3lEUOSBMLjVfAuCRlh/k8k/XVZYRigQhe/J4j7dDSDTmvltrJeeb5QhzYvWP3RlOIBZ4fRBbPmt2P7Afn0wRBXWKBNCqcOyEY6dZFM9cNx4+l43FMRFlCksQC15coE/eFXXuWYz/rEwvcM+Go97xjTSzgkAmPh/vd0vQkFkSuSCyIsicfsRDm6RphASgv4XhkgZxWM6biYoGXrnlY8crjjbe0ElIpWHd98OGw3pjYPoZBHGoUQqOVF7oZa3xweKnTywnnghE9mU5LEgt8VOK9c4Q9/RDhoPC2LhoiFjBCLH8fT3K2EYb54IfpUA2NLFxwwQU1H1EMXtYRwrmyj3goFkgPMLGAURteQ8QC+e/Mq0ss4P3NRSzg/bbIAoZEXMCRkmFGWkPEAiKXqArpK/zNdee4Q0KxgKEaGk9JYgGD2tZJPns245kenphPw5vPfcjxUIRp0zl2iig555wzS9fIVyxwnYlShMTFAu8Fnn0Te7Rs41BwLJajz7NNVCiMLJDfHe8lhn3FOx6PnuRLXCxwDMCzb/dd2LjfTCyEOf+cD7zicXhfmUDmOCwiFEYWSKcKBSPwbFtEgvswrDXJRigWuH/M4DUwTi0ViPPKteHZstQ1GiKaY+YZ471tUcBCiwVLxcIBQ3qZ3TOIM+aTysl1sPc6+5EkFri3TBQbRKZNiPH9wDnF+eM8cs7jo1Nnq1lg30ghs+2w/+wbwgaRbA6FhogF3uFhWpXEgmgIEgui7MlHLCAE4mIBAxaDypahwMuw3Hbz5MTFAh9BM4pJT6BGASOY5en1JRcwNPAu2fYxlELPHoYlH1Q8UXj7+RgxYrMtj8GE4DCsOz4a680mFvCUYdyGBi1CxyIoGBSkA9VFQ8QC5xMj3qaHPbwABiBCwFIs6O6TaERDxAJF21bIiLAKP5ZcNzOsaKFY4BybYYKBFH4siTLxkWdeXWIh18gCxo55etlXDI8QcsXNcOBc5yMW+B2GDqk3iDK7h0kJCu+XUCwQqcpFLGCsWW9gNDyeYaoJ95pFqTgnRN2AYmDzkCPEyA03qIcwYwgPeb5igYhQSFwsWPfGXCfzUrOP7KvBMYQ1AqShYdzxPNrx8FuMtFB8ct24x6xXsvr2PYkksQBhhNNaKBYAg9Lm8S4Kzy/3AQLCDGXS3qxuJBQLGOnxVEjem2bcU8BrBnYSoVjgXRIWK7MfCEN7VrhfgdQkE85EG0IByjNp+xemBjZWLFBbZM4ArrE9O4hWnj27xryDEPPM493AvhqhWMC4xrlkcB+QSmXPsNXicF35G0cAxxASFwu8R7gHbaRnrkO/fv2ipeekKnItmSexIEqFxIIoe/IRCxRRxsUCBiz5zrYML0+MKz4ITLdwOS0uFgBjy4xSaxTU5jOoDYaA9VSC2CBthu3TqwaGjq2XlzfrDb225McbGN5Wd0BLKnCmYbQReWA7GFrmOaVRixE/j3HyFQtWu4FXFkOI6RhepGBhTLAfFHGbUcIHG+MSuEb5igU+luHxkovNR5rtcH7NeKaFYoGICx9dpmME0K0uv8FgsR6oaIUQC3ii8azbOplHjzdsD8PcDCRavmKBe9Jy8vEU232ElzPc74aIBSBdz4wk7iVEKvtN7Y6l1dEQXGb4YYTas8Jxm8cZQy30KtObUqHFguXhYxjbfUtjX9ln9p1jMDHD/RGm8uB1tuPl/uBvfkPxrXmdaRiznDeEB4Ygy5DuU9/zBHWJBZ4fHBe2DzQTC2bUcp55R9h8zg/Xl31ABNn9xHOHMWzPJPPDew1BTBesTOccWM0WjXdGeG9nIxQLNKJQpFeyPoxhO8c843ZP8Q7IlpLHs4/Bbc8rIrMxYoF3rdXHELnEM8/veEbt2aGeIvT48x62MWnqSkOicaxM41jDnp+4R3nu+P5QUMw0nCGhYwiyiQXuJ4vI8Z2w+jggomYii/9LLIhSILEgyp7GigUg5ca82fHGB9nmZRML/B0akTS2GXpa6wPPUdg7T7bGfuDRxDNHV6u2T3wIOC6OwYqHrfGxwaiCUCzwcTPDNt74GIYfoyTyFQt23gmrcxxmyCU10qnMKOCY8xULGFAYPHZvxBsGkxktoVjAqDSDLVuz3xRCLADGS2iMhY1tmbHRELEQptlQH2HpEBhjVlTaULGAVzrs8Spb4xxhlBp43U2I4aEl8oVBbNuwRhQtXigap6FiAQMZYzbpebdGfQceZQMPbjiwXbaGgW89CfG8bbfddn461yLsYSiJusQCECkwI4/G/cZzZkY/hjXGvXnOkxrCzHqHglAshCI63hBFuThBQrGQ9J6h8b62KAWpbRZl47oR+eP44+9F3sEWjeS5ylcssIw9B9bsWWb8CpvGM0J0EsFtHS7Q+G3Y+UMoFpLeNTQicXybeKaIUvH+CbvcNrKJBb4l3I+2LgQT+0DKqkU6aTharKtuiQXRlEgsiLIHj6+9LPHohx9BsKI/Wmi0hpCWgRfePN7WyFmm6zszigmpx/ud5mXOC94+GBhBjzzySDQ3d/gA8vGwF3XY+CCyf2a8kIqEoWU599b4cFBMasYCv7MRT0OxgHeK1CsLrVvDGOCjidFRH3hoLQrAPocfIwhHzibtIDzveNPwTPPht2Ws8YHjPIQ9siAW+HDaMmHqRV2wHdKe4sY415WIgRkaFPaGKRsI0DDSQiPCRBpB6DUPU83i+xeKRT7AZpBzj8Vz3vG6Wq9H1jAaydW2c8S1RVjUBZGKMD0IsWQgSMN6FlKD8N5jdJiBSFpE2DMN95uJDxoiLwQDGmFsefDWMBDZb86PGbLAs4KwjY/ezP2IIW4GK17c+P0UB2EU1j/EOwageNnmkYcfpruxH6TWcI3jxizHgoEaf48A15F7IP7cYfiRN444s+Pl3FguOfdO3PDPBr+x+wCve7YCbCJPbM+2zXMWnmPuOwQD93To8aZh9HK94jUJoVjgHiCdKn5NOYf1iVXDevqhEdEj3TCMvnK/IfTCVEeOAS+/1UZY43csa88w18sGwaTQ2t7ZPF+vvPKKn14XvOt594WiCAFA+hCGMfdheH5p3MvhvcZzZJGvUCwgton0mqefhoDgnWzdx7LP5nDgeOOEaaSsy6Jv/M5Gcw8b7wm7z2g4LXhfIhYsUsM+hDVqCDP7zvAOp67CIDpl9wL3bThithBJSCyIsgfvEl0J4onCOLKXq8EHl3k0PJvhhzWElz/eP1sXxhQvTgwL0pKYhqFj3u4QvDnmVcKbaF7qhkAYGc+07TPGbjaPGftLCJqUGvaVtAg+dnjUSffgtwgd8wyxTyYWMDyJBPAhQISwLP/HGMoVIioIFn6LURt6pAERZ8dAJCTbeeeDRq4660HIcQzZjhWhgQecdWGUx4t06wNDAAOQ3/MxxUjBEMYzxzSMqzCPHzg/pG4wn1608DLizSalhGmMzB1+gNk/9o157F8ouPCekpLAPIRlPDoFGOkIKFIuOB+IUvLsrRcejKh4UXocjAQ8oWyH+yKMYAAGB9MxGMl7xrCkpxvuH37D+UdUGHj3SbOx9SEQs8F0uxdo5M5zbbPB/cn1YH2IKoQk9wf3M8YTv+e+DfvmzwbHiuHM8lyfuLjgvcA2mI9oiad7AM8G0RKeMe4/oiDxLoDjsF2eO3tP0LhucScC9xP3F15gjMdcHAj8hueBdWI0cgxxcBTgubdt85xZGlIIwoP3lj1bXJOk6xeKBTzqCCsMb3tm2F4+7zREhe2fpWAxoJ9N4z2dlJbFdnEWcG/wjPH+5t7gnrHfs7/AfvI8MY3nK6w/qQu2zT7Y+rjvzVlAz0wISe4dzh33P/cOz7DtF/eJOQNCsYBjivcK3wPuSdbNPRC+WxgYjnm8W7LtL4a7/ZZ7hvvN4BpwLdgHGvcKopZ18l5jGvVsPLdsk3Qn1kPEJHQCEBXknc08jjF8VhGS9t7j/9lEsxBxJBaEqAde5hg35qHEiMgWvSgmCAw+ShgHYT/5IWFkgVSQXEL2TQEfYowvDDo+jo3tUSZNIETJjeajjhA1j6mBIWgpE0TNGiNCRXYw+jAIuf9IZaov/SlfEG94xS09pCnh2EhP5NgQu6TAZCMUC3jHQ8OyWkE000sXooL7I+m+CMUCPb2FYluIakFiQYgsIAYw7PA+UahpRdCExMPeMJoCPEH0UML2aXiWslGuYoFoj+Xl09sL3u9qAQOEgli7duRq453Eo9q9e/eaNCka3Y8W2pAVc9IurH6BFMJ8OiaoD4Q7KSJEG+OpP00BETRLoUR0JkVN4mLBxj2oZogOWs0LqZFEarIRFwthnYsQ1YLEghBZIKUmLOKzhqGXLd2hmGCEUCho+5A0qBtiwYxP0iLKRSxQXGddlZJTHS+UrnQwNuorSCWHn1QdUXgYa8ByyDnPhRILpAsRceTZLNWzhhCy3HTqLOiUIBuIBYtgUZsgsTAnrdCeS2qcsqUOAs+vRZUZZ0FiQVQjEgtCJEC3nnwgaPReQaFhUp52McHbjBFAygresKQUAjxj1nMGnvz6crObCvKHMYTZf3Kd44MaVTrUQZCXTZe38d5UKO6kwJg85mx56aLxkJpDNJD7j/NcKLHPc4lnP17L0JRwbETuODaesXhdjsEyNiAenR7kmvtfyZDXT69wnDvSPK1XuTjUh9nzSi9eSedYiEpGYkGIBOith48sPdRQlJet8LmcwHih4JX9pTce5daWF0SIEHBcH2uIwLBXKCGKAd5wogvcc0QjrHhX1A9F1jg5OHcUpFsvSUJUExILQgghhEg9GPV0NUqXuQcddFBJ6kiEqEQkFoQQQgiRaoiWMEYG6UKkjTImhiIoQhQGiQUhhBBCpBpSMKnVQigwLkbSeDtCiPyRWBBCCJEz5GyTx80gffw/l9HAhSg2DLxIb3AMQMj4JkKIwiGxIIQQImcYwIquSOnZqWPHjr5XGSFKDV2f0i1z0ngJQoiGI7EgRBVAF4vvvfeee+utt3xXj4xK3RTQgxTbzLV98MEHvlcnenJi8Dam8fGvVu81HtKPP/7YnweuXzFGv546daofe4BtMMhYXQPD0e3t7rvv7vPCN9poIz+GQVN1+cp2iGTYvZLW4lWexbrOcZqgJoBntdQpP+PGjfOD43FfMpo2PT8JIQqHxIIQVQB9iS+22GL+Y7rTTjs1WT/r/fv399vMtTHyNCLhscceqxk1dbfddvNjNVQjn332mdt88839eSAfmy58Cw0DimFgsY3mzZu7t99+O5rzTwYNGuSXY9C/5557LpraNJD+RIoJ26f16NEjmpMOGN/h/vvv96PCF3IU6VKBiO3Zs6cbOHBgSbsTxZFw4okn+nvCRtpH0CLKhBCFQWJBiCrgvvvuqzGyWrVq1WSh+j59+tRsN5fGiKqjR4/2Rul8883np+2xxx5VKxbwmK6zzjo154fBowrNiBEj3GqrrebXv+mmm3qxlsS9997rU4/uvvvuaErTgUHaq1evmnNx8sknR3PKHwzXM8880+831/Ojjz6K5qQPogh0Ubrxxhv747nooouiOU0P+2KDZzJK/O233+7vYf6+4IILVLsgRIGQWBCiCiCF5dxzz/VezX79+vlBmpqCl156yR166KHukEMO8Y2uDddYYw3/MaeROmDzaBiAX331lY8sLLDAAn4ZRk2tVrFAGtd1113nrxuGMnnZhQaxYNeE0X3rEgulBLFw3nnn1dw7nJO0QIRoqaWW8vuNMZv2Og+iOnYdbrzxxmhq0zNr1iz/PjvmmGP8aMzA/cvfF154YcFG6xai2pFYEKLEYBzjscULT8NrR00BRhx/33nnnTX52X/88Yd76qmn/PRbbrnlH8Yj9Qj0CsL8p59+uibXn99jgJMGgQHPegAvPuuxbWdrjz/+eEFz5bt27VpjaOAVzAZpUxTQssw+++zj8+onTJjgl2ef8CDWFR2h9oH0CDsG0qE4boyLEIw4O1+k4zB/2LBhrm/fvn7akCFDMryTdM9o8zi/DUm/+OSTT/z+sw6Ohzx8rjfXh2kPPPCAmzhxol+W887IsVw35v/4449+usH+cr/YMdC4X0gRyZVcxQLL0Xc9x0976KGH3Ndffx3NnSNIbR841+Szs++2Txhu3K/8m2kYedQe5EpcLOCpB/aX68s62ae6hDC1AlxTO1/c+4yqXR8Uzt52223+N7QHH3zQ9wZVH3i+iQaRrkMaGftNChfCnXuA80fUgWvOenm2GdGbyBp/E8HhnDHNts8xxkdn53zbvnEdOCY7xvjxUXfCM23Lc+64r3OBdxX3wHbbbVdzHRDzrId94Brx7Nm2uTfDZ479tmPjeHimScmydxDLx+uTWCcj0jOf9TKKchyOmWeJ+RTgE5GLw/3ItWc9d9xxhz/vnAt77mjPPvtsk9VzCZEmJBaEKCEYU23btq358JoxccYZZ3gjmb+pNRg8eLBfHsPyP//5T82yGA4hGGI2r3Xr1jWiAGPEpm+99dY1NQthDnhS22yzzdz48eP98o0F44lIg6375ptvzlogG4oF0l74G6PEfkfbcccd/2EIYQxiCGy55ZYZy9JItcHbGEYpMCxs/jbbbOPP+0orrVQzbdlll/WGMR5+xMe6665bM4/8aM5fPrnRjzzyiB9h1tZBY6RZriOGOn9TP4BwAYwe2+Zcc82VkYaEsYp3fbnllstYH41tYATFxVE26hMLXHuiGnRLGW5j3nnnde3atfNGGtf1mmuuqZlHlIhzRgoZf3MtL774Yr+8LUPDy46xmku6SCgWqGc5/vjjvci280Zjnw477LCsQpJ6jy5durhlllmmZnna2muv7a9jtqgNYo3ITrgNGtuhlsa82Umwz/vvv3/Gb61xThCcY8aMqakZWXXVVf3zYfVFNAQD9znb5O+11lrLC84QG4yMdumll7pu3brV/I2X3UAUcL8tvPDCNfNp3GOcWxOpSTzxxBM16YHxxjXH+L722mtrpu29994Zxjci1s4l66HuZejQoTVRRIrmESQh3H88m8xnv7mvDZY966yz3CqrrFKzTdp6663njwcxYnA/2ruWbfPsHHHEEW6hhRaq+R3Rn1NPPdW/Z4UQtUgsCFEiRo4c6TbccMOaD1W8Yajy/9VXX91/UAEPY/v27f30BRdc0HvpQhAFZlRQ5Ge9rvCBJaeX6bvuumvNBxkPJ9PqaoiTUooFjHwElP0mbG3atMkwCPAMLrHEEn4e+33FFVd4AUDhNNMYsAnjy7YZbifJCMIY33fffX09RXwe60Nw5AKGYdJxYACaSCEXnF6GAKPXennBkBk+fLifjnF99tln++kYzhjBHGvnzp1rrj/rweNaH3WJBa57krFrDQOOVJRLLrmkZtqxxx7rjbMDDzzQ/805tusSb3TDimCoj7hYYJ/NWx9vp512WkY0DGN7gw02yLqstQ4dOmQIBozc3r17e5GWbXka+4DXOwn2uVOnTll/yzlBbGD4W/6/3YvWeAcQ/Rs1alSNyGnRooWPiIUgCOw3iJtQLHAugChOXe8bGoY3UbwkchELPNN2DzItFAtEPnlmmcdzhbOEc4TwYhqGO89wCH+beMJhYJEj/h9GKbO1o446qkbM//TTT26//fbz0znPto/Z2lVXXeV/I4SYg8SCECWAkDheLfs4YRSQVoHRhBfXhAKtGGLBjH8MQzzmbJdGikHcg49nv1C5vw0RCzQMC84L+8jvOXam45EktQBIcbBozNJLL+3TIgy8iBj2zMMjbeclvh28zHjIaVYoGc7Da4vnNDQ8MdQxeOoCI8quGw1x8N///tcfT9zgqUssvPbaa346BqSJlx122KHGwCOtZfvtt/fTuQ9yETJJYoFrFUaellxySe91ZZ8RJhitNg8RdMMNN/h5HBv3NsdsYsEaootlMMa22GKLmuktW7b8hwEcJxQL1jhX119/vU9j4TzYdK4dHnvAWLTuXmkUGHMd2Q/uC+4Vm0fkyYxbojsm4BAMGL78hghJaHQjpjjWbHAOERPcuyaWEK5ce64N0SFSnEws0IhYnX766X5b3Nuk5eBYyFUscH+y71wj9p91IZy6d+9eswz3L/PZBga0vTN4Fuxdkw3SGYlehucakcV6EGRcI9J5chUL9uxeeeWVNSKE/bXnid+ef/75fjrPPCMzG6RxWYSEew5hx/uLc23OAZ4Ri74iLkwsWNtzzz39vYPQtSJ/GhEwi8oKISQWhCgJGDJmjPKR5GMZGs2kvphBzEesWGIhDvtlXXXSSOfBq1koGiIW8CriLTVIEcC4ZB4CgGMGjpXzxG/jXYxiwJgxYoYshNtBoIVpXRiU1n0r5y6sr6AHGDvPGCD1GRYYb4g+Wxe9UxkY+ggY5tHqEguWdkWBLPvK/oc963B+Dz/8cL88Bi5CsD6SxAL3iBn0nCOMyzCfnJSo0GhGWJALT/erGHKkQIVRCVKSwrER6AuftBPmYSCTUlQXcbEQimjA8LR0FI7H7lv20wx1nqXQc806MUARQszn3jeRgUE/99xz++kYlWH6GpEUDHEiOTxb9pwlQcTCUo1I6wsLnNnPUCwcd9xxNcaywf2TT2QBSPnheAcMGODrAiydjf2g5sLgHiNtbZNNNvGGdrYUrjhE62x78QJnRGOuYsHSK4mAIcaZzvHZfUIE1MQvAgeRDDxvnHum8x6Mi2JqF3g38AwQ5QJEYygWcCyE78HLLrus5h1BCmc+6YVCVDoSC0KUAML5lpKCccVHNISaAqYzv6nEAkZS6O0lR9082YWiIWIBURUWNWJIWS48xxqv2zAwsPBgYyDgebR0Ejz5FikJt4MwCguIMehD731o6OLBtDxrjJb6jEW8sWaQ7rzzzv8wRDjPyy+/vJ9fl1iwNKQQvMZPPvmkj0yxbjMqEToY7fWRJBa4ZyzCFRpwBmKAFBfm0zD4ubdI80IAMd+MM8495yCE62j94zMf47wu4mIBAz40qimsNaHL9TbDEo+zGf0IqThhNAZPNc8m9ykRNaZhdFIHE0IUi7SeeMF5EoxdYd5unutQ4HGtTSxwLyK44uQjFoiKIcSoTaKuh+vG/WH3OdcoXgSOsGCfOO764JyfcMIJNdvDyA5piFhAhB5wwAF+OtfABB01DRY9QOTbuojIWO0P14dj3WWXXfwYMtQl2DNDYxriAgdBKBbiIodtWv0C+xgvIheimpFYEKIEYNRj/PFhwhAN8+6BfG/L481HLOAxbIhYYOTesPCWDzm/KTQNEQscb1hwyIffzkFcLHBcGDJ4b/H8ZsuvjosFWwZjI0y3ogciM/Ap1Az3Ac+l7V8uYoHlyc1neQyWeNoKBrp5fnMVC9wTXGO8+3Yvha2xYoGohNUEsB1yvuOQfmLbIx3FvPKAYUfaEfM4V5ZyYsSNfyITdRFfnmhMCMa7RetCsUB3vPYb60EpJExPwfDkGcJ4tWLYJAM+H3IVC9wj2Qa7y0csEDngXialymowiNrYfDzqYT1HvjRGLLDflsIUigXgXjVjncgFzznHwN9EhkLBxnNuRc/1NaIEGP6hWODZCCOFQE9UEgtCZEdiQYgS8Oijj9Z4bemGMN4NI+F369GnLrGAxzAEbzgGD/NzFQusM6xTwEDkg5+LlzFfGiIWMNQRT0aSWCC1A2PAIgg0jF/ykakrsEhAklggTzks7uRcWvoKXuzwGuUrFjCqrUiTfY8b3hi2ZrDXJRYs0oNosOVpHBtGICk1Zow1ViwgaC2fn3XGe8rhWlpRM+ci7qnFSDTjDM9+mPoCGJ0U1DKfRgpMXcTFAvUTIUligfXaPYGRG4fjCnttoscqoiIm1rnHsqVIcfzZ7t1s5CoWSK3iesRBLNi1QCyEqULceybKaERrEG2hkc61tOhKtsgCx5Hr816fWKCGxMQCz3qYuoZYsG5X42IBYWPngUgB97pFIXgXhqPO8340scBzwbPKMZNuRSNSQk9iFI8TOeLY4qIwfk15l0osCJEdiQUhSgDGg6UZYUSExbiAmLDwe5JYwACir3qDj7ilddByEQsY3uRImyHBMhjwxaIhYgEhE+aLx8UCxh3Qs4z9hsgCqRikibB+8rhtXpJY4LyEHtdCigW86mYsklcfNwipqTCRV5dYwGiEk046yU+j4b3F0MJzioFj57exYoFtWbSDbYeGHbBNS9/BOI+nSIVigYb3m2tnYMRxzpnHvU6haV3ExUJ8ULYksUD6kwlFal2sJzCDa2P1JDxrNubA0Ucf7afxnLGtsBtaipI5Nopx2U5omGcjFAtc3zAyEIoFiq9tv0PCyMKaa66Z0QMTz3LYnTL1TnF4v9jzz7bi2yAFDMFB7j/PWl0iKC4WqLcKQTTaM0UKUBitI9XHisbjYoF3gxVh89zxnJIGyPmPj9bNPpJyx7I8N6S+xWF9XDM7lrA3JH4Tr3OQWBAiGYkFIUoAHmwr0ONjyMeJwcDwjtPFphlptLCQE2Mr7GEGjy89pfC7MNWFVpdYwGDiY3r55ZfXiBIEAx54PHgY2ayThkAxI48Pv01vSCpDMcUCEQZbL0ZBuF4Ekc0rhVjgt1aUTcOTjZHOecTDafUKtFzEAteJaRg3CA0DT6qlkzVWLHCe6ZOf6TQEGMYe+0x9wJFHHlnjsaerzvhYCXGxQCQMo5R7D6ER9lBFfQz3cV3kKxbsHOJhtkJs7nHSpTD2OQ4EZjgmx1FBV5vcV3b9qccgOsRvOMfcQ/Ybfo8YqAv2zWqUMPbtPHLfMM/EAkW+tt8hpAmGx8D5phYBbzrPk4l9GjULPGchbIv3AfO5LxAG1AExnXQ7KwxHVPF7znUSzAsL8hGuCBYiNGyX1EgzujlviEC2Q6SAGgr7XVwsAF2p2jm36ARpVbwbQ3i2wyJrRB7PMtvh2tJdLc8L0Vsr+I5HFiQWhMgdiQUhSgQft7CLVIxPPlZmgJkBEO/15YILLqj5DY0PPIaY/W2/q0ssYLyS2kNKg/2Oxrrw5iEgrPHRxVAC+va36QiNMMUgF4ohFlgWMCgs1QfjgZxkCirp1Yj9tW1SSGmGQFOJBcBoCa9TeN0w4Gw/chELYZemGGD0qIORHx8TIZcoUZJYAM4pA1zZ+thHzmV4HIggxEOcuFiwxnGH9zmNQun67qV8xULYixfnwYrVaew/x2HnnEbPTGF0BE90mN7DNeI3ZlBa69GjR42YTgLD3HpD4rg5BzyPGKykzdATEfOSxALPqnULTOMZZz/MoGad9txnEwuAKAifAzsHtg4a5y0e9YqDt55zb7/h9+wL7xueU1KA7FjD+Zw//jaBmE0sIDjitQjUX8TTpoDrzf1qy7Gd+L3J/WB1NIosCNFwJBaEKBEYU3haQ8FAw0AlYmDevjANCTA8yK+3j6410hzwqJlBwAfPjJiw8BnPMykgfJhJewjXkdQwQIBuCG0axYcNEQuhAUl+czaxgKFuy5BuEPY6Q1TG8p5plnvMxx0vZ2gU0vgbgxcDjb/x7GKgAQaULcd5CVMmSF8xA4x0Cs6ZgeFvv0NI1GcsAkKECIcVTVvDSMVTa9eC9DQzdBE75lHGsLV0NfY/W4En3mvuF/sbT3l9ESA8vpYPny0NBqGJ9zyMWtG4/0h/iafQGaFYwJilYNi6x7TGtSFSFp7bJBALoTeZlJUQzhnGLvN4pkxYAVEPxC3COxQpNIzLVq1a/aMAGzB8qV0IR1S2hngjBSye1pQNDFV684k/sxTt0m0o9yR/Y0AnGesU4DLCc/h7joX7liJem4Y4ziYWuB48x/F10NgvnhGic9mexzikSYaCgMb7xupa6IGK8xPOR1zzHHGu+ZvzzjGFsG1+a+8qlomnOYVwb9IDli1vjeeWnt2ef/75aMnMTiNo8agbx2TzuN/VdaoQtUgsCFFiSDvCg8kHH485+bd4wyw9Ii4WAAMFLz9GM78jXYT+5JmO55xp9PxiqSGMO4Dnj+l4cfEAYlyTTsG0uhrGuvUGg0cdTzeChMGSGiIWGNTK1k3KQjbjhHoDPOYsw3GGXj4GtMNoZB6iimUNDGPScthnjGn+zz6TSsXYCPYb8yCT+83fTOe8hBECzjnXg3kU4obRDc6H7R+RnngKTl1wvYkAcO2IsuCVx/g3gxHjx7qKpZcscufZDqlL4YjM5L3j1cZYpCCUCAeGO+s77LDD/G8wqOszxLnX+C3LIy7i3fgCxi7nFZHKctQqIHTDHqLihGIB4w1PLvtvx2PXJhehBdxr9NDEb2lh+hWQHoRBzjyeAVJ34nCsPBcIPCJWiGty7M3IzQb3BLVBnH/bNr8jKsUx5gppQ9zLtg6EBt5xriNpZUxDOCFQkuD6ck4xzDkGBmBj/0iZsvsYx0A2sWCwTbsGNDz3FIGHdRT1wfoxru2csA4EtPXyhbCjqJp9ZD4igfmIftKSmMb5zyaMEHkW0eOZqC/Fi/PKu8iOn+eKaxwWgQP7RmSKZTh/pDyFIJq5J5nPcxV2diBEtSOxIEQZQk639RmfTSyUEvaNjziGT1j0KZJB4CBQyJGna0wM2xAMPPNeY3ghbtJOKBZo8XEWSgmiBXHNIHcIobTBuaXGA885joBcBVcauO2222pSiRAUMtqFKD0SC0KUIXj5ylEsYKTgUaZnFqsVEPWD59qKWGmk+9BrDSlUdFMbDoZHVCCfSEW5EhcL8YHNSgWRFqsDwSglFS1t0GOT9a5E70L1FYeXO4g3rgNd/1rnDqTdZevZSQjR9EgsCFGGlKtYsBxh0nKU05s7GM50s8n1rKshwuJ53GmlXMUCqXr07MQ+WXpU2iBKZXUm8fqMNEI6ld0n1kjDDDsVEEKUDokFIcoQ0lSshxrSU+hqsRwgdYN8/UrwfDc1eLTJpc5WVE6hKnUAGK65FJimAcSCjYJMq28chaaC+pcBAwb4HqUYVC5bT07lDvcSBjbHQC1A2o1qCquttyQavbSVyztPCCGxIERZgteerj+vuOIKX1wZjrgs0g1eYQp7ubbW8LrnU2CaBqhneeKJJ2qO0XqgEiIOxcj2TFC4HnbfK4QoPRILQgghhBBCiKxILAghhBBCCCGyIrEghBBCCCGEyIrEghBCCCGEECIrEgtCCCGEEEKIrDRjqPhJkyb5YdjV1NTU1KqnMXrx77//nnWempqamlp1N/QBOqHZrrvu6kcWbd68uZqamppaFbVNN93Ujx6dbZ6amlr29u9//9s/N5tssknW+WpqldLQB+iEZosvvrgf0GXy5MlqampqalXUHn74YT8AVrZ5ampq/2xE4xgXYuTIkX5wvGzLqKlVSkMfMDBss//5n//xg+cIIYSoLhiRe9ttt43+EkLkwllnneV22WUX9/HHH0dThKhM0AdLLrmka/a///u/7v/+7/+iyUKI+hgzZoz74IMPor+ESC//7//9P/ef//wn+kuIyoARoD/55JPor8Ly8ssvu6222soNGjQomiJE5YI+IKggsSDKnp9//tl7QD/77LNoivP/ZhrFN8Vi9uzZ7sMPP3SPPfaY3wd45ZVXXKtWrdw222zjw9BCpBmJBZEWeB/jpBk+fLgvygdsl1dffdW999577q+//vLtySef9LU4u+++u/v000/9cgbLDxs2zN11113ukUcecU899ZS7//773d133+3effddn1ZU13flyy+/dJ07d3brr7++e+6555SVISoeiQWRGjDQl1pqKXf++edHU5z773//67h3hwwZEk0pDs8884w79dRT3VdffeX/Rjjceeed7sEHH/QfCyHSjMSCSAszZ850hx12mFtrrbW8EwfIp15vvfW8Af/HH394sXDvvfd6AcA7esSIEX4545dffvHfkd12282ttNJKrlmzZm6zzTbzwuKee+5x/fr1c0sssYR78cUXo19kwvoeffRRLy5eeukliQVR8UgsiNTw2muvudVWW81dcskl0RTnLrvsMrfqqqu6559/PprivKfowgsvdFdccYX75ptvoqnOTZgwwV1++eXuoosuco8//rj/6IQQskYA2G9IM7K/yUnF+/Trr7/6eSx7/fXXu759+/oPFVAEdN9997mhQ4f6eddee61yWUUqkFgQaYH39jHHHON7IProo4/8NN7tm2++uevSpYsXC0Bk4LrrrnO33367L0ZOonfv3t4JRaTCIOKw/PLL+28N34s77rjDdx9p/Pbbb36Za665xj300ENu2rRpfjrRDcQJ3wp+S8cB06dP9/P4Dd8H1oeQQZS8/fbbfp4Q5Y7EgkgNiIU11ljDG+LGjTfe6AUEIWW45ZZbfK8uBx98sP+YHHDAATX9BB999NG+iHPvvff20QiWDeEljzeJFzmccMIJXoggDC6++GJf3MPL/fXXX/cpSHil+EDtu+++Piz9/vvv+4/Odttt57p37+49VgcddJCbOnWqX58Q5YrEgkgLiAXe5bznf/jhBz8NY71ly5buiCOO8H3BP/30026DDTZwHTt29MsxHWdONs455xz/PRg8eHA0xXlDnm9Bp06d3H777eeWWWYZ73wCnEfdunVzW2+9tevatatbc8013VVXXeX3gb8XWmghd/rpp/vC52WXXdY/W4BjiW/IXnvt5fbZZx8fzSAyLkQakFgQqYHQ74orruhf/kceeaRv9HG9+uqreyFBninCgXQhIPeUv4kmPPDAAxlh64EDB/6jMA3vEwZTr169vPGPIOCjxMfn6quvduuss44POR966KH+QwFEH9Zee20fjh43bpzfRocOHXxeLR4rxA3LCFHOSCyItIBY6NGjhzfwEQN8B3AK4ag57rjjfKR355139kY+4EhaZZVVahxKcZLEAt1E4oxie23btvV9zPPv/v37++WJHgDRbQQDKUvsFwbVG2+84b744gtf03Deeef5yAffrdatW/vf8LwhHC699FL/txDljsSCSA28gFdeeWX/IcAQp+G9QRBQZMzLGzFBqBcw/jH48fwjIIg0IALq4pRTTnHt2rXz4WVECDmvcOWVV3pPFdEHjCqiBuTHsv155pnHh5yJLCAczj33XB96xhPFOkaNGuXXIUS5IrEg0gIGO1Ff0oROPPFE/x0444wz/LufiC5OJd7DOHd4RxPpXXDBBV2fPn2iNWSSTSyQYrTccsu5Z5991qeeIkp23HFHH51AkDBAlaVAsQzbHjBggN8vaifoeAPnEZHnnj17urfeessLiuOPP97/5s033/T7SMRaiDQgsSBSQ11pSKQGUSuAEU/UAHix07UdXicMeLz+RBvqAqNpo4028h8aohYMugMY/ogFitp22GEHvwyC4rbbbvP1D3TPR4oSHwSWpcAOrxH7O3r0aL8OIcoViQWRFsI0pO+//95Pw3bBMXTUUUf59+2GG27o72cEAvUGdFCB8Z6NbGKBWjUEADUIFEOTNoSTCuFw2mmneUFg3xJzUvHdQbxQKE0kgW8CIzyfffbZPpWVbwH7B+wj3yOJBZEWJBZEauDFTQ1B+ILFICfETJ/XdGtK9ICwNB8U8laZRw0CxhBCAu8PuaV4exhQhxSjENbBR4Z8UrxUM2bM8NNJZUIIIEpOPvlk/xGgYI2PAKFnuuzD04RwIcpA7xj8n78lFkS5I7Eg0oKJhdC7j3HOO5l3P/VpRBRIHQLSg/D4W0cUcTDmSQkiQmAgMIgskHaKWKDOoE2bNn7bdKDBPBxFwLrZNt+Ak046yTuSqGtALNB1K/ULdMFKxJrl2FecXEQ7iFgLkQYkFkRqQCyQhkRvEgYGOSKAqALQvSpjHxAVIDpwww03+PuaRm7pCius4D0/vNCpWeDlHwfPES9yS2cCfsu2+SBQG0FYmkgD6zv22GP9B4q+v03MIBb4P2KFkLMQ5YzEgkgLvLMpMG7evHlNPRgGOO/1ww8/3L/rqU3jO4CxjgcfQYBzJxs4jRZffPF/iAWKmk0s7Lnnnj6diXUwtgM93bH9Lbfc0kc0ECREk0lR4rtgPejhvEJMANENHE78jpQmbC6cUEKkAYkFkRroVQhP0sSJE6Mpzv+baTY4D+DRQTwgLiwyANzf1DbQRV5SSBrwAvERCnsxQgywHXtGCH+TFkUdxZQpU/w0ohRjx471+0SBM//n73j0QohyQ2JBpAXerea5t/cx73ne6ThymA+kkFLUzDu6LtuGdzniwt7jQITZvgE4fqh1ow7BnEvUpJF2inMq/JbYfrE/RLD5NxENvgHUwxFZIOJN70k4uejWVYg0wDMksSAqCj4WvJhJNbI+t4UQyUgsiEqDiAAFxeXQ4xBRB4qmiXYTiaCXJMaKSOrOVYhyQ2JBVBy8mPEW0Qc3/xZC1I3Egqg0iAJ89913Pips0YZSwv7wTaJL1a+++kqOLJEqJBaEEKLKkVgQQgiRRI1Y4D9CCCGqD+p7KOAUQgghskGvYc2o/Ke/eIpv1NTU1NSqp9FzF11RZpunpqamplbdDX2ATmjGoCIMRY53SU1NTU2tehq9tDAibrZ5ampqamrV3dAH6ASlIQkhRJVCd8J8DIQQQohs+DQkCpzpF1gIIUR18fzzz6vAWQghRFbQB+oNSQghqhj1hiSEECIJdZ0qhBBVjsSCEEKIJCQWhBCiypFYEEIIkYTEghBCVDkSC0IIIZKQWBBCiCpHYkEIIUQSEgtCCFHlSCwIIYRIQmJBCCGqHIkFIYQQSUgsCCFElSOxIIQQIgmJBSGEqHIkFoQQQiQhsSDSxcyZzk2e7Nw33zg3fvyc9vXXzv34I0MMRgsJIfJBYkEIIUQSEgsiHXBvjhnjZl9zjRu/447uvaWXdh/MP7/7YN553XtLLunGbbmlm96rl3MjRzr366/Rj4QQuSCxIIQQIgmJBVH+EEW44AL37rLLulv+FgftmjVzK/zd5vq7Nfu7LfV32/bvdvm//uVeW3RRN7NbN+c+/DD6sRCiPiQWhBBCJCGxIMqbMWPcz7vt5m79WwhsFImDutpyf7dL/m7fbr65c0OHRisRQtSFxIIQQogkJBZE+TJunJu4zTbulEAM5Nr2/buNW3NN5158MVqZECIJiQUhhBBJSCyI8uTXX93MTp3cGfPMk1UM5NL2nWsuN6llS+e++CJaqRAiGxILQgghkpBYEGXJ7Ouvd08ssYRbIIsIyKdd+7fY+L/jj4/WKoTIhsSCEEKIJCQWRPnx00/ujzZtXJssxn++bbW/22errurcp59GKxdCxJFYEEIIkYTEgig/HnvMDVlpJbd0zPBvSKPHpFsWXthNv/rqaOVCiDgSC0IIIZKQWBBlx+xTT3UnzTWX+1fM8G9o2+PvRo9KbvbsaAtCiBCJBSGEEElILIjyo1Mnt2fM4G9MW/fv9stGGzn311/RBoQQIRILQgghkpBYEOXH3nsXpF7BGmMvTF1rLYkFIRKQWBBCCJGExIIoPzp2dG1jBn9j2qp/tynrrSexIEQCEgtCCCGSkFgQZcfsrl1dl5jB35j2n7/bT9tso5oFIRKQWBBCCJGExIIoP/r0cTcttphbNGb0N7Sd/q9/uak9ekQrF0LEkVgQQgiRhMSCKD8++sh9u/nmbsMshn++DcExYtllnRs2LFq5ECKOxIIQQogkJBZEWTLrmGPc+XPPnVUA5NMO+rtNbtPGuWnTojULIeJILAghhEhCYkGUJ++/7ya3aOG2jRn/+bRV/m7vrbiic0OGRCsVQmRDYkEIIUQSEguibPnrnnvciBVWcJvHREAubaW/2+MLLeRmXHSRc7NmRWsUQmRDYkEIIUQSEguirJnVp48btcoqrt3fxv+CgRioq7X6uz21xBJuxhlnODd9erQmIUQSEgtCCCGSkFgQ5c9DD7kp22/vrvxbBDD+wvKRKAjb//zdWv/dev7dvm7e3Lnrr9e4CkLkiMSCEEKIJCQWRDoYO9a53r3d5Hbt3AN/36sX/i0KTvu7nfp3O+/vNnDhhd341q2dI5rw6qvRj4QQuSCxIIQQIgmJBZEuxo937rHHnLvmGueoR7jwQueuuMK5e+91bsyYaCEhRD5ILAghhEhCYkEIIaociQUhhBBJSCwIIUSVI7EghBAiCYkFkV4++cS5UaOiP4QQDUViQQghRBISCyK99O3r3HHHRX8IIRqKxIIQQogkJBZEernsMuc6dYr+EEI0FIkFIYQQSUgsiPRy5ZXOHXxw9IcQoqFILAghhEhCYkGkF4kFIQqCxIIQQogkJBZEepFYEKIgSCwIIYRIQmJBpBeJBSEKgsSCEEKIJCQWRHqRWBCiIEgsCCGESEJiQaQXiQUhCoLEghBCiCQkFkR6kVgQoiBILAghhEhCYkGkF4kFIQqCxIIQQogkJBZEepFYEKIgSCwIIYRIQmJBpBeJBSEKgsSCEEKIJCQWRHqRWBCiIEgsCCGESEJiQaQXiQUhCoLEghBCiCQkFkR6kVgQoiBILAghhEhCYkGkF4kFIQqCxIIQQogkJBZEepFYEKIgSCwIIYRIQmJBpBeJBSEKgsSCEEKIJCQWRHqRWBCiIEgsCCGESEJiQaQXiQUhCoLEghBCiCQkFkR6kVgQoiBILAghhEhCYkGkF4kFIQqCxIIQQogkJBZEepFYEKIgSCwIIYRIQmJBpBeJBSEKgsSCEEKIJCQWRHqRWBCiIEgsCCGESEJiQaQXiQUhCoLEghBCiCQkFkR6ufxy5w44IPpDCNFQJBaEEEIkIbEg0stttzl3xhnRH0KIhiKxIIQQIgmJBZFebrnFuR49oj+EEA1FYkEIIUQSEgsivSgNSYiCILEghBAiCYkFkV5U4CxEQZBYEEIIkYTEgkgvEgtCFASJBSGEEElILIj0IrEgREGQWBBCCJGExIJILxILQhQEiQUhhBBJSCyI9CKxIERBkFgQQgiRhMSCSC8SC0IUBIkFIYQQSUgsiPQisSBEQZBYEEIIkYTEgkgvEgtCFASJBSGEEElILIj0IrEgREGQWBBCCJGExIJILxILQhQEiQUhhBBJSCyI9CKxIERBkFgQQgiRhMSCSC8SC0IUBIkFIYQQSUgsiPQisSBEQZBYEEIIkYTEgkgvEgtCFASJBSGEEElILIj0IrEgREGQWBBCCJGExIJILxILQhQEiQUhhBBJSCyIdDB9unP33efcrbdGE/4mLhaeeMK5Pn2c++mnaIIQIhckFoQQQiQhsSDSwV9/OTd4sHOtWjn3/fdzpoViYdo05/be27mrrnJuxow504QQOSGxIIQQIgmJBZEeJk927thjnbv66jl/IwxMLDz8sHMHHODchx/O+VsIkTMSC0IIIZKQWBDp4rnnnGvdek5a0nXXOXf44XOiDvvvPyfSMHt2tKAQIlckFoQQQiQhsSDSxaRJzp1wwpzahZtucq57d+eef965gw5ybsyYaCEhRD5ILAghhEhCYkGkj6eecm6//Zw77bQ5/z/5ZOcuuSSaKYTIF4kFIYQQSUgsiPTx44/OXXihc6ut5txSSzl3/PHOffxxNFMIkS8SC0IIIZKQWBDphNSjRRZxboEF5tQuCCEajMSCEEKIJCQWRHohunD00c5NnRpNEEI0BIkFIYQQSUgsVBmzZs1yr732muvXr5/r3bu369WrVzrbBRe4Xvvv73rtvLPr9d//Zl8mBe2Cv4/jxhtv9Mba77//Hl0lIZoWiQVRKMaMGePuvvtud+mll2Z956k1XTvvvPPcVVdd5R599FE3YcKE6AoJkT8SC1XECy+84I488kh3+OGHu27durljjjkm3a1HD3fMySdnn5eidvTRR/vrcvDBB7v7778/ulpCNB0SC6KxfPrpp+7UU0/177GuXbv691q2951a0za+9UcddZQ74IAD3BVXXOGmKhIvGoDEQpUwYMAAt++++7qzzjrLvfzyy3phlBEzZ85077zzjrvssstcx44d3UUXXeR+/fXXaK4QxUdiQTSGIUOGuAMPPNAbpnixJ06cGM0R5cAXX3zh+vfv7wVD9+7d3UcffRTNESI3JBaqgD59+rg99tjDv9BFefPuu+/6F/oZZ5zh/mKwOSGaAIkF0VCIWLdv395/Z6YzWKYoW7777jsf/enUqZMbP358NFWI+pFYqHCef/55t+eee7oXX3wxmiLKnc8//9xHge644w43WyNSiyZAYkE0hLFjx7qDDjrI112JdDBlyhR3/PHH+yyDn376KZoqRN1ILFQwf/zxh9t11119MbNIF6SKtWrVyoePhSg2EguiIRABJR/+zz//jKaINECaWJs2bXzKmBC5ILFQwTz99NOuc+fO7rPPPoumiLTAs8hH+JZbblF0QRQdiQWRL+S9H3LIIW7QoEHRFJEmLr74Ynf66acruiByQmKhguFFcPnllyuPNKU89NBDvmcRCqCFKCYSCyJf7r33Xt+L24+MqC9Sx3vvvec6dOigYmeRExILFcw+++zj7rzzzugvkTbeeustn4oksSeKjcSCyBe64ST6KdLJtGnT3LbbbutGjBgRTREiGYmFCmbnnXf23mmRTj755BO38cYbSyyIoiOxIPLlv//9r8RCytlqq63cq6++Gv0lRDISCxWMxEK6kVgQTYXEgsgXiYX0I7EgckVioYKRWEg3EguiqZBYEPkisZB+JBZErkgsVDASC+lGYkE0FRILIl8kFtKPxILIFYmFCkZiId1ILIimQmJB5IvEQvqRWBC5IrFQwUgspBuJBdFUSCyIfCm0WGDk+ttvv913yfrrr79GU0UxkVgQuSKxUMFILKQbiQXRVEgsiHwptFj44IMPfHff3bt3dz/88EM0VRQTiQWRKxILFYzEQrqRWBBNhcSCyJdCiwUEwoknnujef//9aIoARli+6aab3OOPPx5NKRwSCyJXJBYqGImFdCOxIJoKiQWRL3WJhQkTJrjLLrvM31fGG2+84S6++GL3xRdf+NGDzzjjDPfKK6/4ed9995079NBD3WabbeaOPvpo//t84B35wgsveMP6+++/d5deeqkbNmxYNLeWd955x5155pl+2boYPXq06927txs3blw0JT/YjxtvvNF/f2fPnh1NbRiPPPKIW3fddd19990XTckO55Xza+c0FyQWRK5ILFQwEgvpRmJBNBUSCyJf6hILGNsYFqeddlo0xblrrrnGLbzwwu6pp55y48ePd/fcc4/76KOP/LzffvvNPffcc75u4bXXXvPGdj5cd911bq+99nKTJk3y6UyLL764u+CCC6K5tXz55Ze+JuLDDz+MpmSH2on555/fPf3009GU/Pj000+9gX/ggQdGUxoOQiqXaMvQoUPdIoss4q688spoSv1ILIhckVioYCQW0o3EgmgqJBZEvtQlFt5991231lprZRjst9xyi1tllVXc888/7w36Xr16eWEAiASExb777usuuugi9+eff7qpU6e6Sy65xF144YU+CrHHHnu4m2++2S8fgscdIwYhQlTi2Wefdeuvv75f15577un2228/98wzz/hliWicd9557uWXX/Z/h4wcOdIddNBBrn379u7II490K664Yk10AiHD9N13392dc8457scff3QzZ8700Qe8+SeffLLfvxtuuMFHEr766ivXunVrt/3227vDDjvM78ddd93l1xUHYUVUZbfddvNpWD///LOfjoBiX6njOOSQQzK+5YgYxBH7RBQF223EiBFu9dVXd506dfL72blzZ3+u60JiQeSKxEIFI7GQbiQWRFMhsSDyJRexgKFv9O/f34sFDHXy7zE8+vXr543ijh07unbt2nlB8e9//9udffbZPgqwxRZbuFVXXdXddtttbv/993drr722X3cIXvdtttnGrbPOOu6BBx7w6U6rrbaaa9Omjevbt6/beuut3Y477uh+//1399hjjzlsHaIcIRj/bJ91UB+Agb7sssu64cOH+ygEIgIhgJBZaqml/P+JfrDd5ZZbzv/m8MMP98Y6qU7ffPON3/eNNtrIHzdCYJNNNnFjx46NtjgHtothz/5dffXV/lg5Z9OmTfMRkA4dOriHH37Y7xvnE5GFuECEIKAQKmyfZV9//XW3wgor+GU57hYtWvjt1tWzlMSCyBWJhQpGYiHdSCyIpkJiQeRLXWIBA36NNdbw3vktt9zSNwx4Ewt4xpl///33+3sPgxdBACeccILbdtttvVGMwY/RjW3y5JNPuuWXXz6rhx7P+3bbbecN448//tittNJKrkuXLn4enneMeKIXRB3WXHNNb9yHEHlg3Ra5YD77RGSBdWLkE8Fo2bKlm2eeedwxxxzjJk6c6A3zDTbYwP8bYx2BgWAhsoDo2WGHHfz67rzzTm/II1ZCvv76a/97toVQQgjx3ic68e233/p1nnLKKf5cIVIGDx7szztRC+bDm2++6beHsGE9nD9AcCF+6qq7kFgQuSKxUMGkSSzMmDHDzZo1K/qr6WC75WqMSyyIpkJiQeRLXWKBdB+M8iOOOMKnGtFOP/10LxZeeuklLxaYj0ccI5kUIjznGNgYxvz/xRdfdLvssotPI8J4fuKJJ7wIGDhwYLSVOfDdIOUGLz+F0UQCEAd4///66y93+eWX+3XyPk0SC4gWjPlHH33U/43Bz7bYB9KTEAkHHHCA33bz5s1rxAL7R/oRqUMY66yDYyIq0qpVqxrBcscdd/j1Pfjgg/5vg30nkrDQQgu5JZdc0hvvfLOJgpCChchi/vnnn++PgSgDaU1EIuJF4Gyf83vttdf64ybNC7FgdSHZkFgQuSKxUMEkiQVevFOmTPEvu8mTJ3vPCf/nb0LCje29IR/YFt4U9pVeKv74449oTm5wz/Ji5eUYwkuYY6zL0MZbRM4nL9V8hAq5qmyz2Ea8xIJoKiQWRL7kkoZEmoxB5CAUCxZZwNu+zDLL+N6T8ILz2zFjxvgiaDzzViRM6hIGN8XHIby7SVEiGsF3DOOYdV9xxRV+HpEFBALrThIL7AOG0PXXX+//JhKw8soruyFDhvi6hKWXXtrvF8XGm2++ua+NMLFAqhDfUCImiAUiEIgF0p+6devm18exs+8Y+yHsHxECejLiXMw333w+1QphRBoRAoVlBgwY4FOU2P+zzjrL12RwjoBvEY3tE70hBYnfUFtBkXU89SlEYkHkisRCBZMkFige4wWKh4QXOi9qXq783bNnzyY1TjG8+/Tp444//njveaqvICuEFyJ5m4Sf4y9EwrccDz1uJMGLt0ePHv7Fng/0OkFoPO7hKjQSC6KpkFgQ2eD9nERdYuHtt9/2KUikwhh0JYrRTWoPxjBpPxjRdHWKYX3sscf6qACFyTiOSBsi3QZjHKcSXYhip9x6663RGufAdwBBwfueIt9Ro0Z5ox0jn3l45vmb9yk9MfFv6g9C+AYQPUCc8PuDDz7YLbbYYv57xPYQDnxLqSto1qyZ69q1qxcOfHtwOBFZoDtWogOkSWH8Ex0hCgDULbDvRCxCSJlim0QR+DdRCiIkpBaxXtKciBhQo0D0gf3hWeV7Td0F9Rk8t/ye6ZxTIgv2bUScmajIhsSCyBWJhQqmrsgCHnwKtCgwo4s4el3gb7zxhDcp0OLlReNFiJcH7wW/pSiL+XhTmE40AkjpIXeS+XHw/GPQ453hRWrRCz5GfCAI9TLP1sU6yOekC7r4bwxeiHhu1ltvPb9u9gevEuvAy8KHCW8VIXE+FIgkgwIyPmh8GPhYhbAtitRYF8ccB68YHhwiEhScse1w3fDZZ5/5dXD+wqgHPXywPzQ8U3UhsSCaCokFEYf3+VVXXeUN0mzvwbrEAu9EUmXMUw943DH+edeT3kM9gn2fiDZgEGPwU/BLFIDvDrUIJ510kn/32z2KaIiDgU4BMcY768Tjj4HON4I0JwxyBAFjELB+SzcKQWiQOsQ+UKyM0f7WW2/57yE9DG244YZe1DCf3o/4PpFmhcjhm8O3hPnUVvB9JNqBdx/YZ/admoMQ9o/UJNKNNt10Ux+1IJrB8RLt4NtGkTTjTxA5ITLBPIQX3wb2BWGDcOE7yfFzLlgvYgIbANGVhMSCyBWJhQomSSyEMJ8+qa13CO6Bvffe2+c68uIhDIpnBU8GLzXmH3fccf5Fyt+84BAaQF4qv8OjExr2CAKWJXTKy41wKi9PjGA8TKyLlzlhWvJL2QYvY7bJMVAAhjeIj0UIL0Re1LxoeanjxcGzgieGFz/eoLZt2/oXML+3Y0QQ4YkhqkKol5e4deHH//mI8WJmP0899VS/fAgvc46TDwsfvyWWWML3883+IAyIWPBy59wQ8rawOeuxojO2zW/r6j9bYkE0FRILIg7vbbzj8847r0+74R0bvgvrEgvAuzD8DvBvmxb+22B7OHFC50q4TLbfhPD+5V3JMtl+Bzh1KJzG227TQliH7UM4n3WwbgSUzbP12nL2t203/Hd8XhzWy3bjkRw7J/ZtsW0B+8O8cJ3ZtlkXEgsiVyQWKphcxAJ5kogFG8gFDxLhTwxtXqqAcUwvDyzLPcKHAwOcjwchYjxCfERYB8Zx3KgncoBIIO8SbxGeIozmX375xRd+kR+Kp4nUHgxpvPX0uU1Il7ArXhM8NhwPvzd4gdLzg3mCMKytpwxegOwzninyWOn6DuOebeJxIkSOUc8Ll/6qd911V+9BYh/x6BBSZhrRCVKaQjg+QtR4lfAo4UHC0OL3GPicA6IOvMgJCZODyv6wb+wrUQXOCd0F3n333dFa/wlRCUSHEMWGe5znWIgQUoawDUi9YcAv3rc4YvgOkMpal1goR/iWUJzM+A8Y6NWOxILIFYmFCqYxYoFm6UQMSINnnnxL7hG8+XicKMzCo06YlNArxi+e/HgaEmKAKAHh7BC8JoRO8fITWWAZvPGIBeoXEA+kBAG9QWCEh554xAJ5mXzIaGyfVCSwYjMK7DDayYFFTCBwMPKJRlgaEAVh9J5BPisGOt3nEUJHuBCpiO834onpNuAQdQ+cA0LnGP9ESDhnwLEQSmawHT60RBNsH+uD8DHpTuT1IjTU1IrVeI6437PNU6veRlSUmjZ7x9IWXHBBH1XgPdq9e/fobSXSiMSCyBWJhQqmMWIBr7rl8pNniXFMviSeeAxf8kMZWh9DmrQdRqAkpYePSBwKmPHkk5caguGPAU9hGaKA9CU870xHLDCdmgigSA0xgVfeQCzQBzWFXxjk9DFtBc3kprJNDG32mUgFXnryZck/JcWKKANQt4EQoWCZc8a/qTfgt2zTUpQMIhJECzguoDib46C+AuFBUZm9gAl3k0ZFNIY0KaIb9dUqGNR/8FxS5MbgOmpqxWqIZz4E2eapVW8j6kq3pqFYoFGEjEOFb4FILxILIlckFiqYQokFUnIwxClQIweS0S0RCz/88INPPyIFiHWQmsSycaghIJ3HBrzh5URf1BSZURdgvVvQnzaGNQY2nk6MffPqUzuB9x4D2kAsUD9BLQTd6iEA+IBRqE2onN+TVmRiwQx6hAfzrP9pPP4ICSInFLExH/gQEp1gXSGIBWoOrEcNEwukILG/DJ6DAAEG+2EdeOgoFuTfFh3h3CPEkvJYlYYkmgruW6UhiTik7RApNZGAA4coL9PpPCJtaUi8U/km8H8hsSByR2KhgslFLFAzwEfAIgIY/xQc4wG3ESIRDeTkIxDwkOM5Jz3GDHdEAOvYc889fX1AHNZJwTJGPfmieOWJCPDCRpggEPD20ysTIW9eXnThyr+PPPJIX3dgBnhYsIVYYB6CAxFA5AMvGD1FkGvLv/H+IxZInSI6QmoPIgHBg7DA0MerSvoQ+0ltAylJ/J9nguOK92AxaNAg/9BQjA2IJT6oiAAK6OgHm3UiZPg/QoXep0hTopcOjDKiDGyH+omkIjQVOIumQgXOIg7vJbryNJFA5Dc0susrcC4FRLv5ThDFzvZeJe2VY+G9bzULvPepLcMZRsqqgRMHEc2YDDjGKhGJBZErEgsVTC5iAcOZFyXpOYBhitHN78Lu8kjroWiXDwSGNSLD5mOYU4ycLQXJIOUH45r0IjzyNvga3c3xEWIAHbq4w+tDF3fUASBY2DeMb1KC4h54/sbIYR6Fz3wc+Df1AqQ1IWJIW0JUEPGwAmtg/rnnnusNebpCNTD4qaEgskFKEV3/YbSHIDj4IFkBOEXYpDDxoQI+QogURhBFDITPFTUMdKfH+qnzqAuJBdFUSCyIOLx3qAPjfUWHDHHKUSzwvieKTS92SeAEs+8d8B2jro6atfBdy/eEnv6Imtc1VkGakVgQuSKxUMHkIhYaAz0BkVpDsTMpQPGB0XKFyAWhbdKVDDzvFFyGaUdpgg8NAihbn+C5IrEgmgqJBRGHdxjjBSRRjmIB5xcRbGoqqKNjDAIiBgZR4i5duvgIOU4rhALvVxxLvKvDyALHT3ouPQPi3OncubN3bJGCZbBuptOIOBtEmOlcg57yiKaH4qSckFgQuSKxUMEUWywQHSB/H+85A5w1FD5IeHboqcjAa0+EgBBxGmG/qYGgS9ikmoT6kFgQTYXEgsiXchULpLnSkx7OGgZgI2WWDiv4RlEXhwAgLZYIBBFiUowQGKSm2qCggFhgbB7SWVme1Fhq92ygOaLrOMqIfDOfejei7ESW2TY93/F/UlH5dygyygWJBZErEgsVTLHFgiguEguiqZBYEPlSjmKBdCHEgnXpSvoUEWq6zqZLb/6mYwnudWoxEACkJTGOD5GI0DmFWCByThoSqarMw/An6k00HAFAnZ6x0047+YgGUQSMcKtpI62WVNVydHxJLIhckVioYCQW0o3EgmgqJBZEvpSrWFh33XV9Wit8/fXXvqCZDi6ou8OgJzXp6quv9l1kExVgMM0ksYDBTwca1EIgEBjZH7FAd9pEI/i9wbgTrIfxKVg3EfdyR2JB5IrEQgUjsZBuJBZEUyGxIPKlnMUCEQOgIwuiAV27dvU98NEjHtEFvP10xU0tQl1ige5hGWuHXqBYjmcEsUC6E+MKsV5LM6V7b8YcIjWXcX9CIcE7nI42yg2JBZErEgsVjMRCupFYEE2FxILIl3IVC3RjjdefGgWKmPkbb/+ll17qPf5EGKhbIA2J9CRq5jD8MfbjYoEe7Rgbh/WSroTwoO4BW4ke+6hZePPNN33nHAgEuu2mxz3WRZoSXXrTox/dZbNcuSGxIHJFYqGCkVhINxILoqmQWBD5Uo5igbFsuI/btm3rDXnqF0hJouiYiAJj6xB5wOgnvQixQJSB8SQYnDPsLhyxgPFPsTTrJQ2JGoVu3bq5mTNnuqlTp9YMyMkYRBQ+27uadzcj71P0zDhCCIZytK8kFkSuSCxUMBIL6UZiQTQVEgsiX8pRLGDg00sftgwefsb3CdN/6NKUEf7p9Qhjn+X4DdPpNjXecx3vXtbHMsxjudBOYj5j5zB4m40dZLAsg5T++uuvDe4Rr9hILIhckVioYCQW0o3EgmgqJBZEvpSjWCgFpDpR78BgnWlDYkHkisRCBSOxkG4kFkRTIbEg8kViIf1ILIhckVioYCQW0o3EgmgqJBZEvkgspB+JBZErEgsVjMRCupFYEE2FxILIF4mF9COxIHJFYqGCkVhINxILoqmQWBD5IrGQfiQWRK5ILFQwEgvpRmJBNBUSCyJfJBbSj8SCyBWJhQpGYiHdSCyIpkJiQeSLxEL6kVgQuSKxUMHstNNO7uGHH47+EmmDgYCaN28usSCKjsSCyJcLLrhAYiHlSCyIXJFYqGDat2/v7rvvvugvkTYYcZRRSCUWRLGRWBD5cvHFF0sspBgGitt6663d66+/Hk0RIhmJhQqma9eurk+fPn70SZE+nnvuObfHHnu4GTNmRFOEKA4SCyJf+vXr54488sh/jFws0sHXX3/t2rVr5959991oihDJSCxUMP3793c9evRwEydOjKaItIBA6N27tzv//PMl9kTRkVgQ+fLyyy+7Ll26uFGjRkVTRJog6+Doo4923377bTRFiGQkFiqYb775xm233XZuyJAh0RSRFr788kvXqlUrN2LEiGiKEMVDYkHky7Rp09wRRxzhevXqFU0RaWKvvfZyffv2dbNmzYqmCJGMxEKFc8UVV/gXurwH6YGP8FlnneVOOukk/28hio3EgmgITz31lOvQoYN75ZVXoikiDdx2222uc+fOvsc9IXJBYqHCoTiWUCPpSN9//300VZQrf/75p7vyyiv9B/iHH36IpgpRXCQWREPAK3399de7jh07utGjR0dTRbnC9Xr00UfdLrvs4l544YVoqhD1I7FQBSASKHam54rXXnvN/fTTT9EcUS5MmTLFjRkzxp155pn+w/vOO+9Ec4QoPhILoqHMnDnTXXTRRT6tBUP0u+++U2pLmYFtR2rrDTfc4IuaH3zwwWiOELkhsVAl8ELHY00e/Mknn+zuuece71mgj2W10jWKBBkLg0JmjDVSjyZNmhRdNSGaBokF0RjohnPQoEG+Ru6ggw7yPSXRm1u2d16xG44WugPNNq/a2vDhw32q2DXXXON23XVXt88++7j33nsvumpC5I7EQpXx+eef++5UDz74YNe6dWs/KIta6do222zj9t13X3fJJZcomiBKhsSCKASTJ092999/vzvmmGP8oKDZ3nnFbFtuuaVbYIEF/Mj32eZXW2vZsqUfb+mMM85wQ4cOVQ2caDASC0IIUeVILIhKYZNNNnGfffZZ9JcQohBILAghRJUjsSAqAcak2XTTTd3HH38cTRFCFAKJBSGEqHIkFkQlQG0eYmHs2LHRFCFEIZBYEEKIKkdiQVQCEgtCFAeJBSGEqHIkFkQlILEgRHGQWBBCiCpHYkFUAhILQhQHiQUhhKhyJBZEJSCxIERxkFgQQogqR2JBVAISC0IUB4kFIYSociQWRCUgsSBEcZBYEEKIKkdiQVQCEgtCFAeJBSGEqHIkFkQlILEgRHGQWBBCiCpHYkFUAhILQhQHiQUhhKhyJBZEJSCxIERxkFgQQogqR2JBVAISC0IUB4kFIYSociQWRCUgsSBEcZBYEEKIKkdiQVQCEgtCFAeJBSGEqHJGjhzp2rRpE/0lRHrZZJNN3JgxY6K/hBCFQGJBpIIZM2a4p556yl1yySXu4osvVlNTK2Dr0qWLW3XVVbPOU1NLS+vdu7dba6213BdffBF9OYQQhUBiQaSCr7/+2q233nrusMMO84aNmppa4Vrbtm3dsssum3WemlqaWt++fd2ff/4ZfTmEEIVAYkGkAnJQN9544+gvIUQhURqSEEKIJCQWRCr45JNPfC4q6UhCiMKiAmchhBBJSCyIVCCxIETxkFgQQgiRhMSCSAUSC0IUD4kFIYQQSUgsiFQgsSBE8ZBYEEIIkYTEgkgFEgtCFA+JBSGEEElILIhUILEgRPGQWBBCCJGExIJIBRILQhQPiQUhhBBJSCyIVGBiYebMmdEUIUShkFgQQgiRhMSCKFsmTZrkPv74Yzd16lT3zTffuM033zxj+m+//eb/FkI0DokFIYQQSUgsiLLliSeecEsttZQ7/vjj3cMPP+yaN2/uhg0b5nbffXe35pprutGjR0dLCiEag8SCEEKIJCQWRNkybdo017JlS9esWTM399xzu7nmmsv961//8n8fccQR0VJCiMYisSCEECIJiQVR1jz44INu8cUX9wLB2qqrrurefvvtaAkhRGORWBBCCJGExIIoa+j9aJtttnHzzjuvFwrzzDOP69q1azRXCFEIJBaEEEIkIbEgyp7HHnvMLbrool4srLTSSu7999+P5gghCoHEghBCiCQkFkTZw33ZqlUrLxaOOuqoaKoQolBILAghhEhCYkGUPbNnz3aDBw92e++9txs7dmw0VQhRKCQWhBBCJCGxIFLBW2+95bp16+bHWxBCFBaJBSGEEElILIiyZ9SoUd6QYXyFdu3aua+++iqaI4QoBBILQgghkpBYEGXNyJEjXYsWLVyvXr3cRx995A4//HC38847u/Hjx0dLCCEai8SCEEKIJCQWRNliQuHcc8+tuTd//PFHd+ihh7pddtnFffnll36aEKJxSCwIIYRIQmJBlCUjRoyoiSgwknMIguGQQw7xEQYJBiEaj8SCEEKIJCQWRNmBUNh88829UEi6J00wEGH4/PPPo6lCiIYgsSCEECIJiQVRVrzxxhs+onDOOef8I6IQZ/Lkye6ggw7yEYbPPvssmiqEyBeJBSGEEElILIiywYTCWWedlfO9aIKhbdu2EgxCNBCJBSGEEElILIiy4NVXX60RCtOnT4+m5sbPP/9cIxjGjRsXTRVC5IrEghBCiCQkFkTJGT58uBcKZ555ppsxY0Y0NT9++eUXd+CBB3rB8Omnn0ZThRC5ILEghBAiCYkFUVJMKPTs2dPNnDkzmtowQsGgCIMQuSOxIIQQIgmJBVEyQqEwa9asaGrj+PXXX2tSkhRhECI3JBaEEEIkIbEgSoLVKJB6VCihYBBhQDDQraqKnoWoH4kFIYQQSUgsiCbHhEIhUo+SsKJnulXVOAxC1I3EghBCiCQkFkST8vrrr3uhQK9HxRIKxk8//VQz0vMXX3wRTRVCxJFYEEIIkYTEgmgyGEeBkZnPPvvsBvd6lC8IhkMPPdQLhi+//DKaKoQIkVgQQgiRhMSCaBJMKOQyMnOhYeA2Ewzjx4+PpgohDIkFIYQQSUgsiKIzYsQILxTOPffcJhcKxqRJk9xhhx3mdtppJ0UYhIghsSCEECIJiQVRVEwonHfeeSW/v3788UcvGJSSJEQmEgtCCCGSkFgQRSMUCqWKKMSxCIN6SRKiFokFIYQQSUgsiKJgNQrlEFGIg2CghoGUJAkGISQWhBBCJCOxIAoO3aMiFHr16lU2EYU49JJkEQaN9CyqHYkFIYQQSUgsiILCgGsmFKZPnx5NLU8YuM16SRo3blw0VYjqQ2JBCCFEEhILomAMHz7cCwV6PSp3oWD88ssvNQO3ffLJJ9FUIaoLiQUhhBBJSCyIgmBCgXEUij0yc6H59ddf3cEHH+x22WUXRRhEVSKxIIQQIgmJBdFoqFHAM3/11VdHU9IHguGggw5y7dq1Uw2DqDokFoQQQiQhsSAaxejRo93666/vll12WXfZZZe5m266yX3//fd+3pQpU9zjjz/uRo0a5f766y8/rZB89dVX7tFHH3Uff/xxNKVxsL8HHHCABIOoOiQWhBBCJCGxIBoMQqFFixZu3nnndfvss48vFt50001d27Zt3WuvveZrAFZccUV3/PHHR78oLA8++KC/eW+++eZoSuO55JJL3Oqrr+722msv98UXX0RThahsJBaEEEIkIbEgGgQDriEMFlpoIe+Nnzp1qp/OyMjULQwbNsx75zfeeGO3//77u9NOO8317NnTvfzyy345+PPPP92NN97oxcR///vfmlGVf/jhB9enTx8fNTj//PP979566y0/L2TQoEFugw02cIcffrhfhu2GNQesn2jHCSec4Hr37u3HVwCKr++77z6/3TPOOMO99NJLfnr//v3dkksu6QUOx7XDDjtopGdRFUgsCCGESEJiQeQNUYNtttnGbbTRRj4FiVSjbCAWNtxwQ/fvf//b9ejRwwuH7bbbztcH0AsRhnqrVq3cWWed5ZdBdPz444/uo48+ctyPbAMBsPbaa7u9997b/y7kqaeecssvv7zbcccd/bqWWmopLwwQCb/99pvfJus45ZRT3GabbeaOPfZYv45HHnnEFzNfeumlfn822WQT9+677/pIxQorrOD/vuOOO3wvSURJNHCbqHQkFoQQQiQhsSDyAqGwxRZb+JGZSdlZY401/LRsIBbWW289b5jPmjXL3Xrrrd4Yf+edd9yLL77olltuuZqi6GeeecatvPLKPqUIsbDOOuu4fffd188jOrDaaqt5gz4EsbDIIot4oQBHHnmkT4uilmHo0KE+SnD33Xf7eU888YTf9p133unGjh3rXnnlFTdw4EDfgxNRBAQEdRXbbrut69q1q/8NgoOB2xjpWSlJopKRWBBCCJGExILIGRuZ+YILLvCpPFdddZU34hmILRukBJEmdNxxx/nl8dYjCDDUKYTm388//7xf9oMPPvDC4vTTT/diYt111/WCZMaMGTXbIfUphDSkVVdd1V1//fX+72OOOcanRhEJsN9QXA0IjbXWWstHMRAOu+++u+vevbvr1q2bXwfrosC5ZcuWPqKAUABGeibNCcGglCRRqUgsCCGESEJiQeTEG2+84YUCBrwNuEb6EZGFpAJjEwt4/vkNnnwEAqLjnnvu8bUBePQBgUA0AWMew55/E1HA23/55Zf7omMz/A22jwCg1gAw/ElnQiwMGDDAr/+FF17w8yjGRowcddRRPm2J9CeEgK3jscce82Jhq6228oXa/NuYPHmyBIOoaCQWhBBCJCGxIOrFhALFxtOmTYumOvfzzz/7OgNy/N977z0/GNvTTz/t6wDuvfdeLxYw0E8++WQvFkhDootVjP4xY8b4mgdqDPgd9QPUJlAYTS9KRAUuuugin77EPETGyJEjoy3PAQOfqABRCiANiboI0p9INVpzzTV9FATDnwJn9hNxQNeo1EDQxesRRxzh5p9//prIAilWHBNCYvbs2X69QHE0ggGhoZSkhsM5Dc+rKA8kFoQQQiQhsSDqBKGAtz4uFIyJEyf6NCMMfVKAMOopJMYQxwtPYTE9FVkaktU4IAJIQcJAwUDHo//QQw/56QgJCqevuOIK/zcpRaQlER0IIZ2I5RAhQFoR60EsEJEYMmSI337z5s39/xEiCBPqFqiXQFgQweDeJ+rBbyiKXmaZZXwPTt9++61frxEKhrQVPf/xxx8+ter333+vMdY5t1yXQo+BwTlmvdlEAT1PdejQwdebhPvBfmUb+ZtlbP9YjogRER5qUurbb37LOhtyfLwL6eEr2zFUIhILQgghkpBYEIlYjUKSUDAwqogi4M3HUKc3IsBQQzTQ8xFGF8tNmDAhY11ff/21Gz58uK9ZMMMMQ/O7776rqRvA48/fTA9hO0zH0AQiHXS7GhqdrJ9B27755ptoivN1EBj7iBYiIogCSzvi/0QOxo8f75eLE6YkffbZZ9HU8oVzSvE4golmtSBcC6Is7du3/0fEpjFw7kkf23777bOmbHHtifIQLbL3Dd3iduzYMaNbXeDa0bUu9xRwf5GmxkjbF198sb/2dUFq27nnnpu3sOMYqIOh0N3uwUpHYkEIIUQSEgsiKxjSuQiFxkJkglQgDEg8x00FaUZHH32069WrVzQld6zoeeedd84Y16EcIXpD3Qg9VyGK8OjTnSzRFepGEBD8G4Mc4zv0wrM8x4fQMiGH8KN7Wwx5jPB4d7YY2hSpkx5Gj1f83sa3AIQdkSNEWijQ+Jt1GwhBxt4gcsQxIBQRam+//bYXlohQ9pXfcA+xPxwDgtGgK1yK3i1ygbhjOX6LCOC+5t8IJ5ZhP/k962U5xAn7wfGzbqZxTiox2kCnA6QPCiGEEHEkFooExsmHH37o3nzzzdQ16g623nprb6zFvfmFBsOMc0WaTFPS2O1ipCJy9thjD59ak+08lroRGUIQ7brrrhnHyb8xlBmYjroOUsOoLeHfGI0Yzhj6GOqICdK1HnjgAT/9pJNO8n/TmxRF53RvG0ZtEAtELkjzYhRs1kGNCEY2xjjnbMstt/TrYPwLrgGRDVLdnn322WgtcwrSiYLMN998/hyTUkZ9C2lm1J4wyB/igXWwDYQboogUJ8Qc+0rhPcXxCANEA6ly7BMF7YhgrpulsSEa2M8uXbp48cJ86lootue3nIcllljCn6e77ror6/lOc2MQRNIIs81TU6vGRsQTx4gQQmKhaJA+gRFGv/9pa9QQkGYTH9dAZIKXHlFFBCbbeSx1Y99IM2Kk6mxQhE59Rt++fb3nHIOYnqsY56J169a+FgVRhOGMIYkBj8G+yiqr+EgAAmKllVbyheYGYoGB9Bggj6JxIgt4rJlGz1SIDUbmJvrA9qiJoUtcnhWWN/DeU6vCMuwbv6WehN+eeeaZfjrT2EfG06CGAXFObcoNN9zgBQzbJCpBShH7jABiGYrnKbrn90ynQJ6oCvtJcTviAjFCj1kIHPZl8ODBbumll3adO3f2XetmO99pbtTuMGZJtnlqatXYcD7wPhBCSCwUDTyUeObTCHn/eIz32Wcfn7tfF3joMSJJDUk7eLkxKElrqQ+OmRxvjE6r0Sg3MPS5hnjzs0H6EUKHaAJGPoXbGOIY7XjfrYYAg55oAKICg3233XbzkQl+R49WDz/8sF8OWA91BXjsSdshTYkoRJs2bXwaEIPk7bnnnn5kbwxUogo0/k3BeghGPhEIfsc9SYE8kQH7LZGBE0880V8Hq42hVgJjHs8g895//33/fyIXDNbH/YoQPvXUU73AIDpC17v8nujEwQcf7MUC54H1EoXhvcg+L7bYYl4gViKcCwYkFELMgXcHUUwhhMRC0TjqqKPchRdeGP2VPgi/ktJBKgYFvxQh33777X5cBIw6C8/iucWgI9WlkJEI8sjpvYgXNgZeMaDY2oQB9z69L2E8IgBIcUkCQxSvPUZoMes5GgsF2ghWro8V+WLMY/Ai7qhZwIOGQOL4d9hhB2/o43HHGEdMAIXQeNkQBRwz0QqMaH6HWLCxMsDEAjUL1CZwflieAmbraYrpRAgQKgiRJLFAZIFlEAp0o0sEgfsBMcN09pP9ITWIYmruGaIBRBtIW+I6EhkgwsD1oh4BYUfkjPQl7mkiGkQWuN4sQ/G0iQWiK6yTtCNSkK688spozyoP65lMCDEH3jU4GYQQEgtFA7GQ1siCgaFF2sV+++3n00fwrjZr1sx7W6ywFyODLk/pcYei6ELB+kkRoTvUYkA+P73dWHes3Puk5WCAYkTjhc4GQoEC4XIXCgZeeQQfUQOMXaIMeOYxuBF/RBDoCQcjmhQe0owwnOnullQfBC9GJAPVIRAPPPBAf/wY0fyOge84bwZiAUOc+4R1kc6DIEEcIMZWWGEFLyaIEGD8c/8wAjhpS2GEAm655Ra38MIL++JshAb3A0Y8x8NvERdM593FNhEHfNxJGaJegZQqYFwPjoGidEQH9RSsh2tMDQT7R6oVQoZ1Ew0hdYt53Cfc7xwPIuTqq6+uuWcqCfWGJEQmOL8kFoSYg8RCkagEsQAUpmLg4Rnu16+fNzQpYDUwRvEAU0hKWgpQFI3hhwcbow0DjZQRAyON5eliE+81xma8m03Wi0e8U6dO3mClq82wi0+85vwWr/E111yTUWSL1xtvMT0dUTtCekoIeeuk1Sy00ELeyCTCQBoKxin7RKoM66BI9sknn/T7RxEshiKpKhiSaRAKBueGfSbFBoOZlBNA+CAgqAngfHKuzLuPd53zhyji+tn5pSia+4BrzO84X2FEiSgQxjr3CPMQGaQvAfcSzwTTMNZZhggH155txFPZGJyP/WY5okzcMwgQlsW4x2jHgOeDznRS/4gCcCzci/zG4Dpy7Igg7itqJriG3KcUgTMdUcK15j3I8twPeBfZHuvn95xDjq/SkFgQIhOJBSFqkVgoEpUiFihixaNLugneVdIxTCxgbJJiQg47NQ54YEn/IN0Dg4zUEjy/eKxJ/cAoxwhlpGXWQ9SA6XiP4ykopM2wDn6LEUiqCd5xvL7UFmDA8Vt6qmHfDjvsMO8RpxgVQxLvN0Yp2yE/HePfoJcLxMLiiy/uf49BiPFI5IQICs8C60dAkMeNx5lceI6fvPWwoLeSQRAQfSDdqFwgIhLWDRD5oj6Ca5ULCEAiCdxTaRJ8xUZiQYhMJBaEqEVioUhUgligC0p6iKFLSQa4wsuPwUx6Bx5k0ngw4s1zTzEthayICIpIiUKwDlKUSP3AI0uaDzccnlzgHNHLTNxbi1jg9xjpeIoZYZkIB4Y+6U78m4G5gK5e6ZWHQlX2E5GCBxxYr0UKQhADGJl4x0mdwSB+7rnn/LGxf+w/qVDUbZBqw3HhWSY1hdGd4+urRKjnoGchvOzlAPcBkYP777+/pktfjFyudTx6lATvONLmuA8RDmIOEgtCZCKxIEQtEgtFohLEghnspOoAhjjdK1IIiiDAgMZwtgJkUoKsULVt27ZePBAJwBDB4KYQFsNu2WWXrTHmSReiGDbsYx9IQyJigCDBA0wdwcorr+yNelKCEAf2G7r6ZD8x9El7Yh8s1SYbRB/OPvtsvxwfBHLxSZmh1x7SbohokLtOegyF20QgEDcU2pKzz/FTzyFEpSCxIEQmEgtC1CKxUCQqQSxgLGOwk2KEJ5e8dSIJ9FNPeg7GBUa1eXkxqBlIC0/0Lrvs4ruwpBAWox6xQPoOaU0Usw4YMMD/BrFAmlOSWKBA1uoTEAvkoiMcEAvWCw81CEQJ2D6eZ9aH9zkJEwvsKz3zMNIv+0S0ATheUpLYJyIYpFdRAIxoodibFKe6eksSIm1ILAiRicSCELVILBSJShALpNqQhsPIvqTkkKZDVID6AHK+qTWwnpHwzmNs0PXkxx9/7LudZEAb6gssDYl8c9KI6J6UiAFpLnjqMdTjaUiIBbrrpOYBMUIf+6yDrjYphEW0UF8AFNAiYMhlR9CEv2NkWnoACnPaEQsU2NITEEW0iA7EDOlMfCAY6Ze8dqIVPBcsxzERTWHfKYhFwAhRKUgsCJGJxIIQtUgsFIlKEAuA550+7THOScnBqKaAGM86omGeeebxRjUj/CIU6PGGAmf6u0cIIBbw0GPo018/RjY98ND1JWlMvIwRI9kiC6wXQWBiAS8/vSrZWAEtW7b022EdRCoswoHxj2CgOJr9RUzEB04jmkDhMusgakGEhD73+d2iiy7q0624htQuUAxNvQb7yVgEDDYmRCUhsSBEJhILQtQisVAkKkUsAF2d0lf92LFjvRFvA7Lxf1J28OpjoFseP4WjDOSGcKCeAcGAB5+ekBgRmt6TMM4ZIZiiYdKN4n3XY/izLeoEiARQ+0AEg7Qmg3XSPSbRinixKvs6YsQIH4XINqgb4oFl+C1F2EQ5iBwgOkhxYiwAjpvenqhlYDnm59rrjhBpQmJBiEwkFoSoRWKhSFSSWKgLvOzUJlAsHI8OZAMjnXET8OLj1SdiwTgJDUnrIbpBShDnuRA929CvPilHdKOKKGFfGV+CiAnRDCEqFYkFITKRWBCiFomFIlEtYgHwtlMQTA9IuaToEDUgYkB9AR79hhri/I7fExkg+tAY3n77bV9/QW9IFr1gnURDpkyZ0uj1C1HOSCwIkYnEghC1SCwUiWoSC0BKEt2oIhpI30kTpBgR5aDnpXhtgxDVgMSCEJlILAhRi8RCkag2sQAIBtJ2EAzUJqQB6hAQCieffLLuf1G1SCwIkYnEghC1SCwUiWoUC2BFz2kQDAgFelOixyXGUBCiWpFYECITiQUhapFYKBLVKhaAwuNyFwz07iShIMQcJBaEyERiQYhaJBaKRDWLBaAbVQTDHnvsUXY1DCNHjvSpRzZwmxDVjsSCEJlILAhRi8RCkah2sQChYKDno3KAiAJCwQZ7E0JILAgRR2JBiFokFoqExMIcqGHYb7/9ykIwWDGzhIIQmUgsCJGJxIIQtUgsFAmJhVoYCwHBwMjNjOpcCqx7VHo9Uo2CEJlILAiRicSCELVILBQJiYVMGISNcRjat2/f5ILhnXfecVtttZU75ZRTdI8LkQWJBSEykVgQohaJhSIhsfBPGOmZCMPuu+/uJkyYEE0tLrzwiSggFP74449oqhAiRGJBiEwkFoSoRWKhSEgsZOe7777zEQZSkvh3MZFQECI3JBaEyERiQYhaJBaKhMRCMkQVTDAUK8JA6tGWW27pTj31VDd16tRoqhAiGxILQmQisSBELRILRUJioW7CCEOhaxisRuG0006TUBAiByQWhMhEYkGIWiQWioTEQv0gGKyGoVDdqkooCJE/EgtCZCKxIEQtEgtFQmIhN+glyQTD+PHjo6kNg+5RJRSEyB+JBSEykVgQohaJhSIhsZA7jMPASM+kJDVUMIwePdoLBWoU/vzzz2iqECIXJBaEyERiQYhaJBaKhMRCfoQjPX/55ZfR1NywkZnp9UhCQYj8kVgQIhOJBSFqkVgoEhIL+TN58mQfYSAlKVfBMGLECI3MLEQjkVgQIhOJBSFqkVgoEhILDQPBkGuEYeTIkT716KSTTpJQEKIRSCwIkYnEghC1SCwUCYmFhmMRBgRDUg0DEQWEAqlH06dPj6YKIRqCxIIQmUgsCFGLxEKRkFhoHJMmTarpJemrr76Kps7BIgqkHs2YMSOaKoRoKBILQmQisSBELRILRUJiofFQ9MzAbe3bt68Zh4FiZkUUhCgsEgtCZCKxIEQtEgtFQmKhMCAYOnXq5FOS7r//frf11lt7oaAaBSEKh8SCEJlILAhRi8RCkZBYKBwIhi5durjtttvOnX766RIKQhQYiQUhMpFYEKIWiYUiIbFQWD744APXokUL9/vvv0dThBCFQmJBiEwkFoSoRWKhSEgsFJbPP//cbbzxxm727NnRFCFEoZBYECITiQUhapFYKBISC4Xlk08+cZtssol6PxKiCEgsCJGJxIIQtUgsFAmJhcIisSBE8ZBYECITiQUhapFYKBISC4VFYkGI4iGxIEQmEgtC1CKxUCQkFgqLxIIQxUNiQYhMJBaEqEVioUhILBQWiQUhiofEghCZSCwIUYvEQpGQWCgsEgtCFA+JBSEykVgQohaJhSIhsVBYJBaEKB4SC0JkIrEgRC0SC0VCYqGwSCwIUTwkFoTIRGJBiFokFoqExEJhkVgQonhILAiRicSCELVILBQJiYXCIrEgRPGQWBAiE4kFIWqRWCgSEguFRWJBiOIhsSBEJhILQtQisVAkJBYKi8SCEMVDYkGITCQWhKhFYqFISCwUFokFIYqHxIIQmUgsCFGLxEKRkFgoLBILQhQPiQUhMpFYEKIWiYUiIbFQWCQWhCgeEgtCZCKxIEQtEgtFQmKhsEgsCFE8JBaEyERiQYhaJBaKhMRCYZFYEKJ4SCwIkYnEghC1SCwUCYmFxjNt2jT3+++/u7/++st9+eWXbrPNNvPTEQxTpkyRcBCiQEgsCJGJxIIQtUgsFAmJhcbz+OOPu/XXX99ddtll7tVXX3Wbb765GzdunDv66KNdixYt3KhRo6IlhRCNQWJBiEwkFoSoRWKhSEgsNJ5ffvnFi4V5553XLbXUUv7/yyyzjJtrrrncXnvtpciCEAVCYkGITCQWhKhFYqFISCwUhj59+rhFFlnENWvWrKYtt9xybujQodESQojGIrEgRCYSC0LUIrFQJCQWCgO1CRQ2zz333F4oEFXYb7/9orlCiEIgsSBEJhILQtQisVAkJBYKR79+/dzCCy/sxQJpSC+99FI0RwhRCCQWhMhEYkGIWiQWioTEQuH47bff3IYbbujFQseOHaOpQohCIbEgRCYSC0LUIrFQJCQWCsugQYPcLrvs4j766KNoihCiUEgsCJGJxIIQtUgsFIlyEQsffPCBGzhwoDvvvPPcqaeemsp22mmnue7du/uuU/l3tmXS0Nj3Cy+80N17771+3AghygWJBSEykVgQohaJhSJRarHw2WefuRNPPNEdcMAB7thjj3U9evRwJ598cmobhnavXr3cKaecknV+WhrXhHEi9t9/fy/gfv755+iKCVE6JBaEyERiQYhaJBaKRCnFwuDBg71IwBv/xBNPuB9//DGaI8qBb775xkcXunTp4o444gj31ltvRXOEKA0SC0JkIrEgRC0SC0WiVGLhxRdfdO3bt3d9+/Z106ZNi6aKcmTy5Mk+utChQwf38ccfR1OFaHokFoTIRGJBiFokFopEKcTC2LFj3cEHH+xuuOEGN3v27GiqKGf+/PNPd8YZZ7iTTjrJ/fDDD9FUIZoWiQUhMpFYEKIWiYUiUQqxcM4557jDDjvMG6AiPVC3QE9Pd955ZzRFiKZFYkGITCQWhKhFYqFINLVYII3l8MMPd4888kg0RaSJa6+91hehT5w4MZqSCSllDE5HYfTrr78eTRWiMEgsCJGJxELjmD59undchunQZDzMmjWraJkP8fX+9ddf7pJLLnHdunVzEyZM8NNYhn2aOXOm/7s+4st/+umnbq+99vK2Vl3HwbZplYLEQpFoarHAjUtUQaks6YQUMgace/vtt6Mpc5g6dap7+OGHXbt27fwo1hh0X3/9dTRXiMIwbNgwt+2220Z/CSHodpzuukV+YEA/9dRTbuONN/Zt/fXXd1dccYUXDnQZvttuu7k77rgjWrpwfPjhh+6qq67yIsXAsEco8A01w50ORjp37pyzYxWRgW1FF/TA+skCoAMZBozNBtkC/IYeHCsFiYUi0dRi4cYbb/T1CiKd4G1p06aNL1DnZcvL5tFHH3W77rqrW2qppfzo1TRePr///rtamTTEXCW0J5980rVq1SrrPDW1amxvvPGG23TTTbPOU8ve/vjjD98b4wYbbOAuvfRS98UXX7j777/fbbXVVu6uu+5yn3/+uZ9HyvRXX33lvvvuO++x5/tHhx+sA3i3/vTTT+6XX35xv/76q5/GN3H8+PHeeI9HBejx8cgjj3Tbbbed3ybMmDHDdyFPhIh18xvWx3ref//9rFF85rNfOF1ZjuMhqoAQ+fbbb6Ol5ggIHHu2L+zjlClTorlz9meHHXbwmQAIJH4b2teIDLaDcAkjL/wbZyANccW6m+o7w/a4DklILBSJphYLV155pcRCyiFq8MILL/gXz9Zbb+3mm2++GpFAW2WVVXyqEvcVokGt9I3erNLeLr74YnfQQQe5lVde2fXu3dudf/75WZdLe+O4klq25dVK17Jdo6ZsF110kTvmmGPc8ssv7/++4IIL/rGMWm3j/NBI+cH22X333TOMYIxjjNFx48a5Lbfc0q244oquefPmboUVVvBe+nfeecenfPF7IgBnnnmm22KLLXwUgm7gSZPce++9vehYY4013IABAzIMWyIHSyyxhFtkkUX89hEH119/vVtzzTW94MNwP/fcc90mm2zi93f77bf/R43gRx995Jdbb7313M477+z35+qrr/aChprCa665xu8bURMiTptttpkXPrwzW7Zs6TspMSZNmuQzBZZcckm/npVWWslvn3OCEOFY2M5aa63lTj/9dD+d84OI4vjYb8ZlIgLDNDu/xWoMFsv2OLYkJBaKhMSCyBfEwtChQ71YwHjjpRGKBV6sZ511lrv11lvdzTffrFbm7aabbkpF48PLYIF8oPr375+qfS9Uo6tptXS0Pn36FL1RH8a7FgHN30213TQ3niPSgEiZxamVjU8++cRttNFG7tBDD/VRAoQA0fMhQ4a4tdde2ztgMMhJ8UFM4JlnGQxaBMSzzz7r6wXoHv7777+P1jpHjHTt2tW1bdvWG90PPfSQN+gxfvHyY/zbdxRBwj5wTQ1Si7jeGPAImqefftotvfTSXgjg/cfgx6lCRALxccstt/jIB9u09fJ7A7HCcfFNJ9KBwY9QefPNN71RjrigzpRxsNZZZx0fdbnnnnvcaqut5vf5lVde8fYcAoPzmu18F7LxDeAcMWBsEhILRUJiQeQLLxY8KAZhToy4DTfcsOaFxEjWlVQ0JcqD559/3t9/Qog5vPfeeypwzhNSe4gGHHvssdGUTDCQMZrx+gPdhrM8qUvUNuDhJg0XLz3fvZ49e3rnGOlEpDVRV0WEHUESphGRLnTccce5PfbYw4sFvPVE5zHoAfGy6KKLeuP+1Vdf9dcVI9wg/eiQQw5x++yzj/8bIUNaMDYcKURENC6//HIfjUDEjB492i9HitU888zjdtppp4yxkogsIFzM+EZckOb5zDPPuNatW/vjBFKMiEAwOCsRD6IuVojd1HB+EXFJSCwUCYkFkS9xsWDgjeBlx0uSFy3hUiEKicSCEJlILOQPhrqlEJG+A9QO8F3DmMZrj2f+uuuu8/NwfpGyxPsHsWA2E04yOvTAjuI6sAzrxKhHCBBZCDtzweimkNmMfaIApAmZ4U2EYt999/X7R60AQiQUC/y+S5cuXiAAhdHsJ5GFUCxQ20Xq0PDhw/1ypCZRxB038E0ssE/AthAvdCSB0OG4gGNAAHFMGOtENqhxAEQNkZim4rLLLvNF2UlILBQJiQWRL0liwWAe4Ux66RCikHBvSSwIUYu6Tm0YFAOT47/nnnt6IxlvPmk/jz32mDfCSbUhFQiIQGAsk95DuhHOMOoEMNSpByCdBwOfddk8DH3+jfffwHY94YQTfNoYqT2jRo3yAoPu5LGNMNRJ8wFECym9GPoG0XqiBEQNSHnCeF922WW9AU2xMalCpASR0oSd1alTJ78v7DsiIl4YTNSDSMKBBx7o/2ZbiCEcf/fdd1/N+jDOETVEKkaMGOFatGjhpzGPNCpqMZoKxIrEQgmQWBD5Up9YEKJYSCwIkYnEQsMhgoCnnhQbuiklcgB40rGL7G+MYVKS6EkIQ5o0GMQFBjs2jaUR4WVn+n777edFAWLDIhdA6hI9CSIOSOehFyGMb7ZNROHee++NlnS+1oFlXnrppWjKHLHw3HPPeWOdesGzzz7b/5s6BKIZRCqoYwCiCIgc1st+EjmJQ6SC6Am1CMC22Gfr9py6MHpvOv744329hsF5QTQRCaE3xKZEYqFESCyIfJFYEKVCYkGITCQWqgfEAlEQjGFSo0455RRfP1BMzz7ihGhGudQgSiyUCImF+iGkR+8JTRlqK2ckFkSpkFgQIhOJheqCcRXw+CMUaPSoVCxDnsgHUYdrr73WRyHKAYmFElGOYoFwGX1YE5oj1EU+nsGDQagtDO0VCvL57r77br89QnrGAw884PMSyWXMF8KOjz/+uO9VoFgjGjPmAYPINBUSC6JUSCwIkYnEgqgmJBZKRLmJBfLsuBHoUQA1y43Bi5C8Qoxt8gEpDgq7/yoUiBTy++jHPTTsESYN7dkHsUBXaRQh8VIvNPRzTIHSyy+/HE0pPhILolRILAiRicSCqCYkFkpEuYkF0n2WWWYZ35+xwaiJdAVGERFhNyr0Ke7Zcccd/d/hoCcMhsIgI4xwSNEPxjqhNAb0oJszCn3oa5j/04NBCGIBUUJ1v0UuKOShf2UGWKHwh+7JKCqi2IkBcSj8oY9iBgqh5wF6UQhh++wHAoTjZp8pfGIAFYNoBr9nHj0W8BugyIplOZYOHTp4YRAyZswYX9zEuAZmwPN7RvRkW/QB/cgjj/i/rVCL/WZ/OX6Kn+gXmi7QEElsh8Ir6xItCYkFUSokFoTIRGJBVBMSCyWinMQCIwJjsNqAJdlAHCy00EJ+mHtumuWWW84PhgKMKEhXZqT8kNNHN2iID9aFETzvvPP64iBGX6RLMtKLQkwsYIBjqCM8EA4szzZ4IdM/MuMIcAycOwY6QQwMHDjQRw+YNnXq1GiNc8QC3YstuOCCPrWK/WFo/htuuMHPZ/AU+j+mezOmMTokoxSSH3jqqaf6PpAx+DGQEBT0vWyYeFpqqaX8eSXast122zmeEcQRfSyz34zwyPkABA3njH6aGdqd1Cq6TWOwldtuu82nWxG9YaTIJCQWRKmQWBAiE4kFUU1ILJSIchIL9PnLoCJEDbJdY2oKGIJ8ySWXdG+88YavK2BwEAxmDHQMXl6aFjHAiMf4feutt3wq0IorrujTiegubY011vBGvHnxwcQCQ5wTIcADT1/JDFwCjOJIhIC+lDH6mU+fxJZexCAvq6++eka6EesnErH44ov7gU4YwRFBg1cfY58+lrfffns3bdo0vzzbp69l6hzo5cBEBdET+niOi6jbb7/drbrqqr6/ZuYxkAqCwdZHt2YcK0IAOEf0H4244VzSbRoCxbpnY8h3zlFdBVMSC6JUSCwIkYnEgqgmJBZKRDmJBYz8bbbZxvdRnO0aY8CSloMBP3bsWO/959+IBf5NVIJ0GvstNQ8YxhjCGOdECTD8MbpJZbI0JcPEAsb622+/7b36GPNMBwz3+eabzwsajHPEBi9p0oGA6ABRB4SMwfoRGWyPER7pyYDIBftDJIB9Ik2IVClgnxhwhcFREB5m5CfB8OzUcHCMv/32m0+ZQjDYOaAgHLGAqABGauQYEDlELBALnKPXXnvNz88FiQVRKiQWhMhEYkFUExILJaKcxAJiAMMfwxqD3iAlBzHAdafugLQdogPUFZhYwFAmIoHYwCAHjguvOYOeYJDjqWceL1e2gcc/KbKAIU/qEsa8rY80IqITDHrCvvbs2dNHNhAWQB0AXn5GOTRMLGCcM2Ikgoh1IhaIpDCCJEPCWySA6YgJ+jXmN6RAAWlBLG/LGaRVIRYQKEQtEAuIHP4NdPfKPpHuBBwfaVBELlgXtSDUiFi3sPyO7cRHegyRWBClQmJBiEwkFkQ1IbFQIspJLAAvPoxpRgbEuMaDv/fee3sjmGJc0olIBSKyQM9JeN+7d+/ujVtGP1x33XXdHXfc4Y0KIgQY9AiJQw45xNcwYKxj3JOvz6AmcbFA/j4ChHVjsCMGqCGge1JERI8ePWoMadKOqEXo3bu3Gzp0qP8dNQHUXhisn0JjIg5EFohskBqFEGE9ePYRBaQLIUIQQpwjUpTYZwwjxAcpQwghEyYG6UQ8E0Qg6D6VImnSkKxugvPHOUGEcG5bt27taxxIzQIKrZlGF7WIKv7P+WZsiSQkFkSpkFgQIhOJBVFNSCyUiHITC0BvPKT/bLbZZj6/n7QahAPefHokosiYZTBo6aWIcREwvDHMEQoY9RgU55xzjp+GCCAqYIY8UQPEBz0DhWKBVCBSixAqGPXMu++++7wBz34gDsKaASIGTMdbT2oSvTCNHz8+mjsH1kF6EkXb1EFQZ8H6iUKwPeZT/0DUAzEQ9obE8qRksQ3WT9pQ3OP/ySef+N6diEYQZUA4EUWx/WQbPFx8TOhRiegLqVoIF4Ph6zlfbIciaoREeF7iSCyIUiGxIEQmEguimpBYKBHlKBYMxAEtX/CW4+nHO18IMJyzGc90m0pkA89/XcZ1LhA1IXoxZcqUaEotuZyDpH00SC3C0Ip37RqS67mWWBClQmJBiEwkFkQ1IbFQIspZLDQUxhTAe26pNsWCbknx4tODUGOhG1dSgBo6+Ft9kGJEL05W6NwYiICERdxCNBXcd/QeJoSYA1F2ItNCVAMSCyWiEsVCuUFvSdQk1FUHkCaoiaBXKtKe1NSasnHfUbOUbZ6aWjU2Ouqgk4ts89Qqp91zzz11ZgZUCxILJUJiobgwPkLnzp1dx44d6x0ZOS0woNu2227rj0lNrSkb9x0F+tnmqalVY6NmbYkllsg6T60yGrWZdLZC/WO1I7FQIiQWisu3337r038YP6FSIA2JtCYhmhruO8SqEGIOdKqhNKTKh85P+vTpE/1VvUgslAiJhWS++uqrRuXmU3A8ZMgQ38NQq1atfBixElCBsygVKnAWIhMVOFc+dIVOD4oSCxILJUNiITtEBEgfolvTxsC4CK+88oofZG7kyJHR1HQjsSBKhcSCEJlILFQ+Egu1SCyUCImFf0IhMgOiNWvWzI+xcPfdd7uHHnrID/CGiKB7U8ZjIFLw4osv+kHXrOclipkZZfqll17yfxNZ4Mam0TUq0I0pY0DccMMNfpA5xlJgJOXGdr/aVEgsiFIhsSBEJhILlY/EQi0SCyVCYuGf8GBSSEQhJSM6IwQw6ldYYQUfIfjhhx/8+ApHHnmkH89hueWWc+eff74f/I3fLbnkkm7YsGHu2Wef9QOdMXhb165d3RZbbOGGDx/uc0xXXXVVt8kmm7j+/fv7HGzSlL7++utoD8obiQVRKiQWhMhEYqHykVioRWKhREgsZIdRjddYYw3fZRmcdtppboMNNvCRAyIPjC6NgLARmRm9mXn0XEBBMxGII444wouFadOmuXHjxrkNN9zQjzbNoHFELNq3b+8FBuM1IERefvllv61yR2JBlAqJBSEykViofCQWapFYKBESC9mhzmC11Var6ars1FNPrRELkyZN8mKhe/fubtasWa5fv35eFPD/ddZZx11//fW+y9Qdd9zRLbbYYq5FixZ+Pvcu6UuffPKJjyqQvjRz5kwvFlZaaSUfpUgDEguiVEgsCJGJxELlI7FQi8RCiZBYyA5eflKFMPwBsbD++uv7CMHkyZN9ZMDEAgICIdG2bVs/YBRpS7/99puPMjRv3tzXL/BCHz16tJswYYJfx0YbbeTTk/766y8vMhhUh9SlNCCxIEqFxIIQmUgsVD4SC7VILJQIiYXsvPrqq97bT1Hzzz//7G688Ua34oor+pGYafPPP78XC6QR0UhFmmeeeXxq0e+//+6LlfnNuuuu655//nlfIE0XqkQPqE1Ya621XI8ePbzY6Nu3r1t66aX9cmlAYkGUCokFITKRWKh8JBZqkVgoERIL2aEugeJm0op69+7th1nv1KmTjy4ccMABbquttvLnjTQioLZhgQUW8AOnGDzgLMNvWM+FF17o713EAqNuXnTRRV4s3Hvvva5ly5butddei35Z3kgsiFIhsSBEJhILlY/EQi0SCyVCYiEZhMAff/zhC5Ttbx5a7j+iCfzNvPfee8+dcMIJPoowatQov6xBhIHf0KxrVP7P7xEKwP+nT5/uU5LSgMSCKBUSC0JkIrFQ+Ugs1CKxUCIkFhoHNQhEHBhuf+DAgakx+BuDxIIoFRILQmQisVD5SCzUIrFQIiQWRL5ILIhSIbEgRCYSC5WPxEItEgslQmJB5IvEgigVEgtCZCKxUPlILNQisVAiJBZEvkgsiFIhsSBEJhILlY/EQi0SCyVCYkHki8SCKBUSC0JkIrFQ+Ugs1CKxUCIkFkS+SCyIUiGxIEQmEguVj8RCLRILJUJiQeSLxIIoFRILQmQisVD5SCzUIrFQIppaLFxxxRUSCylHYkGUCokFITKRWKh8JBZqkVgoEU0tFq699lqJhZTTunVrN2zYsOgvIZoOiQUhMpFYqHwkFmqRWCgRTS0W7r77bnfooYe6KVOmRFNEmmAQuj322MONHDkymiJE0yGxIEQmEguVj8RCLRILJaKpxQJGZpcuXdzLL78cTRFp4oEHHnDdunVz48ePj6YI0XRILAiRicRC5SOxUIvEQoloarEwY8YMd9xxx7lTTjklmiLSwuzZs13Hjh19KtmsWbOiqUI0HRILQmQisVD5SCzUIrFQIppaLAD57hidgwcPjqaINDBw4EDXuXNnN3bs2GiKEE2LxIIQmUgsVD4SC7VILJSIUogFPNQDBgxwe+65pxs+fHg0VZQrM2fOdI888ohr27atGzp0aDRViKZHYkGITCQWKh+JhVokFkpEKcQCIBhIZ0Ew3Hnnne7LL79006dPj+aKcuDPP/9048aN89epffv27sEHH4zmCFEaJBaEyERiofKRWKhFYqFElEosGM8//7zbaaed3P777++uv/569/jjj3uDQK107bnnnvORBMbEQCR06NDBvf/++9EVE6J0cH9KLAhRi8RC5SOxUIvEQokotVgAulEdNGiQ69Gjh2vXrp03BtRK17bddlsf8enZs6d78cUXfVG6EOWAxIIQmUgsVD4SC7VILJSIchALQgiRCxILQmQisVD5SCzUIrFQIiQWhBBpQWJBiEwkFiofiYVaJBZKhMSCECItSCwIkYnEQuUjsVCLxEKJkFgQQqQFiQUhMpFYqHwkFmqRWCgREgtCiLQgsSBEJhILlY/EQi0SCyVCYkEIkRYkFoTIRGKh8pFYqEVioURILAgh0oLEghCZSCxUPhILtUgslAiJBSFEWpBYECITiYXKR2KhFomFEiGxIIRICxILQmQisVD5/PHHHxILERILJUJiQQiRFiQWhHB+VP1p06b5f48ZM8a1aNHC//uvv/7y9tGsWbP83yLdfPfddzXXunfv3u7mm2/203///Xc3ceJE/+9qQ2KhREgsCCHSgsSCEM499NBDbuONN3Y33XSTGz58uNtyyy3d119/7Y4++mj/fLz99tvRkiKtTJ8+3R100EFujz32cE899ZQ777zz3FVXXeWv/TbbbON69uwZLVldSCyUCIkFIURakFgQwrnvv//erbrqqm6BBRZwyy23nJt//vndSiut5Oaee27XoUMHb2iKdDN79mx3xRVXuEUXXdQtueSSbq211nKrr766W2ihhdzSSy/tBg0aFC1ZXUgslAiJBSFEWpBYEGIOl19+uRcJzZo1q2krrriie+GFF6IlRNqZMmWKa968ub+2CEO7zvvss48XE9WIxEKJkFgQQqQFiQUh5jB58mS3zjrr+GgCBiT/P/DAA6O5olKgqHmRRRapEQrLLrusfw9WKxILJUJiQQiRFiQWhJgDxczXXnttjcd5hRVW8PULorL47bfffHRhrrnm8o00s2pGYqFESCwIIdKCxIIQtUyaNMmtscYaXix07tw5mioqCdKN+vXr56/xEkssUfVpZhILJUJiQQiRFiQWhMjk3nvvdTvttJP7+OOPoymiEtlss83c/vvvH/1VvUgslAiJBSFEWii0WKAf80cffdRdeeWV7txzz3XnnHOOWgnbRRdd5O644w73/vvvR1eoeHz44YfurrvuchdffHHWfUlD45498cQTXcuWLVN9/7Lv9PzzyCOPuG+//Ta6Qo2HAmHeGTfccIPvejTbttPQTj/9dLfeeuu5rbfeOtXXmYHlGCuCdLmGjgUisVAiJBaEEGmhUGLhzz//9H2WH3DAAa5r167umGOOcccee6zr3r27Wgkb16Bbt27u4IMPdj169HBjx46Nrljh+PTTT90pp5zi+7BnW2m/7ieccII3Jo877ris89PSeAZ5FnkmL7vsMj/wWEPBEGU8Aq5vly5d/LqzbTMtjWt75plnutNOOy3r/LQ0njXGAsHY57597rnnoiuWOxILJUJiQQiRFgohFj755BN3/PHHe6Okf//+7vPPP4/miHKAPPwnnnjCGxbk4TMgVaEYPHiwv+4Yj4899pj78ccfozmiHPjiiy/cgAEDfK9OXH9Gp86Xn376yYunXXfd1V1zzTXurbfecjNnzozmilLzxx9/+MgCUYYdd9zRXX311TWjkeeCxEKJkFgQQqSFxooFUhwwRE4++eSCpjuIwoOBR2Fnu3bt3JAhQ6KpDWfYsGGuffv2rm/fvhq0rMxh0Dm86J06dXJffvllNLV+fv31V/87xiEYMWJENFWUK88++6zbeeedfa9euQoGiYUSIbEghEgLjRELv/zyi+vVq5f3WNIdoUgHRH+IMDSmjuGjjz7yIpE+60U6IA2JVJWePXv6aEEuYEjirSbVTKSDV1991W2xxRa+XiUXJBZKhMSCECItNEYsPP30065169a+qFmkBzyO5DtTyNtQzjjjDP+tk+2QLkgTa9OmTU6GJGJy3333dQ888EA0RaQFituPPPJIN2HChGhKMhILJUJiQQiRFhoqFkhPOPvss/WuSynPPPOML0h+7733oim5Q1ThkEMOcYMGDYqmiDRxySWX+NSi+qILl19+uY8ezZgxI5oi0sLUqVPddttt5x069SGxUCIkFoQQaaGhYuGzzz5zHTt2dKNHj46miDQxefJk34vKwIEDoym5wzgEeC1VzJxOEIiMWozoS4K0Qnq4wkMt0gk9PlG7UF89kcRCiZBYEEKkhYaKhXfffdf3UY4HS6QTerCiB5V8wYDkOyfSCWlo2267bZ0Fy9QokKZGL1oinTD+AmMx1BdBklgoERILQoi00FCxQPeJm2++efSXSCMYg/Q1ny983yQW0s1WW23lC2GTYIA9iqGff/75aIpIG/fcc4+vLfrhhx+iKdmRWCgREgtCiLQgsVC9SCxULxILlY/EQpkjsSCESAsSC9WLxEL1IrFQ+UgslDkSC0KItCCxUL1ILFQvEguVj8RCmSOxIIRICxIL1YvEQvUisVD5SCyUORILQoi0ILFQvUgsVC8SC5WPxEKZI7EghEgLEgvVi8RC9SKxUPlILJQ5EgtCiLRQSWLhr7/+cg888IDr16+fH2E6bUyZMsXdeOON7vHHH3czZ86MphYPiYXqRWKh8pFYKHMkFoQQaaGcxMILL7zgTjrpJP8O5eN1zDHHuCeffNLP+/bbb91FF13kl0lizJgxfqC40047zY9ACxjgGDy5Dh73+++/u0suucT17dv3H78ZP368u/jiixttQDGCLoIAcfPmm296wwzYNh/3bbbZJmN03RdffNGdfPLJ7uOPP46mFAaJhepFYqHykVgocyQWhBBpoZzEwllnneWaNWvmjjzySP8BY5TZNddc040cOdKPNrv44ot7wZDEH3/84UeWxgiH2bNnu7PPPtsddNBBftTaXJg+fbobNGiQN5Liv8GwX2KJJfw6G8Ott97qBc3QoUPdzjvv7K9BCNsJv8kIh7vvvtt999130ZTCILFQvUgsVD4SC2WOxIIQIi2Uk1g4//zz3dprr+3ef/99/zce+NVWW82LiFdeecWts846br/99nO77767//+QIUP8cnDHHXe4PfbYwx1wwAHuhhtu8BGFm266yc0333z+Q3f66afXRBtI8bn99tt9FGPSpEl+Wp8+fVzPnj3dp59+6n/fv39/LxZ+/PFH17VrV9e+fXt36KGHurXWWstHF4D1IV7atm3rBQn7azzxxBNuzz33dLvuuqtf3tKKJk+e7K655hp36qmnulatWnlx1KZNGzdq1Cj32WefuW7durn999/fr88iDhh17Nu4ceP834VCYqF6kViofCQWyhyJBSFEWignsXDBBRe4NdZYo8aIwZBnG7xTST9COOCJRwRg7GCk//nnn96g6dSpk7vzzjt9us7SSy/t//3666+75s2buxYtWrhnn322JlJA5OHaa691K620ksOLjyDYbLPNvHGPWNhiiy3cbrvt5j+y5557rv9QXnnlld7AJ7px+eWX+/VceOGFbpNNNvHCAqHSrl0798033/htsb7zzjvP1yCsu+66fnuAwX/KKad4oYMxttRSS7nevXu7r7/+2hvvbOO+++7zx4po4BxwvIsssoiPRBQSiYXqRWKh8pFYKHMkFoQQaaEcxcLLL7/sZs2a5QYMGOCNaYxx0pAw7vG827KkKGF88zEkVee6667zxjveeox7xAGe/X333devL4R0JeobiCg888wzfrtsj1Sm1q1b+wgF3n6MfmonAPGx4oor+sgAxj3ziDYAH2aiIk899ZTr0qWLFyg//fSTn3f88ce7jTbayNc8jB492h177LF+Hse1+uqru+HDh/vlOAb2hajJkksu6Q06ajVuu+02f+wvvfSSX65QpFEsULjOPrds2dJHb8oJhCtRMCJR1J+UM+UgFhDtPHM8hwjv+DMqGofEQpkjsSCESAvlJBYoLCZtCKN70003dcsvv7xPH6LQGCMbbztefYwMjAvSkij6pcaAfTnuuOPcLbfc4pe74oorvGG50047ub322qsmBclgnUcffbTbZZddfI0EIoMCaQw+EwuIlg022MD16tXL/+btt9/2aUiIBYTEKqus4pZbbjn373//262//vpeSBAFIK2INCKEB5CGxD5xzh577DFv7HIMiJtVV13VDRs2zIsHhAdGHClSHTp0cNtvv73EQgzO20MPPeTPXX1GUFPDvhEB4/65//77o6n5Qboa9hj1NsWkXCILPHPUALG9Yh9ztSGxUOZILAgh0kI5iQXemxjFd911l/eykxKE8Q5vvPGGN7hJ58EDSWQBQ540osMPP9wb63wUiRgQJUBUIBZ22GEHb3hnK3BmOyussILjG8g6MNT4jYkFIgkbbrihT3ECtmX7QESD7ZMqRK0BRs8777zj9wFxgqH/yy+/+N9Rb7Deeuv5Qm0iGZbGdPXVV3uxwHpJMSKKQr0EsD/bbbddxYsFBBVeeAxt4P/Um9h1R9SRimU1H6R5EXkhevPzzz/7afnA+mfMmOH/jd3DtrJ5tNku6Wm2bBz2mWuNyKOZDcX9c8ghh/h6lLFjx/ppIfHjizN48GDvaUcQGfyGY+V+KpRBXQyxQOcAiPLwnHFeqNPh+eOc8W+7lpxjUvDoyOCDDz7w0xoD22/M+bH7gfPN9eG+y/beMFiOY0q6lkZ917xYSCyUORILQhQG3kv0ANPUL9lqoi6xkGQoQTHEAh5GjHeM9DivvfaaW3bZZd1ll13mjbtzzjnHG+4UFZP6QZThueeecz169PBpSHwAMVyocTBjJH48GETUE7A86RCAgUDNwj777OMNU6IPiA+MpquuusrNM888NQXLpCdh2FGQjSCgbuGrr77yxj378+CDD3qDjJQk9hfxQ/SA6AIgDJZZZhn/USeKwXY4B0RKOFbqLUh3Il2J7zQRiEJSDmKBaBDRny+//NL/zfEitIgocb2IsnTs2LFmPkKte/fuvjj90Ucf9dNyBUOSc2lef64j9z5CLwTjDiHJPfDJJ59EUzNhPqlQiDgiSlxT1o+xf/DBB/soGdGtONwfiFHul2zwrkNQhr1+IUAw3DknhUpvKoZY4JxsvPHGNb/hWlL7Q6SQ55dewDg3VqiP+EVscx2IFNb1vqkPuhfmmW+MWODdsuWWW/p3BemE3HeWIpgN7g2cEbx/6oL0Q95Bje1FLV8kFsociQWRdngJYgziKcW7BngA+dDhISkkeMu++OKLmpSNEIwwcs55mdmHhHcVXmfbL4MPKi9lvEsid+oSC3TX+fDDD7uJEydGU2ophligGJiPL572ONyLpPdgiCMWWBYhMGHCBH+fkE5EXQDeeP5PzQJG3/XXX+8jAPSghPEfgmHGx3THHXesMRjx4BJVQHRgmCEeEAGkKVH7wP6R6gQ8D0QAMOoxMsihZ5u2XVKpmIdBzj4jFhAN/A5IrWLbLMNgchYtYVsYcxRME7V45JFHvLFBZKKQlINYIF2L4+XcAKKAc0BqGOeM60u0yGwUzh3ngXPHMw/M43cYRdwLvB/wWofwXsBbv/LKK3ux8f333/tjJ+KD6GAbrMOMTZwUTMv2XuLdwz5goBJB4L5kfcD9QhSM5yNbV7e86zg+7hvS2hC74fPF+5BjY/32e84D6XYY2fy7EBRDLNx8881e5PIbniOem4UXXtiLH97fiAcMcTunHCu1SJwrezYR+FxjImosS3SG68z9wbWNR5N41jiPCHyuA98u1su2ONe8Nzi/RAi4L1g26TxizBPpY5+4xlx/1mWwbvs99wnr497FAcD5ooXLGzzD3GdEw3i3sVz8OLj3OA+sM/4NY3tsl+3nc/0lFsociQWRVngRMVgU3lYMQTOyeFHzAcBDiuFSSPiQ8ILO5k0GtkuOuH38eanyjOF9DSFXHKOLj4zInbrEAj0LUUPAR/jpp5/OMH74eBVaLPABrsszGM6PL8u/+chyD8fnMQ1jJZwWEp8e/z3/Tlp3OC8O24x/+MPfAn+zHEYPELGwfbUG8d8VgnIQCxgpeOjNYCalh/sKg55zhyFDihmGEkYkKUiIQQrDmcd7gXuRqAzpYtyrGKx45sNrgujAq01kiOgVkSSEG78jssE6qUfBYONcE0XiPYixGcL7BWHKO4v0NrzmRCBwoiAuKWbHMCSyhOAh7SYEhwaGLceIUES80KsXxilCgwJ+olXUwTA43+eff+7XTde9eLpNIDWWYogFojZ0OkBvXkSMsC0tYgdEUzhujH6EOvce55jri0Dn+BHN1AJxLbkujGuCMY5QJ4rDclxLA9uVKM5CCy3kl2WddKPMdUHIIbIHDhzoo3icT/5mPUSXLB3KoPcyrhsCjnWwX7z3uB8QlHRoQOSEOiW+gxj23LtMZ1+574g2xu1pRAuiAocC+8T9x/PDc84+EI1iOueG+5H0RHtvWD0WvycKSaSN3+WCxEKZg8fAclKFSBN8PHhZ8rICPozcz3hxMSp5afHy4QWGVy0MiVPwyXSWs2JSPu5MRwgwEi+eorhRxboJ4+Ot5fd4dQyMU3qHoStKjAXgI4PnLfxgAF4t0lL4OLEtDAjbFgYIKSoIIaYbzCf9g+0SJq9G8IKS9pENvH18XEnToeHp5tziReWDj3gU6aUcxALeVox0xD6pPP369fNCAKMbg4n0FAw/PLIYoBhcvHfMqYGhxXuFdwjGO886BjdRnXgkiWfdRAZgHCKGMRzx3PPuw7uMMUYKEUYr4sFA0JFjj9FGFIn3GyIDYx+PsvVuhXOFfUI04OgIQSzwHkWgIxDYfwr5eeeyLVJhMFYxrBdYYAG/rxwvwgJPfTmLBaJ+XAeMct4XOJrCSDTdAnO+eHdYlIfvA+eR64XRz/R5553Xiz2+I0SWOd+8tzm/CALESAjfAiKKpDQBhj0RDdK2gH3gvPJtwshH6CEq40IuFAsIDL4nfHvYP0QCji3WxbWhS2X2CUHBO5J1MU4MYinu+EIscNycc76p7Av7gNggokldFOcaEDXcQ4gUjgshwj3EPcA26XY513tAYqHM4QVMnh7KVE0tLY1+6XlhkWYRD5EC+dJ8nHmR4U1ZbLHFvIHOh5UeQJjHdF62GCB4/PjQ0wUkXiG8/rxw4y9S1kG/+DwzeFd4cZInilDAkOCjyssYzxpRBUKybIPeUEIQCYsuuqg3YNkOH2oMYT44HBcvcT5ivLT5aPDOw0vDB4H9xmDhY5Dt3FRy44PK+cw2jzSkUCxYw5PK+cdDKtJLOYgFvO88tzyDGHC8A/ibfePdgtHIuwNxwL3IPYcRhOHEcjgb8P7zHDONdBP2j+cdozQkLhZYHuOW9w3GPkKEdw7rILLAsqFzgXcG3n0MUzPAeC9ZihspVfwGoxYDD2OY4wvhHYaXmOPDY40RyHsJTzrvPHLliYAgKGxMD5YhmkHhfDmLBa4L7wfGBMH4570eRhZ41zAdUUTkiHPPe4RvAO8gzh/vZAxprjfw7TDDHscRUYF7773XzzPiYoHUSa4/3zTgPuJbwKjp3EOIMwReXWIB4cM6OH4EDN83HGQhpEhxbx544IH+bxxeXHMcKiEmFjp37uydXew/x07NBsKHf1tBOyITAcJzyfnk3zi6GoLEQpmDh5KbhxeImlpaGl4rBqXi3uXjFIfeWvC04XHDI4+XmQ8cL0y8Xnjz8LzxosTwxkvIh44XIR9zPty8fC1qYfTt29f3AsOLjZc6YWY+EHxQ2BYvfD4yhGfxGNmLFyMhBM8k2+KjgMeGlzgffMLabNf6ZOeFzQeeEYH5aGMwcDx8HPiAZzs3ldwwGvgQZJuHKMAIi4sFxBh9ySuyUFz4yGN48izV1StLQykHsWBpSGbQYMBhKFsaEmKB55TnGGMeYxHHAs8xy/BeIhqJkY7YJ60Do49oBIZXCMYZy+HBBtKQuJfJTScigRDBuE8SCxh6iAXueyIEwL7w7kQEENngWcIQ5R3GeBqI7jCFjOXYJh5iwKmCocuzxnsOzzkGNu9Ljpt9TYtYwNAnHciK+Umlwsg20WZigWgCEWscTqTvcN5I36EAmmPH4Lbidc43kU/S1Pi2cP3jkQW89RSNk6IGiAW+F+wPcI8gELgmrIdtc41IewrJJhb4Lf9mu0QZQohGca9S3wR8y/hGEhUIIZWM7xFpndxbfNNYH/cjxxyum28XDjPOFeKD9ZlwyheJBSFEUSD0z0s0W1EfI87ykaSHF0Ao4IUj4oAX32oZKCwjOkHf9LyE8BTyISbcysc4HhHgA49BSmoRYoEPLC9WCvwQAHjZECMsg9cNscB8fhfCsogIvHOkLPGBQWywH3im2C/g5YzRgRHG8nxYqpm60pCAj7WJBD6efNSJDiEAGyoWiA6RbpKtGDBtYJByT1mBbiHByECE8wxl64azsZSLWOC9wLGCpaSEYoHaKcQ99yLvAiBiyDuH5x2DHm80KRx1iQUMPwxRis8BRwHvAO7lXMQC7ydSofD4I1BwMiB0SJVB5Nh2rb7K8tpDEAsY0RTnY3dx3PyGXrcwZq1+iHcdOfAU6qdFLPBMcx2INAOG//zzz++vJdcFEYEAQjzQqxXXwmrMSAVlOl53jGf7nuQiFni3cx34VgDimmtnYoHnk3PJPcS1YVnOJ9c8JJtYwKvP/YHY4J4A3pmIQO4B7hnOE9QnFhAVJhas1zecy/zbBCzRE5xefM/YLueIZwAQWRxLtsh/NiQWhBAFB+8XoVBesuHLjhCx1SJgHFoI2Po658XKy5eXEhDq54VLN3q8ADHMedHz4eb32cQCOanmPWGdCBY+5AsuuKAXDeQr440jOlCXWMCo4MOBYUW4mQ8Suad8jK2Pej7KiBk+AixP/ijwIUFAFMODW85wXZMKnIkM/etf//IGAB9EMwIAIwqvWjZM6GEYUd9AOpqF8BEKe++9tw+v83HO5XxjNCJWufbZIKLFR5ZrjQDBKOQDyPZDMFi47lznXIUKxihGQJJhxQec88D9z/qBjzlGHkIUAzMX8FqzHQwsMzYBkc0zZ0ZVISkHsYBXmUik1SRhWHG/UdTKdaeGABuF9wfXjnNN9NEMbry7OBpISeJ+5RqQG89vMLZCMIARB+SB47nGMYExxvsFY5/9IJUFe4jaBEQB1zeEiCdihtQhjD8iAbxruJ84BjzcRBswRrnH7b1jcA/zPuJ3CBOKmTHciW5QO4FRhmhgGwh0vNGsm2VwehRKYBdDLCDWiCxgrAOCjmj13HPP7SNDnC+uLe8ORCHniMgCy3BO2JZFJ+w7wzXmXPAeQUDwTTARYHBOuG4IAp4h9oPrzzsIeOfgrUd0EwXivBLxiD9T3DdEubnG/JYUWu4TnmG6R+W7g3jnG8m54fxxz/DNAsQEtRJ2/AbbR+Rwvbm3EFWIKN5T1EDwPCE66A6YfcQhwzeTb7IJWraLeMGoj0dEkpBYEEIUBTxYFGnxkeMFSCoKL0i8XIRJeTHicQEMeisotBxRBAQfc148fHwxRBAOvOj5GPJ7Xkwh5PbyMeGDwe95qSNOEAZ4aZjOB4WXMMYgL14+8OblMVgPHhrSA/jQIS4wUnlREgXhg4ORwf7wEuUlzb6w36Q0cJwsL7FQC8Y86UbZ+vfng5okFhCJfFzwBHIfEE43o4vcbq4v1xEBgEFYH6wDDyNCNBuWvkb0CU8uHj+M7mwGNseD547t5wLrwmjkuUiCey70QOP9xaDh3JqAqA/uOwwqDA2Eg2ERsWJQDmKB9wq1MWYEY2DitcVwxHOPFxdxZ95UzimGG9eDLimB9wsGGPckwhEjDg9s3KjiWrA9fsv7BWMNLy+GGTYQ+8E9yXYRGrzX2J84eISJWOL44D5jXfbeQLjgQadl6zSB9bEdhAGOCtaDuAZEIs4Zjo951rEE9wP7gkOlUO+nYogFHEc86xYlAoQY7wOcBTTOt3V7zTZ4xyAI7R3DNM6BiUfeFTwXRLu53syLR2uAa4/A4z7gnuFbEUaWuO5si4ajie9YXHhxPrie7B8OJ845zgLg24gIwfjmW8O14jnHKcZ9BNwz8eMHtsP7gGPk3uIYESOWysb7i3ueCEJ8vzhuBBDbxQER3+e6kFgQQhQNXly8sBgohw+WffAwvDBkLN2CjwgvfzOG8MDwceOlZy9YPpy87PnY8bHnYxdPDeDFjxcJrxEvLT4MwDuJ3+It5AXMiw8vq6Uf8O8Q/ublzkucFyqGqhlweLH4iPDSpfcR66aS/eJY+ZjxAedFXm3UJRa4jkme8brEAhEdhCGeYAwx0sFscCPuH4zUI444wn9oAcHANeZjiDGE9xWDCcMN+AjjlWN/iBbgZUMA8uHng40Hjml4mxEBiAr2wQxtjDlSFPBW41kkFYJ7AoimsS5qdYguxeE4ORaWoQCTxn1mcE+TA40IwQDgnuIDz7PAduPnD6MDoYtA5UOO55D7n/sWg4L7kHuf+xyvMqMBk8ZhYovnjuPmXmYd9MxiERR+x/PCdAwwDFbWbfd7nHIQC+UKBh/nz3LJK41iiIVKgu8d457wrQlrTooF7wneWfZOLAQSC0KIsgRjD6O8HMHrRZgX40/UUpdYqItcxAKGBnnIeOYRZBjyFMaTe42RSxSJDxrGNXnfpIcQ8cGIIU2DjzUgIIn6EJUgjQxDh7+JMOGZRbASukcsYOThOSbHGKHL34TxSRVhH4g4mVjA0Off9JKCGGAZPKEhCE5SJzhHFOeTFkHKBOIUDzMpI3iYqfchDYLjYd0UWGLoh/U/GO14VvnmIgD4kJMSgdjgg04KAjn59O6ClxGDHE8q+0wkj+k8Y/wGQ59jp893y2lGbHDeSK/B0GVMAURQUnRDYiEZjEUMNyKilYjEQt3g5KA2gshiU4BzAIcb57tQTiuJBSFE2cE7hDArH6By9NDjfSVSEc9jr3aKLRYwqm2gIcL/GPFEnIDUIlLPiA5grFPIiOedDzR5wUQkgCgXESuuHXUvGO8Y0QhAog4Yw4gIEwtExBAieOMpZiVf2LrsJbrAcuw/ec4Y6IBxRIoaqQYhLEd6E72TAPvG8WAwk/7C8WGkU7eDEc++sp+cG4z2MKWIdCqMflLeMA7YV7aJ0CH1gXnUc1iND9tGSJBexz6QGkFEgbxty+kmRx7BQtSFXHmOm9+zb+RlE5GRWBBxJBYqH4kFIYQQBaEpxAJ1IRj+eN8pXqR+hMJ3jGAiChjXpM6YWCCHG4McLzqRBlJ8MGwI1ZMvjFFOQSsFkvTORZpAklggzQejmfQnlqOIEUOJfeO4+QgiGIhq0JUjEYsw7QBhw/6T3gMU1LId1kOuMsXypFSRWoSIQSzYwFtxsUBkYOutt/aRFWA5RAbHZ2KBLjSZTuSF/eJDTuoTx8O2ETNEVEgBJGWLSASii6iNCQfOIbVECCuMeokFEUdiofKRWBBCCFEQmiqygDGNkUnaDMWnGPKIAgxg6lkwchELGMBMx5OOWMAIxjC1rkMxgjFkKGBENJBiREEjPa3ExQIpRRj/9HBixdEYyPQ8gqFEShQGNREx9oeGQR+CWGD/WQ+wbcQOhhRigP1km+wfooTlksQC3n7ONelOHCciiX2m3gKxgHDiPFBXQ3E/hjxROtKq6LmLbRApIepCpIQUJ8QKv2Ef6C2HdXOOWB/7KbEgsiGxUPlILAghhCgIxRALGPl4vylwxugggsA0upFkTA6Kf8kFxyNOWg2efIx95pHmQw3AXHPN5UUHBb943unZhoJlCpSpPcDwtl6s2AaGOcKBHlPI4ScawLooWqb3Izz1pCwhFOjti0gD67EIBHURpPHEi5w5TsQGRj37TOQAQ57CaGoGEAgY7tRXIF7YtnXvi0EdigUKuTH8+T0F+IimBRZYwBtlpA5h7NP7F8Xg1FIwcBdCiBoJohZ0BkBkhVQu9hOxwLWj1zIiMKybY6Wwmtohun4kDSkpLVBioXqRWKh8JBaEEEIUhGKIBbq6JIUGg5YuEDHQ6e0IoxWjHAOdtB9qBjD6gWJkfoMhTyoOxjLRAwQDhaakIOEhpyci8vyZzzrozYrCYT6KpCXh1UeMkJLDPjKPXoow6kl9IppAV7zk+GNgY5AjUogeEJEIjXugdoD9YtRvPPUsa/35U/zM6LtMw/jCoCeygGAhSoAhHv+28huWRdiwTkQVQod6Brp/pctiIi1sg+gMEQW2SwSESAldO3I+ETjsK1EFfsN2iOJwTfgNqU6IEuohFFkQcSQWKh+JBSGEEAWhGGIBwx5DFnGAsc6/wy5EMabxnsdHUGU5DGW6EbXf4I2Pd/2Jkc9v+b/VF5DWw2/427Zvv2MaBcV0qcu3zpYDDGm2SZF1fDtg+8/vWI71hMsxj+nUCeDpZz+Yz/LxMSQ4HxR6IxDoZx8RQ0oR09gffsPvbVm2xbpZL41p8WMLf4PYQWAg1hBRbIe0JTvWOBIL1YvEQuUjsSCEEKIgFEMs1AddluL5jo+5UQ1ghHHsGGtECDDY46KpoVDTQFTG1k3RN2IjCYmF6kViofKRWBBCCFEQSiEWRHkgsVC9SCxUPhILQgghCoLEQvUisVC9SCxUPhILQgghCoLEQvUisVC9SCxUPhILQgghCoLEQvUisVC9SCxUPhILQgghCoLEQvUisVC9SCxUPhILQgghCoLEQvUisVC9SCxUPhILQgghCkJjxAKjGov0gljAmMgXRquWWEg3uYqFoUOHRlNE2rj33nslFoQQQjSehooFRiJmROSk0YFF+YMxeM4550R/5c7FF18ssZBiGNBv6623dq+//no05Z8wZgf3x7PPPhtNEWmDgRl79uzpfvzxx2hKdiQWhBBC1ElDxQLGxK677uo+//zzaIpIE4wCfeyxx/oRnvOlX79+7sgjj/SjSov08fXXX7t27dq5d999N5ryTyZOnOhOPvlkN2DAgGiKSBtEABEC9T2nEgtCCCHqpKFiAWPiuOOOc3feeWc0RaQJ0siOOOKIBqWZvPLKK65Lly5u5MiR0RSRJu677z53zDHHuG+//Taa8k+IPpx77rmua9eu0RSRNnbZZRd/rWfPnh1NyY7EghBCiDppqFjAmBg4cKBr3769/7dIF71793YHH3ywjzDky7Rp03xkAWNSpI+99trL9e3b182aNSuakh1SkPbbbz+fcijSxZAhQ1zHjh197Ul9SCwIIYSok4aKBfjiiy/cQQcd5G655ZZoikgDr732mjckHnvssWhK/jz99NOuQ4cO7uWXX46miDSAwO/cubMbN25cNCWZGTNm+AjEoYce6gWiSAfUKOywww7uqquuqlcQgsSCEEKIOmmMWAAMz7Zt27oHHnhAxc4p4J133vHe4lwNiSSIJt1www1eMLz55pvRVFGucK0feeQRn5ry4osvRlPrB8/0nnvu6bvLnTJlSjRVlCsIBQQeaYLfffddNLVuJBaEEELUSWPFAjz++OM+Henqq6/2Bc/6npQXGIoYDkQS9tlnH2/4TZ8+PZrbcFgvPSOR1vLwww+7CRMmSDCWGTyLRAApZOcZfeihh6I5uTN69GhfEN2tWzf33nvvud9++y2aI8qFn376yQ0fPtztu+++Ptr75ZdfRnPqR2JBCCFEnRRCLMCYMWPc/vvv76MMV155pXviiSfcSy+95Ith09ooAiZykm1eWhq5y/379/epJK1bt3aPPvpovQWP+cC6uNbbb799TUra4MGDs+5LWhrjD3Dts81LSyM9jOuCgKfXMiJA77//fnTV8gfj89RTT/Wi4eyzz3YPPvigj1Bk23YaGoY1tRhpv850UHD33Xe7k046yb97L7roIi8c8kFiQQghRJ0USiwAOc4IBPr23n333V2rVq1cy5YtU9sWWGABt+GGG2adl5a20047+bQEekWZPHlydKUKDwYKqWh0x8o2s+1LWlrz5s39tc82Ly2NZ2+33Xbzg3INGzasIJEkQHBcdtll3jHAeyPbttPQWrRo4eaZZx638MILZ52floYDgI4KbrzxRjd+/PjoKuWHxIIQQog6KaRYqDS22GILn4IhqouPPvrIbbbZZtFfohL5/fff3WqrreYLgasdiQUhhBB1IrGQDGJhxIgR0V+iWiAv/9///nf0l6hEiIStvvrqEgt/I7EghBCiTiQWkkEsvPHGG9FfolpgZGOJhcqGlDyJhTlILAghhKgTiYVkJBaqE4mFykdioRaJBSGEEHUisZCMxEJ1IrFQ+Ugs1CKxIIQQok4kFpKRWKhOJBYqH4mFWiQWhBBC1InEQjISC9WJxELlI7FQi8SCEEKIOpFYSEZioTqRWKh8JBZqkVgQQghRJxILyUgsVCcSC5WPuk6tRWJBCCFEnUgsJCOxUD3MmjXLN/jwww/d5ptv7v8NM2fOdH/99Vf0l0gzP/74o7+Wv/76q1tjjTXcjjvu6KdjAxNtqEYkFoQQQtSJxEIyEgvVw8MPP+wFwq233upef/11t9VWW7nvvvvOnXDCCW777bd377zzTrSkSCvTp093hxxyiNtvv/3coEGD3JprrumvLf9u06aNO/vss6MlqwuJBSGEEHUisZCMxEL1MGHCBLfSSiu5hRde2K288spugQUWcKuttpqbe+653V577SUbqQKYPXu2u/jii91iiy3mjd+FFlrI/5uGHfzII49ES1YXEgtCCCHqRGIhGYmF6gJDcr755nPNmjWracsvv7x/RkRlQPrRhhtu6K8tQtCu85577lm1qWYSC0IIIepEYiEZiYXqgnz2tdZaq8aInGuuuVznzp2juaJSuO6669wiiyxSIxSWWWYZN3jw4Ghu9SGxIIQQok4kFpKRWKgu8CxfeeWVPgUJI5KowosvvhjNFZUC0YUNNtigRhCSZlbNSCwIIYSoE4mFZCQWqo+JEyf6WgUMSQphRWXSt29ff42xf4cOHRpNrU4kFoQQQtSJxEIyEgvVB92n9u/f37Vs2dK9/PLL0VRRaSAKKXDedNNNoynVi8SCEEKIOpFYSEZioTp54IEHXK9evaK/RCWCzbvccsu51q1bR1OqF4kFIYQQdSKxkIzEQvXx+OOP+6jCPvvs40aNGhVNFZUGYyusv/76buutt3YjRoyIplYnEgtCCCHqRGIhGYmF6oJ+9ulCE8FAKtLee+/tXnvttWiuqBQee+wxX9T81FNPudtvv93/+9VXX43mVh8SC0IIIepEYiEZiYXqAaGw2267uWeffTaa4tzNN9/sxYMEQ+WAEOQ6P/3009EU5/r16+ev8/Dhw6Mp1YXEghBCiDqRWEhGYqE6MKEQ72ufrlQRDNXuea4UuM677757hlAArrMJhldeeSWaWj1ILAghhKgTiYVkJBYqn4ceesgbkGFEIWTmzJkSDBXAww8//I+IQoj1glWNgkFiQQghRJ1ILCQjsVDZPPjgg14oPPPMM9GU7MyYMUOCIcWYIEwSCgbCEMHAda6mlCSJBSGEEHUisZCMxELlYgZkfULBMMGA51mCIT0QUchFKBhcZ4swVMt1llgQQghRJy+++KL6Gk8AsfD6669Hf4lKwSIKuRqQhgkG9ZKUDqxGgV6P8oHrfMstt/gIQzVcZ4mFPCBfbdKkSe6rr75SU1NTq5p2zz33eKM427xqb82bN6/6PtgridmzZzdYKBhWw4BgkJAsT7jOFlHIVygYXGeKnqtBMEgs5AGhZob93njjjdXU1NSqpq2++upu4YUXzjqv2hsFkRMmTIi+EiLNYEDmmrteHzgX8TwjGJSmVl5wnS2i8OSTT0ZTG4b1klTpgkFiIQ9uu+0217ZtWzd16lQ1NTW1qml8UFu1apV1XrU3vIsi/RRSKIRYqoqiT+VBIYVCSKULBomFPBg4cKAvaBFCiGpi2LBhbtttt43+EqLyKIZQMDAkiTBIMJQeSz0qpFAwbr31Vi8YKjH1TGIhD4gs7LHHHtFfQghRHag3JFHJFFMoGNbdplKSSkcxhYIxYMCAihQMEgt5ILEghKhGJBZEpWIGZK7dozYGCYbSkTQyczGoRMEgsZAHEgtCiGpEYkFUIggFCtSTRmYuBqSqkM6slKSmA6HAdW4KQWggGLjOlSIYJBbyQGJBCFGNSCyISoPUIwzIwYMHR1OaDhvQSxGG4vPoo4+W7DpXkmCQWMgDiQUhRDUisSAqCatRGDJkSDSl6THBoIHbigdCgevclJGjOESSsBuHDx8eTUknEgt5ILEghKhGJBZEpWA1CqUUCga9JCEYXn311WiKKBQWUSilUDCIMGA7vvLKK9GU9CGxkAcSC0KIakRiQVQC5SQUgAG9GIcBwZB2z3M5YTUK5SAUgLEdLCXp5ZdfjqamC4mFPJBYEEJUIxILIu08+OCDJctdrwtGerYBvdLseS4XTBCWi1AwuM5W3J7G6yyxkAcSC0KIakRiQaQZhAIGZLkJBYNRwC3CIMHQcKwWpSl7PcoHrrPVqqQtwiCxkAcSC0KIakRiQaSV+++/v6yFgjFjxoyaGgalJOWPCcJyFQoG19kEQ5qEocRCHkgsCCGqEYkFkUZMKJRbSkoSJhhISVLRc+4gFLDNyl0oGEQYSEniOqdFGEos5IHEghCiGpFYEGmCgtK0RBTiWKqKBEP9cJ3TJhSM8DqnIcIgsZAHEgtCiGpEYkGkBQpJ6Q2nU6dODTbCfv/9d/fll1/6/5cCekmyCIPGYcgO5+iBBx7wgvDpp5+OpqYLjiEtEQaJhTyQWBBCVCMSCyIN4GmmN5wtttjCXXDBBW706NFuzJgx7p133nEjRoxwH3zwgfvll1/cZ5995iZNmhT96p/g0W/evLm75JJLvAfYmDp1ql/XN998E02pn2nTprn333/fffHFF944zAcTDJUwAnAh4TpbMfNTTz0VTU0v1q1qOUeSJBbyQGJBCFGNSCyIcsdSUogoHHXUUa5NmzZugw02cPPOO69bZpllXIsWLbyx8/jjj7t11lnHXX755dEvs8OgXgMHDsywe4g2sI67777bby8XJk6c6I455hh33XXXeeGQL1YMK8FQiwmFtEYUslHugkFiIQ8kFoQQ1YjEgih3svWGQzRhxRVXdMcdd1yNV59ow2qrreZ69Ojh05VYfsKECX6eMXLkSC8WKIwmmoDBjxFHRGHUqFFu/Pjx/xALP//8szdeBw0a5Jdl25MnT/ZFy2/+f/bOA1iKKn286u6qqz9Tla4555xzqZgFXQRzFoyICXNARTGAmEXFrJjXnNFSzDnnhDnngGIJgvf/P5dupuc5D2Z4D5h595yqLng9M9090+k79/vu7eefD++++258H3EUreEEvIMHDw5Dhw6N83md9TKxXXw+z2rkpSoKQ9sUhRzkFGGox9IzZaEGlAURSRFlQeqZXBSajnpEcD333HOH/fbbLwbt8OKLL4b5558/rLnmmmG99dYLs802W9h7773j68OHDw/XXHNNWG211cLGG28c5p133nDEEUeE7t27h1lnnTWcddZZ8bPHHHNMWUnRsGHDwuGHHx6mmWaaGCOssMIKYZZZZomdq7/99tuw2GKLhd133z0KRf/+/eO51Llz5zDXXHPFUqfff/899OjRI8w888yha9euMQvCuh944IFsDaNbnlMXBkrMeLBeWxSFHIShHvuqKAs1oCyISIooC1Kv0MmVALLS8KgEXMgCmYW8BAhZINuw1VZbxZb7o48+Oiy66KLh888/D6+++mr8/0EHHRTfSwYASUAcVl999XDuueeGxRdfPPTu3btMFuhIjRywHkAwiJk4b+gbsdxyy4V99tknisO1114bt4FlkeGgfwXr7tmzZ/jnP/8ZA+Evv/wylkoddthhscN2Tl6qkqIw5KLQ3DC4iB7S+PDDD9fcN6TeqEdhUBZqQFkQkRRRFqQeITgkgLz//vuzOeVUkgVKggjSCegJKvv16xcWWGCB8Pbbb8dAfp555onLBcqOVlxxxRjsH3DAAeHWW2+NMtFUFujDQFaAIA8GDBgQFl544ZhZQBaWX375KAt0rmYZZDLat28fl7X22mtHOWB7WDdlTmQgcsFoGnelKAy5KNx3333ZnL9DedIqq6wSrrrqqjLBalTyeLNe+jAoCzWgLIhIiqQuCwR9tAT//PPP2RyZ1OS16xybzdGcLCAHp512WgwqCYIWWmih8M4778QSJAJ2glOgxZ9Af6mllopBPKMp8d4TTjjhb7JAZoEYARjFqCgLlCWxDWwrsRSlRogDpUdrrLFG7DNBGRPrQVroI7HsssuWbXcR+jDUUyA5IaHvyM477xz7moyNgQMHxtKyCd0az/648sor4z6utG9ak7wPQz0Mq6os1ICyICIpkrIsELjRGZYykbwzqkxaclFoLqOQQ+BIv4BKstC3b98xssDf7733XnjllVdikH/ooYfG91IShGwgEcDrvLepLDzyyCMxs0DwT9+H/fffPwZOnDe5LNDvAQlhe1gu8xECzisyC8gCozcx1Ou4ZAEQBgLJRnig1/hCFqZdu3bxNyKzs8MOO8SJ0rFip3R+y0MOOSSWiiEWQ4YMyV5pGfz255xzTswk5c/coNzpzDPPjOVj7PdKcGyQpSJr1dIGBuJO9vOjjz6azZk0KAs1oCyISIqkLAtvvPFG2HDDDcN5552XzWk5lJkQHDKMp9RGtaIABFgzzDBD2G233cYE3YwyRGBPwI8s8DwG/kYEeA/3+VVXXTXe65dZZpn4OlkAQDQYhvWoo44qkwU6KB977LExu0BghxwgGWwj/RQQELaBoVcpP0I4yChMNtlksRSJbALBMJ/hmQxff/11fE9xu5vCaEwMq8p2tkVhYESoTp06hQsuuCD+fvymZ5xxRgzA6YBOB3FGpQI6mBO48/wMMhDIVmtAn5aHHnooyl3T/YDUffXVV9lf5fC5rbfeOmahGBGrpeQZhubkZGKgLNSAsiAiKTIxZYEOjARU66+/fthyyy3H1GYzpCQdT59++un4d2tBwMgoNwQhBH1FCMiogV5yySXj+P15OQCtmnfccUcM6orQ6sj200pNIEE2ghbGprAeAh+CoaatoPzWBIksoxpoPe/SpUsMMts6+ahH1YgC/PDDD/H35LfJg3sCf0YZ4ndn//I783exBRjJ4H7PPiYQzeE9Dz74YCxZKg6dSt8GgsONNtoofoaRj+igTJkQxwRBXr5/EIPrrrsuHhdsG8Eoy33rrbfi/8leEZjSUbe43ZXg2M2fwzCpW55bE/YzsRa/NaVgZFmOPPLI7NUQ+y7MMccc4eSTT45/8/vT54NOwWSFyDQApUJkZxhxCuEn+1CppZ9ha+lHssEGG8SRrnbZZZe4bvYD/U8IlPNrA/t3k002GSMyrJvlXnjhhWNG3EIW9tprrzgKFucy62b7fvnll/g6IEPMZ52nn376mOOMz/K9mM91MO8/M6mFQVmoAWVBRFKE8eDXWmut7K8JBzdiAoPjjjsuliBQzsEwkrQG8xotdYx+05pwg0dKCEIrBRIEKwRtBBS5HFAGsd1228XXihAc0urJv7Rysu2MaNMc1MDn5Q05BB8EipW2pRJsE+8nMG7LXH/99XEfja2T66SCIJDgkBKjDh06xAwBwSHPaJjQEFy2pZKkXAjp7wE8+RpZp8Qrh7ItOoYj8Eg5sswwuJSL0W+BfUH2DmmbeuqpY1aQawojW9G/pAhxLaLAELrnn39+vOaQ8UESODfZFrIaLI8Anz4sJ510UlwmmadtttkmZpT23HPPMTEyEse6mU/JEo0GrDu/diGLXOfIbtFhHalgSF0ElG3gWss+RVp4DcFkmfkoSZNCGHiIIdvTHMpCAWUhHWjNoUXIyclpeHxwFWUTlV5rrYmbMS1p3PjzlD+teZR+EAgTPHDjZJQYRqihVY5Op5R2cF0mCGA5tCIS/JOFoJWRgJybHEH8OuusE6WjCLJAh1NEhNFUCAwoM+HGTcBOGQqtfLQcv/zyy3E4TcpWpptuuthqmJc8kG0gYJl88sljIEOwkY94gzSwXDphAtu8/fbbx/exXcznWQCIBQ/1Ynvyh3jl0HLMdvDdeZ2hPym54Dfg+xFQUJaBxLBMMjN5YE2gRGDF78J28J1owc6fLVDvE63wBEnVZhQmBRyjZL3IDpANK7YiT2gQBoJOSnMaVRg43xAF9nMuCsgWfT3+/e9/x/IvrkEE3JT2cP7vuOOO4c4774zPpKDlG8gMENBTPkhp1+yzzx6HxEXe6UBOFqAIr1HyxbKA8wxxIFhn/Zw3nEsffPBB7C/BuZxLIJLBNYnrD9nJvE8T+4NzFHnkPCYTxZC7bBvXNM5D+lfk70c0KH0jS0h26uCDD47zkRWG2c2PJZZLHLrFFlvEBoJK58qEmhAb+oM0h7JQQFlIAy4e6667bjR/JyenZePNdNppp634WmtN1KITCFNWUQnKe2id69atWywb4SaNEHCDpSQBSUAykA0enMUNlWCcIILAmkCTAIP5eQ06EDCTXmc4TbaB2nP+T9BAeQABPyUJLJdgnfURkHONICjkRgqsm7IHRtMhuKUGnk6QCAqfp8WZzpovvfRSDDpYHoE+QcVMM80UWzMJlGhhZP2UXeUQHNHCSdDC+vkNZpxxxhiYIi+sEzE4++yzY9DDPNbH90bCEBMCIESJVs4FF1wwtk7yeqV9UW8TAV/TFmEph0CSjvgcGxMjo9HakCHgGKdlPYfWdI5xjleOYWSdPiBkFhBzjnVKgQhSEQYaEujfgBRw/iALtP4j8pR5IRH5MzRyOIc53zjvgeCcZXEdymWBAJ7zllJMtiOHjs9TTTVVvM5wvuclY+wLGhIQcxoTyEyyHUg7mUNknm3nfcC6yZ6QGeF452++eyWYz+s8K6TpeTIhJ35XfuvmUBYKKAtpQI0yJz81rU5OTkPCFVdcEQP5Sq+11sTNmNFgaNGrBIEuN1xa3oFgmBY5+hFQH04fAAJ3WvsIGgi6e/XqFT755JN4k6PlDtmg1rjY6RBZoGUeieAeR2BPKyCt/cgBgTytgNzMuckT4FMSkQfiRZAYMgkEHJ9++mm8jhCcA4ECAQ61zQQteV8GgiFKJQj+aSUlKGb9xaEiacAg8KAUAOgYzfZQHkYrLOtEbviuBFu8FznguxJc7bTTTvHeRXBCnTyiRbaI91faF/U2MXIRgkaw2NrQusvxUOyDMCHg2CJw5HibELA/KUXi2BhbP4d6hWOTc5aynuJ+pgxp6aWXLuuzwPnAMUxLPZJM4Mx5xjlHRoFsIoE+z6ngXKNUjw7JXBfyVvsczlVkgWsJUEJI40NRFrgO0Lclb4DI+y9wHaBhgvOwePzkskBjAccW28t3YHs53jgXuRbkUofksZ1ce2hc4FjPZYHzt9hvhvOdDBLXp0rnyoSauFaMzQGUhQLKQhoQGHHRFZHR0ArNTXJCQms/N1DKDvIWN/4lWCAdTyCNsNBqDsgCwQAt7ZQQIQtAvTJlC5zD9HUgUCajQMsfGQQe7lSs789lgRZD1kMGghs7QTuZANbDDZvtoNSHDALZAMqSihkKYNQUWuAQHwIXsg+U/ACtgTwJmCCEwCAfjpP1EXAQ7BFw0FhBIFRJFgiagf4ciFUuC4gDMkWgxToIgNhGWmoJVmjFZHuRKd5Py2te6tEIEPySNaF8oyXCwO9L51eCdoIxlku5GL9tSx9yRgBJC3ZeWtIUlk+wSvYpD+aJqShvaenoPZwT7GueSdCIopDD+c7zTAjKOYeAIJ3zg2Ob7AATAT/7LC/RIfuXlwkSaHMN4Lin4QCRJhOBQPB/yv2KcM5z/nNOcP7y+pRTThnjPYJ5sn00NHDNYN9xblIKxXnLNtB/qalo8j045zgvuXawXVyjclFBilgO1wDKxrgeUObD+cn1gnOb85N+EbTq5+WEXCOIQfPngNQTykIBZSENeOAKF14RGc3EGg2J1nZusNwkqf/mBkrrHEJAQMTNnoAIaIHjJk8tMh0CkQPeg9SQaaDzMUEY72NCeKh5ZioOeYgsEGjweQKPfGx9ggFKmLip07ER6aC1kPfQCkn/BpaZlyEBN3WyF3RERFTIRNDRFeiPQNDBfLab+l9aMSlHIsDJBYbac2qdi2VIeSkR4kKtMkJFayrZBL4zZRP8dpQpIQtsB+tCVgiUCLL5LKKDdBF85dLVKBCQMeZ9S4SBgJ4SMH6jvLM6wT2dUPPjanwhkONYaS4zBtTkU9ueg3wisM2V3lUD+5P7VT0GkOMD+xlhYD8jyZwXfD8EHtlioiyIcycHseD8JbBmpCLKflgO1w/EA0HkOsH/8+xcDnJF53lkgfOV/UHQyznM8UIfB85VpIJlIgxkOFlXHuA3BREli8B1hXOXfgtk+ShrBNaJMND/gQ7ZzM/ja64vnN8sn+/Ka8gHxxe/A6WS9YiyUEBZSANlQaSciSULwEghBPRIAsEvLWzcpCk3IsjOO3BSAsAQg9x481FQ2EZaFQnm89GECAIJnHNpoKY7H58duBFz06eMgXQ/kkKJEWULBJSMasK20HqZByhcI1gm68mDTiD7QOaCwJxgg/KCPBCk/IiWToJ3ZIXgn+XyXtL8OQQFtKISSOYgNJQXUZ5ESQQBDRkMyp7YXt5PwESJFtvFb8F3Zf3USNNaSRkHy6GFm3W39hC0E4s8kBwfYcg7lyKUtPgCgRy/IxKWj27Fb0Y5CxPzKT1DPDkGEbRiGVsOQTu19XSOp7Ss6fvY78yn1IRjC2i55ntQ4jE+sE6ON2S2rUEwXcwwAEF4Xp5TibG91hy5QCIASANST2MDWbvm4JrTGhkcsko0ODQtZ4Ti8umvRexZr6IAykIBZSENlAWRciamLMjfodyJllPKFWidJqBBCBgpKkXGVxgIDBErJJTW5vyBewgbWQHu70gBcsXoOwSRSNf0008fBY0WbWIhpK9pgEdAx0AAyBoBPH1QkEmEgPfyeSSF84gMGdtOIMx6eUBfreSlR21RFHJyYaCEcEKCENIPgLJDsnEIPo0IExqCfzKWYzuPaSzhuKz3zJGyUEBZSANlQaQcZWHSQ0tn3ieBLEfTIWBTg5IkAklKVaollwWyM/QvIFPEfZ1/mc9wuARw9H+h0zmBONkBSmDoL0MWifISRKJYBgMEdQRL+Wg7LIP30b+EzAHlK2Qm6Og+zTTTxPI0ZIFlFzvvVgOlcghJS0unGgHEkEB+fEvPGhkElFikEUrMlIUCykIaKAsi5SgLUo/kwlBty3Mxs0ApGJ1lab0m8GbEK0bBIbjnad6UotDJnNI0sgWUo5ElIHilj0jTDtG09NOJlQ7TQN8U+obQ7wUxIbCnhp1MBUEVHd6RBcpfKF2qFsrU2F62MxXYR6kJQy4KjZI5UhYKKAtpoCyIlKMsSL3CKEkEkoyMMy6QBYbCJDtDvwH6phDQE9jTl4AhNAnqkQUCfzqZ07GVzux0RKczNB2Um5MF+pGQQQA+Sx8Gnv9Bnxge5EfQS3aCUXToI8M21yILeUYhJVHIQdLoJFwcJayt0miiAMpCAWUhDZQFkXKUBalX6AiaC8O4Ask8s8CIObTqM4oWEgA8YGuWWWaJncTHRxYI8BCCvAyJoXf5m3/333//WMZE3xPq43kGRq2ZhRQzCkXyUZIQhrbcV4dytkYTBVAWCigLaaAsiJSjLEg9wyg4uTCMLZCkpIj+HgyRyXMweG7FDDPMEOcR2DO+PqNW8TA//mbIXgSBDslkIRjWkrIiOjzno3Ll0IeEp5zzXjozIwT8S58Hzh+G1OU5InRo5mnde+yxR1w+T99m1KqxkYtCCn0UxgZiSOkZ+5kRqtoajSoKoCwUUBbSQFkQKUdZkHqHYWFp9R+bMCAVDFXJMzQYH59Anvs6z1ngYZwEaZQnMU4/LfiMmMSoOJT/0KGZdfA678uHXs1huFVKkchM8MRw+i7kz/NgXcxHaChTosMqy2PkJSRjbCVULJPRmlIXhRz2Ry6GbUkY8ucoNKIogLJQQFlIA2VBpBxlQRoBgnKEgU7PbaFUBZFIufSoOdjPeYah+PDCRgUZJeZo5AfrKQsFlIU0UBZEylEWpFHgKdVtQRgQBe5DikJl2M9tIcPAg/WIKxs1o5CjLBRQFtJAWRApR1mQRoJYJReGakZJqjcUhepAGPLhcxtRGBCFRs8o5CgLBZSFNFAWRMpRFqTRKGYYGmm4Tfo2cP+hjwIjAMnYYT8zSlKjZZKKotAW9rOyUEBZSANlQaQcZUEaEWrbKVVplAxDnlFQFGqDjueNJAx0WieWbCuiAMpCAWUhDZQFkXKUBWlUGD2HUpUtt9yyroUhzyg0eu36pIL9nAtDPWeSEIW2lFHIURYKKAtpoCyIlKMsSCNDUJbXtvMgtHojzygoCi2D/cxTsutVGBj1KM8otDWUhQLKQhooCyLlKAvSFshbnl9++eVszqQnzyjYmbn1OO+88+IoSfUkDG1ZFEBZKKAspIGyIFKOsiBthbzluR4yDD5HYcKRC0M9lJ7lotCWM0fKQgFlIQ2UBZFylAVpS+TCMCkzDIyGgyjcdttt2Rxpbc4///xJnmHI+yi09RIzZaGAspAGyoJIOcqCtDUoSerUqdMkyTDkokAJkkxYEAb286TIMORPZk5BCJWFAspCGigLIuUoC9IWIcNAIDkxW55paUYUKEGSiUMuDBNzWFVEIaXMkbJQQFlIA2VBpBxlQdoqZBgoVZkYgWQuCpYeTXxyMZwYT3q+55574n5OqS+KslBAWUgDZUGkHGVB2iqjRo2Kw6oiDBMykEQUOnTooChMItjPuRg+88wz2dzWJ0VRAGWhgLKQBsqCSDnKgrRl8ge3TShhsDNzfZA/uI0Mw4QQhrz0iCdwp4ayUEBZSANlQaQcZUHaOsOHD58gwkAnZkWhfhgxYsQEEYZcCFMUBVAWCigLaaAsiJSjLEgK/PHHH+Hss89utT4MikJ9ghjmfRhaQxjy52Wk/ARuZaGAspAGyoJIOcqCpEJRGFqSYUAQuI/4wLX6hP2cC8Ozzz6bza0dRIH9nGpGIUdZKKAspIGyIFKOsiAp0dIMAxkFRaH+yTMM4yuGRVH466+/srlpoiwUUBbSQFkQKUdZkNQgkKS2nSc91yIMxYxC6gFkI0AfBoSB/VyLMCgK5SgLBZSFNFAWRMpRFiRF8tFzaHke14PbCBgVhcaE/ZxnGKoRQ0Xh7ygLBZSFNFAWRMpRFiRVGJ8/b3l+8cUXs7l/JxcFOzM3Juzn8847b5zCwKhH7OeUOzNXQlkooCykgbIgUo6yIKmTB5KVhME+Cm2H888/v1lhyEUh9c7MlVAWCigLaaAsiJSjLIiMFoamGQaHR217DBgw4G/CkA+PqihURlkooCykgbIgUo6yIDIahGHLLbeMwnDPPffEe4Wi0Pa44IILxuznQYMGmTkaB8pCAWUhDZQFkXKUBZEStDyvsMIKYe211w533XVXNlfaGhdddNGY/UwJkjSPslBAWUgDZUGkHGVBpATDqnbo0CHss88+2RxpizCsKvu5W7du2RxpDmWhgLKQBsqCSDnKgkiJYcOGhT59+oSLL744myNtEfdz9SgLBZSFNFAWRMpRFkRK/Pbbb+H444+P/Rek7eJ+rh5loYCykAbKgkg5yoJICYPINHA/V4+yUEBZSANlQaQcZUGkhEFkGrifq0dZKKAspIGyIFKOsiBSwiAyDdzP1aMsFFAW0kBZEClHWRApYRCZBu7n6lEWCigLaaAsiJSjLIiUMIhMA/dz9SgLBZSFNFAWRMpRFkRKGESmgfu5epSFAspCGigLIuUoCyIlDCLTwP1cPcpCAWUhDZQFkXKUBZESBpFp4H6uHmWhgLKQBsqCSDnKgkgJg8g0cD9Xj7JQQFlIA2VBpBxlQaSEQWQauJ+rR1kooCykgbIgUo6y0FiMHDkyPPvss+HJJ5/M5rSc9957Lzz44IPh559/zuaki0FkGrifq0dZKKAspIGyIFKOslA/PP300+Hss88O559/frwnnXvuuaF///7h/fffz94x+j2rr7566Nu3bzYnhLfffjtcc8014aOPPsrmjJ0vv/wyXHvtteHll1+Ofz/wwANhxRVXDJdeemn4888/47ymfPvtt+Gee+4J7777bjanbWIQmQbu5+pRFgooC2mgLIiUoyzUD7feemvYeeedY+A+2WSThfXWWy/stttu4cUXX8zeEcKHH34Y7rrrruyv0bz22muhX79+URqqAak488wzw2OPPZbNCeGZZ56JGYvmeOSRR8Kiiy4aLrnkkmxO28QgMg3cz9WjLBRQFtJAWRApR1moP+64446w7LLLhrfeeiubMxoyAIcffngMcu6+++7w1FNPxWwA8++8887w6aefZu8czV9//RWuu+66cNBBB4U+ffrE+xyC8M0334RbbrklSga88MILoXfv3uGoo44Kl112WXjzzTdjEPX666/H14GMBhLTuXPncOCBB4aTTjopli8B8QPZEOYfd9xxMXORc/PNN8f1M7/p96lHDCLTwP1cPcpCAWUhDZQFkXJoUW7Xrl32l9QDlBQttdRSUQZyHn744Vh+1K1bt7DFFluEhRdeOCyxxBJhzjnnDNtss01YbrnlojAUQSjmmWeesOOOO4Y99tgjTD/99FEI6O+wyCKLxBInyoo6duwYJaB79+7x/auuumrMbCAiOc8991xYaKGFojDsv//+YY455oj/0s/hlFNOidtywAEHRMnZfffdw9dffx1uv/32OL9Lly5hlVVWCZtssklD9IsgS3PFFVdkf0lb5dRTT1UWqkBZKKAspIGykC6PPvpo2HXXXWOg5VSayCpwD6j0mtPEnThGoaks0AratWvX0KFDh/g3LfcrrbRSDOj5HMHtGmusEe677774OtD3YN99943zhw8fHj777LOw/PLLhxNOOCGWG6222moxi0DfByTkk08+iZ/r1KlTXC4SkvdpADILSy65ZDjrrLPi3zvttFO8Zw4ePDgKAoEXkKmab775wvXXXx9LqjbeeOOY4fjggw/CDTfcEG688ca/fe96mhCnxRdfPMpXpded2sbEfqas7owzzojHrTSPslBAWUgDZSFdqP0mELrwwgudChOlI7QYV3rNaeJOeVlPU1n4/vvvw6abbhqzCkAZEferjTbaKLzzzjsxAKfFvygLCALH/JZbbhlHUKKDMtc+Si+QBQRhwIABoUePHlFCWCbss88+cVmDBg2Kn8shG0HGYeDAgfFv5GW77baLAoCEkEUApACpIAgj40GWYdSoUfE1oLN2pe9eL9M555wTfye+W6XXndrORIlecfAAqYyyUEBZSANlIV1oTbr44ouzvySHFmPLkOqLq6++Opbv5MOjjhgxIvTs2TMG+EOHDh3Tf4DMABD00LpPgJ9DgH7MMceEpZdeOnZopl/C/PPPH/smIAsrr7xyvO9xTeT/LJNlsw6EoilPPPFEXGdemkTWgNIlsg9rrbVWFBkEhbIOSpzIOFCWxLIRlccffzzKC/0h6h2yJJYhiYxGWSigLKSBspAutHIyLKWUYwfn+gNZoHW+2GeBMqHtt98+SgFlMocccsiY+n+GQaV1v5hZADoUE/wjDBtuuGEUkLwMiT4EZBYQhEMPPTQuk2WzjrwkqQjiQulTURYo5eDzeSkSYjDvvPPG5f7xxx8x67HBBhvE9S+22GJxPT/88EP8fL1ix1eRcpSFAspCGigL6aIsVEZZqD+QAMojfv/992zOaGihJ9AnS1DsKMz/Kf/59ddfszmjR0Ii87DgggvGjBojLJFBOvLII+NyGYI1D9z5PMtk2ayjEsOGDYuf+emnn+Lfn3/+eRx9ifUAHaXphE1HaDIhObyP5ZKBIBCvd5QFkXKUhQLKQhooC+miLFRGWWi7vPLKK2GFFVaIEyVEeR+HCQESwahHPL+hKAuNhrIgUo6yUEBZSANlIV2UhcooC22bH3/8MY6ERBYgzwpMCBh96auvvorZijzb0IgoCyLlKAsFlIU0UBbSRVmojLIgUkJZEClHWSigLKSBspAuykJllAWREsqCSDnKQgFlIQ2UhXRRFiqjLIiUUBZEylEWCigLaaAspIuyUBllQaSEsiBSjrJQQFlIA2UhXZSFyigLIiWUBZFylIUCykIaKAvpoixURlkQKaEsiJSjLBRQFtJAWUgXZaEyyoJICWVBpBxloYCykAbKQrooC5VRFkRKKAsi5SgLBZSFNFAW0kVZqIyyIFJCWRApR1kooCykgbKQLspCZZQFkRLKgkg5ykIBZSENlIV0URYqoyyIlFAWRMpRFgooC2mgLKSLslAZZUGkhLIgUo6yUEBZSANlIV2UhcooCyIllAWRcpSFAspCGigL6aIsVEZZECmhLIiUoywUUBbSQFlIF2WhMsqCSAllQaQcZaGAspAGykK6KAuVURZESigLIuUoCwWUhTRQFtJFWaiMsiBSQlkQKUdZKKAspIGykC7KQmWUBZESyoJIOcpCAWUhDZSFdFEWKqMsiJRQFkTKURYKKAtpoCyki7JQGWVBpISyIFKOslBAWUgDZSFdlIXKKAsiJZQFkXKUhQLKQhooC+miLFRGWRApoSyIlKMsFFAW0kBZSBdloTLKgkgJZUGkHGWhgLKQBspCuigLlVEWREooCyLlKAsFlIU0UBbSRVmojLIgUkJZEClHWSigLKSBspAuykJllAWREsqCSDnKQgFlIQ2UhXRRFiqjLIiUUBZEylEWCigLaaAspIuyUBllQaSEsiBSjrJQQFlIA2UhXZSFyigLIiWUBZFylIUCykIaKAvpoixURlkQKaEsiJSjLBRQFtJAWUgXZaEyyoJICWVBpBxloYCykAbKQrooC5VRFkRKKAsi5SgLBZSFNFAW0kVZqIyyIFJCWRApR1kooCykgbKQLspCZZQFkRLKgkg5ykIBZSENlIV0URYqoyyIlFAWRMpRFgooC2mgLKSLslAZZUGkhLIgUo6yUEBZSANlIV2UhcooCyIllAWRcpSFAspCGigL6aIsVEZZECmhLIiUoywUUBbSQFlIF2WhMsqCSAllQaQcZaGAspAGykK6KAuVURZESigLIuUoCwWUhTRQFtJFWaiMsiBSQlkQKUdZKKAspIGykC7KQmWUBZESyoJIOcpCAWUhDZSFdFEWKqMsiJRQFkTKURYKKAtpoCyki7JQGWVBpISyIFKOslBAWUgDZSFdlIXKKAsiJZQFkXKUhQLKQhooC+miLFRGWRApoSyIlKMsFFAW0kBZSBdloTLKgkgJZUGkHGWhgLKQBspCuigLlVEWREooCyLlKAsFlIU0UBbSRVmojLIgUkJZEClHWSigLKSBspAuykJllAWREsqCSDnKQgFlIQ2UhXRRFiqjLIiUUBZEylEWCigLaaAspIuyUBllQaSEsiBSjrJQQFlIA2UhXZSFyigLIiWUBZFylIUCykIaKAvpoixURlkQKaEsiJSjLBRQFtJAWUgXZaEyyoJICWVBpBxloYCykAbKQrooC5VRFkRKIAu9evUK/fv3z+aIpI2yUEBZSANlIV2UhcooC9KIDBs2LBx00EHhjDPOCMOHD8/mtpzff/89ZhbOPffcbI5I2igLBZSFNFAW0kVZqIyyII3Ik08+Gbp06RIefPDB8Ndff2VzWwbL+eOPP8KXX34Zvv/++2yuSNooCwWUhTRQFtJFWaiMsiD1CIE7ccmIESOyOSV4beDAgWGxxRYL1113XRg5cmT2Sgh//vlnRXkYNWpUnM97yR7wvqb88MMPYe+99w4nnHBCNqcEmYyhQ4fG5VQD6/jll1+qfr9IvaIsFFAW0kBZSBdloTLKgtQjH3/8cdhiiy1imVFTCMRPPPHEsP3224cjjjgifPjhh3H+/fffH+/lRXmAd955J577yMBjjz0WNtxww3Dvvfdmr5YgsH/mmWfCrrvuGtdf5LTTTgv77bdfXMa4QEouueSS0LVr1/Ddd99lc0UaE2WhgLKQBspCuigLlVEWpB55//33wxprrBG6d+8e3nzzzfg3nY+BoB4BeP7558N7770X5eDtt98Oq6yySthjjz3CJ598Et8Hv/76azj44IPD0ksvHV588cVw6623hmWWWSZKCMv96KOPyrIMn3/+eXj22Wfj8vjsTz/9FL7++uv4PtbZNNOBGLA+lvXZZ5+FL774IsoM/77xxhtxW5l4D38jISyDz1HuxLJZ7pAhQ2L2QqTeUBYKKAtpoCyki7JQGWVB6hGCao7LeeaZJwb3c845Z+jZs2fsU/DQQw+Fjh07hvXXXz9ez5966qnQu3fvMM0004RZZ501nHzyyWPKf5544okw//zzh6mnnjpmDM4666yw3HLLhfnmmy8sueSSYfbZZ48CgXC88MILUThWXHHFsPjii8fMAOvZaKONYnnS5ptvHr799tu4XCDgv/vuu8NCCy0UllpqqdChQ4ew6KKLhkGDBoVTTz01tGvXLvz444/hzjvvjMtde+21wxJLLBFuvvnmuJw111wzfofVVlstbjejMFUquxKZlCgLBZSFNFAW0kVZqIyyIPUILfkE2FtuuWUs/aEEiKD60UcfDZtuumnYYYcdYqC+/PLLxyD9tddeCxtssEE4+uijy0ZHIqCnD8LKK68cS4IGDx4c5phjjigX33zzTQzYkQJa9rk3MMIS8RAxwWSTTRYntoGMBYE9mYCcn3/+Oay77rrx2sI2nnPOOVE+7rrrrrjOVVddNXzwwQdxZCXKpZCGlVZaKey5557h3Xffjf/v3Llz3I4DDzwwSsynn36aLV2kPlAWCigLaaAspIuyUBllQeoRgmxa5gnqgX+RAfoCLLDAAmGRRRaJwTv9GmiRp2yIv4855pi/9VmgfwPiQSs//RrIHJBNAIJ1gnfOA5ZJqz9QijTzzDNHQbnvvvvCoYceGtdflAWEhowCkgCM0ERGAllgnXyW8qNXXnklygLy8J///CeKD6VH/N2vX78oNKeffnoUmmIJlUg9oCwUUBbSQFlIF2WhMsqC1CO5LPDMA+Df9dZbL9x0000xIM9HLKIfAn0Bvvrqq5gloASpKcjE6quvHkt8yCyQjWA50KlTp7DXXnvFjs3LLrtsOP/88+N8OkAvuOCCURpg3333/ZsssE5KpI466qj4N5kDPpPLAlkH1kfpEZkQSqOQG7IU9LVAFvr27Rv7TCANCI2yIPWGslBAWUgDZSFdlIXKKAtSjxBMU5Zz+OGHx7/5l6Cbjs608jNsKqU79Ee44IILYtYAWaB1nmCd1vocRjKadtpp4/suvPDCmEG45ppr4msIyHbbbRdLlOjPQDYAuaC0iX4KdHJmWfR3YNl0Ss4hyD/llFOiZCAMO+64Y5h77rnDPffcE/9mPn0mWAcigOAQdNH34aWXXorf4bjjjovLQYYWXnjhmK0QqSeUhQLKQhooC+miLFRGWZB6hD4AAwYMiMcn8C+1/3RwZtQhAvrdd989zstHEeKZC2QAuM7nHZyBzEOPHj1Cnz59YsYAaXj11Vfja7z3xhtvjAE7E++hDwN9H/IHsyELt912W7jooouiPOSQqUAwyFQgLmQT5p133nDHHXfEh8X1798/juBEPwu2i/IjypGuuuqq2IH7vPPOi5212daHH344fhdGXxKpJ5SFAspCGigL6aIsVEZZEBk/6EhN9oERmw455JCw9dZbxxGPyH6ItBWUhQLKQhooC+miLFRGWRAZfxi9iAwIZUT0l6Dvg0hbQlkooCykgbKQLspCZZQFkRKUOd1yyy1jyp9EUkdZKKAspIGykC7KQmWUBZES9EmgXwFDmYqIslCGspAGykK6KAuVURZEStAhmZIiOh+LiLJQhrKQBspCuigLlVEWREooCyLlKAsFlIU0UBbSRVmojLIgUkJZEClHWSigLKSBspAuykJllAWREsqCSDnKQgFlIQ2UhXRRFiqjLIiUUBZEylEWCigLaaAspIuyUBllQaSEsiBSjrJQQFlIA2UhXZSFyigLIiWUBZFylIUCykIaKAvpoixURlkQKaEsiJSjLBRQFtJAWUgXZaEyyoJICWVBpBxloYCykAbKQrooC5VRFkRKKAsi5SgLBZSFNFAW0kVZqIyyIFJCWRApR1kooCykgbKQLspCZZQFkRLKgkg5ykIBZSENlIV0URYqoyyIlFAWRMpRFgooC2mgLKSLslAZZUGkhLIgUo6yUEBZSANlIV2UhcooCyIllAWRcpSFAspCGigL6aIsVEZZECmhLIiUoywUUBbSQFlIF2WhMsqCSAllQaSc5GXhjz/+iBNcddVVoVOnTvH/I0aMCL///nsYNWpU/Fsam+J+vuaaa0LHjh3j/93PbRv2K9c19jNsv/32YwKA/Jj466+/4t8poyyIlFAWRMpJWhaGDx8eTj311LD00kuH++67L1x00UVRFj7++OOwySabhC233DJ89tln2bulUSFQPO200+J+HjRoULjkkkvC5ptvHj755JPQoUOH0Llz5/Dpp59m75a2xFdffRV22GGHsP7664cPPvggysIZZ5wRHnvssbDsssvGgCCXyJRRFkRKKAsi5SQtC7QoPv3002HKKacMfH+maaaZJswxxxxhsskmC7179w4jR47M3i2NCvv52WefDVNNNVU82PP9POecc8b9fNxxx7mf2yjsV0SR/Tz77LOH//u//wszzTRTmHnmmcMUU0wRHnroITML/x9lQaSEsiBSTtKyAEOHDg377LNPDCaK02qrrRbeeeed7F3S6HDx33ffff+2n1dZZZXw1ltvZe+Stgj7d+211/7bvu/WrVs8/0VZECmiLIiUk7wswIsvvhhbHCeffPIYRPzrX/8Kffv2zV6VtsLLL78cpptuurL9fPLJJ2evSluGTs1kEHNR4Hx/4oknsldFWRApoSyIlKMs/H9++eWXcMABB4wJJMgqvPfee9mr0lagFblHjx5j9jNZBbNHafD222+Hdu3ajdn33bt3j+e9jEZZECmhLIiUoyxkUNM+7bTTxjpmW5vbLs8///yY/XzCCSdkcyUFTj/99CgKZJceffTRbK6AsiBSQlkQKUdZKEDwyDjs1jG3bei4vvXWW9uynBg//fRT3O8EAVKOsiBSQlkQKadVZIERhRh2tFevXuGoo45qyKlnz55hxx13jKUKjI5T6T2NMPE9zjzzzHD33XfH4Kg1aSv7eaeddgrrrLNOm9jPd911V/jxxx+zPTRhQJ7vvffecNZZZ4Vjjjmm4vY0wsT+ZghVGgT4/Sq9pxEmzr8BAwbEPhet9XwQZUGkhLIgUk6LZOHxxx8Pe+yxR9h1113jyCLUAe+3334NOx100EHhsMMOq/hao0yM+MPoTrvvvnscU/7SSy/N9tb48+STT47Zz3vvvbf7uQ6mfD+zX7bbbrv47IgJAQ8q5DkFHE+sj/VW2p5GmdjvBx98cMXXGmViH3C97dKlS9htt93i8K8tRVkQKaEsiJQz3rJw5ZVXhq222iocccQR4eGHHw6//vpr9opMahg3/o033ogjwNCKevTRR4dvvvkme7U2Bg4cGPfz4YcfHoMSS7TqB/Yzw4Kec845cT/T6vz1119nr7YMshXcLNn3PMTstdde8ynXdQTBDA+W49zm4ZHIYkueF6EsiJRQFkTKGS9ZoLV6s802C3feeWc2R+oVRvuh9ZEWyd9//z2bWx2XX3552HTTTcNtt92WzZF65d133437mazPsGHDsrnjx59//hlb33feeefw+uuvZ3OlXrn//nbFSygAAJmbSURBVPtDx44dw/nnn5/NqR1lQaSEsiBSTs2y8Mgjj4ROnTqFQYMGZXOk3vnqq69iKQkXPgLBamC0mM6dO8e+D9IYkFWg303//v3DiBEjsrm1QfaAxgAyFZ988kk2V+odsrtclx944IFsTm0oCyIllAWRcmqSheHDh8cAkrIEaSx4IBnPj6impZj9vMUWW4R+/fq1qLRBJj6vvPJK3M+vvvpqNqc2hgwZEj9PPxVpLOj0TCaw1gwiKAsiJZQFkXJqkoXBgwfHzpSWJjQeBP37779/HNFmXNkF+iawnwk8pfHgAYMIfa3ZBbIKlLLQif2PP/7I5kqjwIMkGdTgnnvuyeZUj7IgUkJZECmnJllgyD6m8Wm5kkkPQcS22247zpp2LpLHHntsi2vfZdLAMKeUEdU66AByQbnaLbfcks2RRgLB69OnTxyMoFaUBZESyoJIOTXJAh0ezz333OwvaTQoMVl11VXDzz//nM2pzC677BJHUpLG5IMPPgirrLJK+OGHH7I51cH535ISJpn0XHbZZXF0pFpRFkRKKAsi5dQkC9SxX3jhhdlf0mjQ0XnppZce50O8CDYuuOCC7C9pNBgmd6mllgrff/99Nqc6yBhyfCAb0phcc801YeONN87+qh5lQaSEsiBSjrKQEMpCGigL6aIsiLQcZUGkHGUhIZSFNFAW0kVZEGk5yoJIOcpCQigLaaAspIuyINJylAWRcpSFhFAW0kBZSBdlQaTlKAsi5SgLCaEspIGykC7KgkjLURZEylEWEkJZSANlIV2UBZGWoyyIlNPmZYEHFXHC86CqRubLL78Mffv2DY8++mg2p3aUhTRQFtJFWRBpOcqCSDmtLgt//vln+N///hcOPfTQ8Oabb8Z5PAyMp4peffXVYfjw4XHexGLAgAFhhRVWCOuuu2545pln4jyCojPPPDOcccYZY31K8U8//RTfd8MNN8TvNSFBaq666qr40LuhQ4dmc0t8/fXXYddddw0dO3Yc87CtkSNHxm078sgjowiMC2UhDZSFdFEWRFqOsiBSTqvLAgEsQe9kk00W9thjj/Ddd9+FAw88MP590UUXTfCguynPP/98ePfdd8Nzzz0XvvjiizgPYbnvvvviNDZ5+fbbb8PCCy8ctt1223H+Ni0FQejQoUNYZpllwi+//JLNLWfUqFHxe+TwNwJ04403jvOpzKAspIGykC7KgkjLURZEyml1WQAC8K5du8YF77nnnuE///lPDLgJRuDjjz8OXbp0CRtttFHYf//9Y+s+nzn//PPDQQcdFPr06RM22WSTcNxxx4VLLrkkbLXVVmHzzTcPL7zwQvx8kQcffDDstdde4Zxzzok3yb333ju8/fbb2ash3HbbbTH4ZRmXXnpplBmEhYtA//79/5ZZIJtw4oknxvV37949LLbYYvFf3sd3pxUfAUI89ttvv3DttdfGoP3KK6+MUpRv+7HHHhtlA15++eWYFeD7cgHabbfdwrPPPhtfy/n111/DzjvvHIM8vgPfhewMGQV45JFHwnbbbRe22Wab+HqeSbj55ptDr169xrxvbCgLaaAspIuyINJylAWRciaILMCLL74YVlpppfCPf/wjBiBPPfVUnE8ATTDKDY0SoZVXXjn07NkzBjgIxQwzzBDXQdnSlFNOGSWB9y2yyCKx5Z3a/SK8RtYCyaCEZ5555okBPRDAL7fccuHkk0+OMrHooovGUiha4ddff/2w9tpr/y1wRlhmmmmmcPTRR4fTTz89bs8BBxwQLx4E80suuWSUnbfeeivMNtts4eCDD44CgjhMMcUUsWyJ4H322WePGRYCMAL8+eefP24rAT/bS6lWEWQBgWJnnHXWWbF/Av8/7bTTwkcffRR22mmnOI8gfpZZZom/D9uEbM0555xxe8aFspAGykK6KAsiLUdZEClngskCre2HHHJIDIxpCSeghnvuuSdmGsgYAEHvKqusEt55552YjSC4J5h/9dVXwxxzzBFfB14jAKKkqMhll10WA/q8PwSt+v/9739jyz9ygRTk34tAnb4LtPQTEG+22WYxk5BDkNW+ffuwzjrrxOwDy1hiiSXi9nPx6NatW1h99dXDp59+GrcD+UB0+G5kAQjikaTPPvssvoa00CGZYJ7XAUng+99yyy3x7xxkYfvttw/LL7/8mIxE586dw5prrhnee++9KAN8lu3/97//HbbeeutYrnTEEUfEbWz6u1RCWUgDZSFdlAWRlqMsiJQzwWThiSeeiCU8k08+eVhooYXC4MGD43xa+P/v//4vLLjggrHjMa+tuOKKsfYeIVhjjTXidlCbTzaBkiCgdIcsBJ2li1x88cUxGGd9BMEIANkIynxYLgH+X3/9Fd9L9oFg/Mknn6woC0gA2QZeA4L2VVddNZZScfFAGtg+ZIAAnu+Xy0KPHj1i1gHBIHAn6EJ07rjjjpjtIKsA9JNAgigfKoIskFlp167dmGCe8iqyMzfddFMUB0QIKeKmTqYhdVmgU/i4jtnWAHGkDC0/juodZaH1oNGD32Vi97UaX5QFkZajLIiUM0FkgcCKzs0zzzxzrN2n0y6t+rT8EzzTAk9JDUHJa6+9FlvNCcx32WWXsNpqq8UTlWAfkTjhhBPiMhGJ5mRhrrnmiu9nlKBNN900Zhbef//9sMEGG0RxIKiE3XffPS4fEakkC5Q40XLPewjE2SbkgqCd74Qs8Br9A5AFtq8oC3xPAjX6TBCsEcjncsCFB2699dZYvlRJFsgsICd5ZmHHHXeMN3DWO++884b7778//jZkS3itrcsCvyvfkWCtKQTulImRBSp2+h4fCAjpYN6cEDz00ENREhG1HD7D8cbE/+uJCS0L/E4cS0x8f/rwcO6w3hEjRsTX+T0npVyxfs6jaoN83kdGM79WAPsVyWffP/7449nc6mGZzR2/EwplQaTlKAsi5bS6LBAs8B76KlB6ww2TgJ8MAx2KaZUnwCNTQJBHPT/lOgTgCAVlSJyoTz/9dMwYHHPMMXG5O+ywQ8UyJIJavgB9IgiOCKQJ+AlYTj311NjaTydnAj6CeQJMghta6XlvMXAmOCWTQZkQgSHDkk499dQxs8Br/fr1C3PPPXcM+PmO9Kkge0BQQSdo5IEAiiFjyZzQj4EgCnmhnIjsCkJAZoVtKkJww2v5qFFI1XzzzRe/P30fyE7wXVnvv/71rziEKsEN2RL6QxQ7dTdHo8kC3wlBZJ9UCvoITo866qhw/fXXZ3PGD/YRxwLCVwkkl7K5XFyB/UWZHZ/h//XEhJYFSuiQ2sUXXzyeK5ynnGeI+uuvvx6zeZQAIsCTAs5VziGuLR9++GE2d+w89thj8bszCEIO+51znj5ELLNWGJCB45c+UxMLZUGk5SgLIuW0uix8/vnnoVOnTjGYpawHCMYYjYgAgtcJKCi3IXgnaP/kk09ioELgzQ2e/9NnYcMNNxxzshIUsgw6Fxehjh/5eOWVV2LwTBaADALL4AZ/yimnxHIkMgJ0gCbo5DUCGt5Ly18R/j7ssMNisEWpD+LRu3fv+Dm2kxsxQQXbud5668VlIgusBykgQCPYImtBkMDnyH4wBCvbgBDwWzeVBeQGaSJoZdmsn+0j8CNoIevCPEq3CEAYXQnp4VkR/K50gh4XjSYLHCcIE8dFJVmg5IvyNYKyPEPERZ4AkWOOYwhx4/uSkeIY4TdoCgJLBol9w7Lo01J8H8tmPuvi+AWOLcSVvjaVtm1SMqFlgeORcw3ZX2CBBeJxz7mBNCEIHL8cp5T78Vuyn3JouSeTyJDGyCCNC8D+Yj+QEeQzLI/tpw8Qv3Nz1yY+x/tZJtcG/mbfsJ/Y/3mmgPODdXJMVZK7Bx54IMw666yxTDKH7aYR4qWXXoq/Dd+b34ZsCtc2tpF1ND1ecvgsDQhca8igVlo3xyrHFq8VvyO/C9+J11hntbKiLIi0HGVBpJxWlwVKD5q7sRXnE2BzQ5wYpQoEG7QcNhWDsUEA2Nz3GNtrTSGw4Oa91lprxRZZBIBAjgCjOVh2pQCUefn88fndGk0W3njjjdhvhZGpir8H353AjyAVYUPEkCf2L0EPJVtkohBSDm4kgD4fiAdiSZBXhMCSzM+yyy4bh7fl80giwSu/1T777BM7ttN/hBZ1BIGbCVKMFI7r95zYTGhZyCGwJ6PA74vsAtcQxJZsFw0GZNgIQgnkOa4ZkADZZd8wYhgZm/wzZBUZcYzPICGMQsbyKTNEynOxyGG/cV6xX9lvHAdkJxEZslH8BnwXpIXXWSeZQZbb9FpA1o/XGA2N44vzk+1nn/NdEHkyoxwbZBtYFoKZr7/ScUVpJMcUjRVcAyjL5FhGOgCZoAGB5bDteaME3/OKK66I+4LfhOUzRHM11xxlQaTlKAsi5bS6LNQjAwcOjEEIrXuTAsqWyKDQeZogo6VlM+NLW5KF22+/PQZ2tLwyMtR0000XBg0aFMvNKI2hPIuMAK3cHODUnLMfZpxxxpiNKULQiQwwKhe/Ec+0oLSGzBDZCMrZ+Jf+N5SlMTQuNxPKbghCU5UFpIn+MnTMJ0AHriH85ogALfL02SEI57pBKz99AOiwf9ddd8URw5AvZJ7zEykgSKeVf6qppooCyP5ghDIEI8/qAI0N9BdimGNGWCODRFCPwLEtPKOFY4eWf8oJkRRKG9lf9JniOCmSywLywu/HOpk47gikkReOEQJ7+lshl2w7mQxGPOOzHBfFgB6hpb8S0sHxwjDLyA/bSiMCmVUaD5ADHqyIiNx7771RMvi+lFLxeyI3fB/2z7hQFkRajrIgUk4SsiCjaSuyALRqE3iSMSDoIjglMCUIpH8Hz9gA+o0Q4BEAMmIWARnPwihCEEpwRuBGsEdQi9QReFJucvfdd8eWb96DbNACzM2EzAYSqCyUywKt+6yf443Al74N9PegRZ2AnU75ZG7YT/yLLPCMEQYkQPCQDLIL9C8C+jchcsVyJpZFEE65Exkgtp3gHnFkGdzokRGOIZbPPicLxPbSUv/www9nSxpNLgv0WSATQUs/pYXAd6PUjywBAy0gH3R65njhuKS0CAnhWMwzLMB3Z12UIQHSyTaRUSA455i97rrr4mtkXsgy8F4CFKSC99WKsiDScpQFkXKUhYRoK7JAXw0CM4ItAir6f/A+gvpcFmhJBjqeU8qRtwAjC3RYLYIsUG7Ce2mxJhClvwwyQGCLIPB7EBxTUkIrr7JQWRZYBmVJBJ78RuwfZIGHCyIKtNAT1DNS0b777hvLeFgOskBJGdtMizzvo9yH/cFrtOI37ftA8E8LP983/7soC0gkI4gRPJN1ILPIccH28OT3IsgCxw2ZBY4hgvy8/wIlS4gJF0oklO1gezhekEv6aXAcIJd85xz6uCAHZECATBXr5ncgy8XxS4YMkFK+C/2t+K04Tsmw1IqyINJylAWRcpSFhGhUWTjppJOyOaMh8EcAaNkF6tMpLSEwHF9ZoFWXMjECP1qqeYYGgRuBL63alIoQvDHsLetTFsYuCwS+/Ja5LFD6RYBMededd94Zf0+yCgSoDENcqywQpLN/2B+UGrHP+M4cu2wLN3oyStT600qPcMKBBx4Yy504FooUMwt8f+SRAQ6A7eM7UEYEiA7SSHaBrAKBPq9zPOb9EQBZ4PhlcAZAFjiu+E1YB78FpUtAZ3GOW0rrOI4RCfppAGJDKSUSNC6UBZGWoyyIlJOMLHDDZdsJmFOl0WSBlmA6hRKQUk5E7TbD8VLXTQDGa3RkJvhjyFkCQ/otMDQtQRdQPoQgIAQcA/RtyMtLcgj2CDT5HGUmtHYTDNIfgqwF5watxsxjPZSKEJDSqZU6durP64mJJQvU3hPUkinIA1nKcOjLQYBOIE1QzihDBMUE9Pxe/I6I1hRTTBGDaX5njjnmE4jT8k42h5s1ssBrtNDz+SKMlET2gBHEOA5YDyOmsW8YQYttY1nsL6QCiWFfsg+bjkZGCds000wTy5UQGTIICAqfRWrIWOTDEyMtCCSlSnR+53V+t6bP+6CfDMcoxy2QYaA/DULL9zr77LOj0PAcFY4lhmjmd2T7Od7Zh8guWQ7+ruY4UxZEWo6yIFJOMrLATZegkgAnVRpNFgiOyBDQR4DRaCgJopMxLbME/9SA02JM0MVFHbmg9puhahmKEhAEnlPBxZ9gk9cIMovQAk6ncyZawCkzIsgEzglam3neBetDQhAS5lNCwghX4zpvJjYTSxbYP4zaQ/lXPkQp5WL8zW9J0E1gzXvy35NRybgJ8xvzW/I8E/YlwTodn9kGnrnCb07wTWd2XkME2U9FyAYQtBNIs//JIPGwQraFY+Tyyy+PwkJmgFZ9gnVa61kvw5IWYSQjOhTTXyKH78Fxh1wWn9fA9tJ/BRGlXwXfhe/VFLJZHL/5A93INLBNRenh2GT59L8pjtCENHFcs362q+noTc2hLIi0HGVBpJxkZIGbLq2de+yxRyybIMgspvXzB8TRMknrYl5OQAsgfxNA0zJJ58dGpdFkQcaPiSULkxoyTJTykMngnKYFnlGWJjRkosgqkM1oDTjXkAiuNS1FWRBpOcqCSDnJyAJlKzPMMEOsWaZEge9Lqx7Q8kfpCTXHtPIhFdRLAxcLbqL8TbkBLZm0VDYiykIapCIL9FugpIcsBBkjAt7xef5IrfA7kbGifKrpKF21wrLIYNBPoaXLAmVBpOUoCyLlJJVZoF6dIROpCWYYREZj4aLAmPwM1UjZAFAXjzBQbsKQiD169IjzKY8gSKi3Dq3VoiykQSqyIH9HWRBpOcqCSDnJyALZBEYs4aFPBFGMdkLnRAJoyhgY1Savu6ZWOH+iKp0uGSO+LaAspIGykC7KgkjLURZEyklKFhg5hU6w+dCHyAKBM0MzIg/5aCN9+vQJCy20UBxznSEgGa0krycmoGqNcoFJgbKQBspCuigLIi1HWRApJxlZYIx0hmkks5AHUwyTSd0zfRcY1/3GG2+Mo+jw9F5GOmEEkv333z8Ob8jTWHkf8tD06a+NgrKQBspCuigLIi1HWRApJxlZ4MFePPSJIRMJoig7om8CHSIZ4pEsAuP5k2FgbPU80KIfAyOtUMJEtoGRkQiqGhFlIQ2UhXRRFkRajrIgUk4ysoAQ8P0oJ0IQ+H/xaavAWOqMl05H5iK8j2FWyTRMjNFWJhTKQhooC+miLIi0HGVBpJxkZKEaHnjggbD55pvHEY/aIspCGigL6aIsiLQcZUGkHGUhIZSFNFAW0kVZEGk5yoJIOcpCQigLaaAspIuyINJylAWRcpSFhFAW0kBZSBdlQaTlKAsi5SgLCaEspIGykC7KgkjLURZEylEWEkJZSANlIV2UBZGWoyyIlKMsJISykAbKQrooCyItR1kQKacmWejcubOy0MDw/AiCyHHJAlKoLDQu3377bVhyySXHSxY4PnjeiDQm1157bdhoo42yv6pHWRApoSyIlFOTLPAk4/PPPz/7SxqNTz75JKywwgrxAXNjY7vttgv9+/fP/pJG47PPPgvLLbfceMkCx8fbb7+dzZFGY+DAgWGzzTbL/qoeZUGkhLIgUk5NsnDQQQeFPn36hJEjR2ZzpJF44oknQocOHcKvv/6azanMIYccEk4++eTw559/ZnOkkXjqqadC+/btw88//5zNqQ6eVE6gycMJpfHgunz22WeHbt26ZXOqR1kQKaEsiJRTkyyQ4t5nn31iC7U0Fn/99Vc47bTTwtFHHx2DwrFx3XXXxYDjo48+yuZII3H66aeHI488Mvzxxx/ZnOoYNWpU6NWrVzjppJMUxQbkyy+/DPvvv3+47LLLsjnVoyyIlFAWRMqpSRa+++67sOGGG4b//e9/2RxpFOj0SjAwePDgKA5jg/1M3TPSII0F/RXYz2QHxrWfK0FWYvXVV7dBoAG56667wrrrrhuloVaUBZESyoJIOTXJAtDxdaeddgpDhgzJ5ki9Q4sxF7599913nCVIOQMGDAg77rhjePfdd7M5Uu+wn0844YTQvXv3MHTo0GxubXAN6NGjRzjqqKPGmYGS+gG569KlSyxDGh+UBZESyoJIOTXLAuUJBx98cNhrr73Cxx9/nM2VeoVOq3RW7tixY037i/182GGHhT322MPRcRqAfD//97//bXH5GEPsMiIWZWvDhg3L5kq98sUXX4T99tsvTiNGjMjm1oayIFJCWRApp2ZZAIbepDZ25513Dg8++GAsfRifkgeZcNCy/Oabb4ZjjjkmdOrUKTzzzDPZK9XDqEkHHnhgzCRR1uJ+rj/IFL311lvh2GOPjfv56aefzl5pGS+//HLYaqutwuGHHx5ef/318Msvv2SvSL1AueCjjz4aunbtGvuSUWo4vigLIiWUBZFyxksWgJIHSpLWXHPNWPZwxRVXhPvvvz888sgjDTs9+eST4bnnnqv4WqNM9EmgTwnlKGuvvXYMImgpHl/YzzxbI9/Pl19+ufu5Dib284033hh69+4d1llnndghfXxq1ccGQ69SkrTWWmvFjs8cV6y30vY0ysR+p19GpdcaZSKwv/LKK8MBBxwQ1lhjjXDWWWfF87QlKAsiJZQFkXLGWxZyPv/883DJJZfE1i0619E5slGn+eefP0w//fQVX2uUiaCeJzCfeOKJ4aWXXmq1TEBb2s8LLLBAm9nPyMILL7wwQTM+r776ajjllFPC1ltvHQPKStvTKNOMM84Y5plnnoqvNcrUrl27sMsuu8R+Ra3VEV1ZECmhLIiU02JZaEtcddVVsbZf2jbXXHNNrO2X9ODBkgYAf0dZECmhLIiUoywUoJTKILLtM75PuZXGZ5tttgnnnHNO9pfkKAsiJZQFkXKUhQLU4ysLbR/qvZWFNEEWxnd40baMsiBSQlkQKUdZKKAspIGykC7KQmWUBZESyoJIOcpCAWUhDZSFdFEWKqMsiJRQFkTKURYKKAtpoCyki7JQGWVBpISyIFKOslBAWUgDZSFdlIXKKAsiJZQFkXKUhQLKQhooC+miLFRGWRApoSyIlKMsFFAW0kBZSBdloTLKgkgJZUGkHGWhgLKQBspCuigLlVEWREooCyLlKAsFlIU0UBbSRVmojLIgUkJZEClHWSigLKSBspAuykJllAWREsqCSDnKQgFlIQ2UhXRRFiqjLIiUUBZEylEWCigLaaAspIuyUBllQaSEsiBSjrJQQFlIA2UhXZSFyigLIiWUBZFylIUCykIaKAvpoixURlkQKaEsiJSjLBRQFtJAWUiXnXfeOVxyySXZX5Lz7LPPhnXXXTf7S0ROPfVUZUEkQ1kooCykwcSWhd9//z3ceOON4YQTTnCaxNNSSy0V2rdvX/G1lKdddtklzDPPPBVfc3JKberZs2fMtJ1++unZVVwkbZSFAspCGkxsWXjjjTfCggsuGPbYYw+nSTwtsMACYfXVV6/4WsoTAjXbbLNVfM3JKbVpzz33DIcddlh45plnsqu4SNooCwWUhTSY2LLw5JNPhpVXXjn7SyYllCFdeuml2V+SYxmSiIg0h7JQQFlIg4ktC08//bSyUCfYwbkydnAWEZHmUBYKKAtpoCyki7JQGWVBRESaQ1kooCykgbKQLspCZZQFERFpDmWhgLKQBspCuigLlVEWRESkOZSFAspCGigL6aIsVEZZEBGR5lAWCigLaaAspIuyUBllQUREmkNZKKAspIGykC7KQmWUBRERaQ5loYCykAbKQrooC5VRFkREpDmUhQLKQhooC+miLFRGWRARkeZQFgooC2mgLKSLslAZZUFERJpDWSigLKSBspAuykJllAUREWkOZaGAspAGykK6KAuVURZERKQ5lIUCykIaKAvpoixURlkQEZHmUBYKKAtpoCyki7JQGWVBRESaQ1kooCykgbKQLspCZZQFERFpDmWhgLKQBspCuigLlVEWRESkOZSFAspCGigL6aIsVEZZEBGR5lAWClxxxRXKQgIMHDhwosrCs88+qyzUCcjCOeeck/0lOcqCiIg0R9KyMGLEiHDeeeeFjh07hldeeSVce+21MZgYNmxY6NatW9h7773D559/nr1bGhX28/nnnx/388svvxyuv/76sNVWW8XjfZ999gl77rlnq+/nm2++OWy66abh3nvvDc8//3xYa6214vp69eoVtt122/Dmm29m75QJyddffx3233//sPvuu4dff/017LrrruHCCy8M7777bujUqVM444wzwh9//JG9O12UBRERaY6kZWHUqFFh0KBBYbLJJguLLLJInGaZZZawyiqrxHkHHHBAcr9JW+Svv/4K999/f9ynCy+8cFh00UXDzDPPPGY/d+/evdX3MzIw/fTTh9lnnz0ss8wyYYYZZojr+9e//hU23njjMHTo0OydMiFBBI488si4n1daaaUw66yzhgUXXDAsscQScR5Sx3UgdZQFERFpjqRlAX766aew9dZbx8ChOC255JLhxRdfzN4ljc4vv/wSs0ZN9/Piiy8eW/5bGwSlR48eYYoppihb33/+859w1113Ze+SicELL7wQlltuubL9wER26ccff8zelTbKgoiINEfysgCPPvpobPHNg4jJJ588HH300THgk7bD448/Hqaccsqy/XzEEUdMsP38wQcfxMxCvj4mAtSRI0dm75CJAZmDE088Me7vfD/84x//iNkmGY2yICIizaEs/H9++OGHsOOOO44JJCgbMavQ9qAVeeeddx6zn5daaqkJklXI+fPPP8Phhx8+RlAQB/owyMSH7AJlSPm+33777cP333+fvSrKgoiINIeykPHQQw+Ff/7znzGQoLVZ2iaPPPLImCzSIYccks2dcLz//vuBc4v1de7cOZsrkwI6l7MfkLd77rknmyugLIiISHMoCxmUhjD60brrrhs++uijbK60NdjPjHTVrl278OGHH2ZzJywnnXRSWHHFFcMzzzyTzZFJAWVh66yzTtz/ZH2khLIgIiLN0SqyQOvpgw8+GG688cZw3XXXNeTEcJqMmkJn5//9738V39MIE9/j7rvvjkOEtvaQkG1lPx911FETbT+zvn79+sVhVBmat9J7xmfK9/NLL700wSWfoWdfffXV2Bp/ww03VNyeRpjY35QfHXzwwQ39PTj/HnjggfDee+9le6jlKAsiItIcLZIFxirv06dP2GuvvWLw1aFDh7DJJps07MSDujbffPOKrzXSxPjxjCdPvTxBRUshKMn3Mx103c+1TYgC62vfvn3F18d3Yj936dIlHHbYYTHYmxA8/PDDsSyva9eusYyqtb/DxJ7YDzx4sdJrjTJx/nEe8nwQslZvvPFGtrfGH2VBRESaY7xlgRbmnXbaKT5gitauL7/8MntFJjW//fZbHOGJh1ERGA0YMCDOGx/oy0GnYPYzLeNffPFF9opMatinjz32WDjwwAOjAF1wwQXxwWOtAdeCyy+/PD7IjudQcBz4bIj6gYfNkWHYYYcdYrakpSM7KQsiItIc4yULlD/QwsWTUB1etL5huFBaU3v37l3zkJ2M3MN+5unHPriqvnniiSfifj7++ONbZWjWU089NQrI4MGDszlSr1xxxRXxPOUBc+OLsiAiIs1RsyyQ8qb84aqrrsrmSL3z9ttvxwwDLZHVyh1PIKbshEBEGoN33nkn7mdq81sidzw0jtKpV155JZsj9Q7nNvt+fPeZsiAiIs1RkywQaFKSwhCEjibSWNBCvNZaa8URYcYF+3mXXXYJxxxzTOzcKo0D5ULs5yFDhmRzaoMyM0YMInsojQNy2Ldv3/iU8vG5NisLIiLSHDXJwnPPPRdLHfhXGgtKUxC9iy++eJxlKjyojP389NNPZ3OkUSBoZD9TIlhrORKSOHDgwLDddtuF33//PZsrjcJrr70Wz1tKD2tFWRARkeaoSRYYEadnz552dGxQbrnlljhK0rgCQerVGV70l19+yeZII3HrrbfGzFCtndppkd5tt93CNddcY1+kBmTYsGGxbxKZ31pRFkREpDlqkgWGTzz77LOzv6TReOutt8Kaa645TgkgYDzzzDOzv6TRoO/C6quvHn788cdsTnXwXA4CxhdeeCGbI40GmUNGLqsVZUFERJqjJlnYYostYnmDNCZfffVVWHrppccZRG655ZZxGE5pTL755puw1FJLhe+//z6bUx1knDg+qunXIvUJWaGNN944+6t6lAUREWkOZSEhGJu9GllgPysLjcu3337bIln48MMPsznSaCALG220UfZX9SgLIiLSHMpCQphZSAMzC+liZkFERFobZSEhlIU0UBbSRVkQEZHWRllICGUhDZSFdFEWRESktVEWEkJZSANlIV2UBRERaW2UhYRQFtJAWUgXZUFERFobZSEhlIU0UBbSRVkQEZHWRllICGUhDZSFdFEWRESktVEWEkJZSANlIV2UBRERaW2UhYRQFtJAWUgXZUFERFobZSEhlIU0UBbSRVkQEZHWps3Lwi+//BKOOuqouN3Dhw/P5qaJspAGykK6KAsiItLatHlZuOyyy+JN8K677gqjRo3K5qaJspAGykK6KAsiItLatHlZuO2228IyyywTrrzyymxOy3j22WfD5ptvHm+ujUZbl4WXXnopbLXVVuGGG27I5rQe9913X+jUqVN45JFHsjn1S8qy8Oijj8b9NGjQoGxOY0LDxtlnnx123nnn8P7772dzx42yICIirU2ry8JPP/0UDj744LDJJpuEV155Jc676aabwoorrhguueSS+HdrQTC01157haOPPrpi1uDbb78NBx54YNh+++3D7rvvHp5//vk4/9dffw3nnHNO+OKLL+Lf1cJ323PPPcNOO+0Ub+Jff/11nP/mm2+GHXbYIVx00UXx7+Z47rnnwkYbbRTuvPPObM7EpVFl4bPPPgsdO3aMv/nQoUPjvLvvvjseY/fff3/8m/mHHnpo2GabbcJuu+0W90ktfP755/GzZ5xxRjanHI6V/fffP5a05XA87LvvvnHesGHDsrmTnvGVBc7/5ZdfPjz88MNh2223jefsCiusECf+v+aaa4Ybb7wxe/ekh+vJiy++mP0VwsiRI0O/fv3CLrvsEn+DWuBademll06S7ONTTz0Vj+VbbrklmzP6mO/atWvo27dvTceWsiAiIq1Nq8vCn3/+Gf73v/+Ff//732GPPfaIAfLKK68cFl988djym0PATrCV9yPgJv3HH3/EiX4GvM7Nn9ZO/h4xYkR8X5Evv/wyrLbaajGQRAx4H+vP4fNvv/12GDJkSJx+++23uJxjjjkmLLnkknHbeE8Rtodt4Ab9888//62fw7vvvhs++uij8Nprr8X3AYEqQcvHH38c/24K34Hvescdd4Tpp58+BiV//fVX/Hy+fLab9+Xbk7/G78D3Km4nvxXrZD7vY7+xvHHRqLLAvpt11lnDv/71r3D99dfHeZSXzTjjjOHqq6+OfwMt4kyIAr8b8Fvx+zCxD/jdmu5zYB0LLrhg2HvvvcN33333t2OJ35cA7p133hlzLPIvxwHHWKVlTipaklkgC/fWW2/F6bHHHgvrrbdemHnmmWO25uWXX47nWX6O8Jsw8dvmx2HxfOE35DdnPvB78T7+5X3M5z1Ng2FeZz77ivfn68phv1x++eVhoYUWCtddd118P/CZ9957L14XirBvOJeZivsUWC77fp111omSwTp5D9uWn7esH1gPf7OcXCry44vvw/o57vLXoHiu8j6WVXwdEF+O5fPOOy+bM1pEOa7yfZivJ982lsN2ND2elQUREWltuO+0ehkSN39a/FkmN6AZZphhzI2QmzM3tOWWWy4KxHbbbRdviATutFzuuuuuYdNNNw3zzz9/bLXdZ599wiKLLBJb8z/99NO4jByCX1rqaQ3dcMMNY/DA+/PggUwCIkHLKEEP66CcZO655w7//Oc/w1prrRVvyDkEB2RFeG+3bt3CoosuGrfvk08+ia/TuszfrI/p/PPPj9+HgLF9+/bhrLPOiu8rQss3rbJLLLFEbLn+z3/+EwMvvgvbdthhh8X3MY/38X6kpnPnzvH9THyvww8/PG4fQcMpp5wSfx+2f7PNNgsbbLBB+PDDD+NyxkajygICwL6YbLLJwkorrRT3A0HiXHPNNabkiCCWQJ/9QqBMCQdBFAHuKqusEktTOOYWWGCBKItNg3vWwXHCb0rgiDiQjeI3JwA88sgj43LYR7S6//DDDzFQ47jcb7/94j6rF1pahoQMA78RrduLLbbYmNIkjj/OS45dgnLmc47zO6y99toxk8dyKP/jmEfKOUafeOKJ+HtyftP6z3lLY8Lqq68e3/P000/H5fObsk6Oec7DddddN2btCLZzOK85DiaffPL4vgcffDA8/vjjcTtYHo0T1157bTw3CeJ79+4drzULL7xwzAwWsw5c89h/U0wxRZhppplilggB5TjiO7LPyaZwDHBN4DtxPeIc5DqDmHLd4thr165dPE7z6wDr5ljjmCNzwOsch03LirgmcSxffPHFcZvJcnANzDM7CPK5554bfwsaGtZff/14jrJtXAe4NuQSpCyIiEhrM0FkAQigudER4FE+kt/sqfnnZnv66afH1ksyA9zsKH2YbrrpYjBOAEJANuWUU8ZgcODAgbHl7cwzz4zLyOGmzw2OGzTLPemkk8I888wTAxPWx02TYJvgskuXLlEoaEUkoGEbSP/nYgFIDsHMNNNME+6999647jnnnDNcccUV8bch6GGi9ZKWbYKABx54IK6boIWAsggBLOsksCEAOP744+N3JPNCcM98tgsoqZhlllnCrbfeGgOTVVddNS6fjMWJJ54Yg4JnnnkmBkVzzDFH6NGjR3jjjTfi+/guZDzGRaPKAsEV241oEdBRKkRpG/v65ptvjkEtxw3BGMEbwRWBIQEjxwIHON+J5bCP2KdNa9o55ggQOR5ff/31eJyTzbjqqqvCk08+GQ444IAYpB577LFh2mmnDf3794/HGMfff//73xjk1gstlYVcDPhOnLscXxxrQIv21ltvHY9dhJdMy7zzzht/A34Lzh+Ca85JfkOOS8SX7SH4pU8JATnnNucrxzcBOL8v5xh9i9hfHH/0D2FfESQXj1mC8NNOOy2eB0gj+4GgnPP1nnvuiVJIIE2ZIOcp28p5w7nFfM6/nFz2ERa2ndZ6PoM8cF1iGfyOvLbGGmvE9yJCHF8E7jRAcFzSWMBxgzSxPj5DxoDrKsuhUYJzlc/xmxXJZYFjjesCvyO/O+cr1wx+X9bN78f35lrD+vhteZ3fgesVIAsdOnSI/68FskhIsoiISFMmmCxQykHLHLLQs2fPMS25ffr0iTdXWtFeeOGFGEwT1FOiQ0Cct8pRf07AQXBPoD3ffPPF4KIIN/K8JZgAgr4ABBcEKwR43ES7d+8eAxKCEYJvAnu2h+AlD4pykAVaNbmh8xoBEjdmgnWWx02bFmsgIOMGTkslgQhBFgFLEW7AfObUU0+Nfw8ePDjMPvvsMcCh9Tb/PFBWQcDA74As0FpJxoBA6Pbbb4/fiyCHGmaC2Lyj7SGHHBKDrbYsC3w3AnnKRAg2CcY4PvhtGeWKQKwoawS0BJi04vI6r+V9EQjuOK4I+ouwv/ltOE6AzAHrYZ38H7HkWOKzyALLI5im9ZvfKyVZoKWfY5eyLPYN5wvnOv2AkF4yDxyT+XIQAI5tznPOn+OOOy5eA/KgnSwD+4rzmaCc9ZHN49hHQmhJpyynCP2DkMW8zwrHAFJPVgHp5l+2mfOZ9bLdwL/FBgJAehAMMgyALLC9BPuAIJBdyY8NBINMAQE7QTpZKL4z8zk/Od64ZvE92RYyH0AmhfVUkgW+C9uPiHCu5wMysG72CSJMnxm+N9vCeiD//fMMJdc+pIRMTS0T+27ZZZet+JqTk5NTW52ICfL+p9I8E0wWCAqmmmqqeLNEAvIbJkEe/RkIZmjFJSDmJkyrH8E8Ny2gHIj3IAtIBa+R+i9C8JuXKQBBNSVG3DBpYaQVmnVz8+R9tHBSlsKNlZbEpjdtZIHgkFIGAhUkgxvxySefHLePZdNaDcgQy6QlESmoJAsPPfRQ/AxlF8D7CASQBVoQWQ/lC0D2hPfmssBvQ9aB8gJaz3mNllPEBXEiGAHWmYIscCwgA5zY7BOyP8ggGQJEjt8nFzmCwTyY4/ck+KRkDNj/7PumWaBcFmgFhjxrQGaK/U9wS6suo+3wef6fqiyQxUFm6RROtobXOc8p00EgCPg55zhHgOP3H//4RwzgOae4hrAPuSZQ1kSDAecmZU077rhjfB8t/OwDshiVZIHjk33O/ifYZ7s5Z8j+kHXj/xwrZAI5FjinmgNxJ1CmhBGQBZbNNQQ4jxHT4vUHuWHfI6ME75zjNIjQGMLvwXHGMYY48J0B2UR6K8kCyydTgWzl3wt4LxkFrs9kzFgW18L8WGfbKbEiWwoIDmWf/Ia1TEgwWc9Krzk5OTm11Yl7Jfd5GTsTRBYoBSGgQgQoF+HmSUBFMEKqncCLVnbg5sf7KUMiCM5vgsgCy6DkZ1yywGhHtOrRKkeLIOukxInl0boHBOeU8fAdkRMOED5fJJcFAg2ClVwWCNBZHuKRCwEtn9ykKamg1ZnlNZUFPo8c5KVGZD4IqrjpE+CwHuq4gWCW34X35LJA0IUs8H0IIJAg+n5QkoUYAbLC79TWZYHviGiy/4444oiYseK3JDgiyESY8t+SfUdQxqhItDwTiPFZIPDjGMmzPTkEyHTupfyNY4n9wzLZdwyVSwYLWB6fpyQuRVlAxPJSGzIuyDy/LxmyvG6eDCAZtPwzBNL8ZpzjQFaG84oSPgLsXBYo26N1HwnkfEM2kA5ebyoLNCpwTiCKnNecO5wnyAf7g5sA5zziQCCcj3xGRo5yoSJ8X44v3gtk+Vh2nllgOchE3ijBMUg5E3/zHVg+xxPfhWsUvxfrYN7//d//RWHlmCIrxjHW9FzN+1FxbeQ34rfLM2FkLck6IKyQZ1nJMgByxDWGaxTQmIEc1QrnRX6Mi4ikAvcarstco6V5Wl0WuOHT6kZWIR8ilLpagjtupIwYRIsv72E+KXwCYG66BMG0zAEt7gQNlBcQDJAlaFo6QgBAvwhaD9nRlDXQ4kzrHEEDrW0EDdx4aZ1DBAhAuInTinbCCSfEoDAn71iMBBCcULLESDC0NlPmxPsJEuhvwbIIYgiW2D62FcEpQvBFmRCBADdzgix+B7IIiAnfkdcQJG7wdLomg0GQxjYQ9BCAUYfM90IyaElEwpAkOm4iUZUCkEo0qixwMvP7UsYBr776agw++S3J0gBlGewb/iXAp2yDlmWm2WabLWZxCPBppSYAzQPZHKSU35LjjN+VwI6Am2wQ/RMIRmkpRg5YL8P1cowQNFNGQyt4vdBassB34jxFyvjNcwjUCWj5PTgnGKWKY5tjGghoOTfIEpCB4ffm3M3Lf5AJzitKeAiweZ39xfoIftkGAnEygATblBE1PWbJsnHhIptBsI0c8j4+w/4hgOZcYf9R+sOAC5Qfcr2hlKd4YyAFzXWCawSBPccJ1wfORWAbmcd7CNo5b8k60R+G44tjhmsZ7+N7sl0cs2QFOO7orJyfq5UyC1wnOb+5tiJgZDgoreRvrm3Iat4pmhHlaLTguEPCuBawXfnxPL4dnLn+8p1ERFKChh2uy8rC2Gl1WeCmRrqdAIubJ9DySws8gRwBCTdSWiIJyPJMAkE3QTk3LSDw58bLjRzBIDDJywJyaEEmGMlv/txIaUHmJg6IC5kFgl+CdrYDCKwJMghmKBfIQQgoBSAgYDtZL0Fh3ooPiAZ10IhIHlTR8si2ktloCtvINvBd2daDDjooygVwgyd7wMTnmQi0KPVgGyiHQHrIrLD9ZCoQJFp7Ca6YRzBBqyiB0bhoVFngGOC3QZZy+K3ZhwSXOWwz+4ZgjlpvoOWZAJFWYzINvJ4fH0U4Vgh8OUYJLCm1yY83XkMEKYnhuKVVF0khA4Q4st5xnTsTk9aSBb4T5wPnQN4yD5xH/Fb8HuwXzjlatPN+AUBAjEBwLPEbFSE7wzLJKHJ8I/OM9sP5xzxEmGsN5wqBMDKWi0hOfm6TCWJ5ZN1YH1lGtofrRd4QQIaANDPn4NWFoXZzuHYQZPN5soOUAJG9KgoScD6yDJZFQwKQYeS9fIbvwjHDuvm9OCfZPgJ/fi9Kt+jrkQf+OVwH2Oa8HxLS1KtXr/gbcJ0pDsmclyGRHeU4ZZvJPuQ4GpKISPUQKygL46bVZSEFCD4QiLzsYmKCBVPmQGslrZmIAoFD02CqEo0qC7VA0INoEvgC5RW0TjctO2rLtJYsTAo4t8hkIHwE0ATGxecPNBKIKucn5yryT/8FGk1aMswukkLWg0xFJZQFEZHqURaqQ1moEX4jypwGDBhQVYA+IaB8gywMrY5kK4qtvmOjrcsCJzujyFAykn9HWpdptc6zOSnQyLJAdoLafTI5ZIPIGubi12hwPObnKkJPhqWlo25wDnM8IyKVbm7KgohI9SgL1aEsJEQKmQVpbFmQlqEsiIhUj7JQHcpCQigLaaAspIuyICJSPcpCdSgLCaEspIGykC7KgohI9SgL1aEsJISykAbKQrooCyIi1aMsVIeykBDKQhooC+miLIiIVI+yUB3KQkIoC2mgLKSLsiAiUj3KQnUoCwmhLKSBspAuyoKISPUoC9WhLCSEspAGykK6KAsiItWjLFSHspAQykIaKAvpoiyIiFSPslAdykJCKAtpoCyki7IgIlI9ykJ1KAsJoSykgbKQLsqCiEj1KAvVoSwkhLKQBspCuigLIiLVoyxUh7KQEMpCGigL6aIsiIhUj7JQHTXJQufOncNFF12U/SWNxtdffx2DyHHJAlI4YMCA7C9pNL799tuw5JJLjpcscHx8+OGH2RxpNK699tqw0UYbZX9Vj7IgIimiLFRHTbKw1VZb2eLcwHz++edhueWWCz/99FM2pzLbbLNNOO+887K/pNH48ssvwzLLLDNesrDsssuG9957L5sjjcZVV10VOnTokP1VPcqCiKSIslAdNcnCvvvuG/r16xdGjRqVzZFG4vnnnw8bbrhhGDp0aDanMvvvv3/o27ev+7lBefHFF8P6668/TilsyvDhw2Or9KOPPprNkUaCmx2Sv9tuu2VzqkdZEJEUURaqoyZZuPjii0OPHj1iOYs0FpwI9Ddh//3xxx/Z3Mpccskl4cADD4wt1NJ4UCrI/iNTUAsjR44Mhx56aDj77LPj/6WxIJN02GGHhXPPPTebUz3KgoikiLJQHTXJwqeffhpbpu+5555sjjQKv/76a2xtvvPOO8d5UrCfaWHmvdJY/Pbbb2GDDTYIt99++3hd/Aga27VrF7777rtsjjQKDz/8cFhvvfXC+++/n82pHmVBRFJEWaiOmmQBjj/++LD33nvHEVekcaCvybbbbht++OGHbM7YOeGEE8Kee+5pFqnBoGM6fU7GN9inRG3HHXcMZ555ZjZHGgEGLdhvv/3CUUcdlc2pDWVBRFJEWaiOmmXhl19+CV27dg1HH330OGvfpT645ZZb4nCKr7zySjZn3LCf99hjj3DEEUeEn3/+OZsr9cytt94aM0IvvfRSNmf8eOedd0L79u3jyDpS/wwbNizK/U477VRzP5UcZUFEUkRZqI6aZQEYh32HHXaILVlDhgwJI0aMyF6ReoHOyQT8559/fhSFO+64I3ulehhCk1bm7t27xxFy3M/1B/sZaSdzhChQftQa3HfffWGTTTaJGQZk0c7u9ceff/4ZPvroo3DwwQfHbNLbb7+dvVI7yoKIpIiyUB3jJQtAZ7pevXqF1VZbLfTs2TM8+OCDUSLoFNuoE6VVfK9KrzXK9Nlnn4XnnnsuBo/0UaD0qJaMQlP4PWi1ZD+TTXrggQfcz3UwsZ8Z3YpO6/RRIFh8+eWXW/WC99Zbb4Wdd945rLvuuqF///7hmWeeif1ZKm2P08SbkPiHHnpozPX3yCOPbHEfE2VBRFJEWaiO8ZYFYFSdZ599Npx88snxgW0rrbRSfAJso04LLrhgmGOOOSq+1igT4+QTPDLq0V133VV1H4Wx4X6uvynfz4x6RNaoNfZzJShruffee8MhhxwSMxc8p6PS9jhNvGnFFVcMm2++eZT4p556qubrdiWUBRFJEWWhOlokCzmkwxmFhbIXShYadWLIQQKwSq810sTIR+MaHnV8aCv7mbHoybpUeq2Rpgm1nyvBMxhYX6XtcJq4E+cf5yHnY2uhLIhIiigL1dEqstBWGDhwYOjYsWP2l7RVrr766vDf//43+0tElAURSRFloTqUhQKXX365QWQCXHnllWGzzTbL/hIRZUFEUkRZqA5loYCykAbKgkg5yoKIpIiyUB3KQgFlIQ2UBZFylAURSRFloTqUhQLKQhooCyLlKAsikiLKQnUoCwWUhTRQFkTKURZEJEWUhepQFgooC2lw2WWXxXHqRWQ0PHCvXbt22V8iImmgLFSHslBAWUiDQYMGhfnnnz906tTJycnp/09rrrlm4B5Q6TUnp9QmHj7apUuX+KR0adsoC9WhLBRQFtJg6NCh8enWF198sZOT0/+feOL7QgstVPE1J6fUJh7Quskmm4Qzzjgju2tIW0VZqA5loYCyICIp8vTTT1uGJFKgb9++8Wn/0rZRFqpDWSigLIhIitjBWaTEb7/9Fo4//nhlIQGUhepQFgooCyKSIsqCSAllIR2UhepQFgooCyKSIsqCSAllIR2UhepQFgooCyKSIsqCSAllIR2UhepQFgooCyKSIsqCSAllIR2UhepQFgooCyKSIsqCSAllIR2UhepQFgooCyKSIsqCSAllIR2UhepQFgooCyKSIsqCSInhw4crC4mgLFSHslBAWRCRFFEWJHX+/PPPcP3114cHHngg/PDDD6Ffv34xJvjxxx/DjTfeGO69997sndKWUBaqQ1kooCyISIooC5I6ZBM222yzMNdcc4Xu3buHHXbYIey+++5hl112CdNNN104+uijs3dKW0JZqA5loYCyICIpoiyIhPDQQw+FmWaaKUw22WRh+umnD//617/i/5dYYonw4YcfZu+StoSyUB3KQgFlQURSRFkQGU3Hjh3DlFNOGf75z39GUfj3v/8djj322OxVaWsoC9WhLBRQFkQkRZQFkdE8/vjjYcYZZ4yikGcVvvzyy+xVaWsoC9WhLBRQFkQkRZQFkdGMHDkydO7cOfzjH/8IU001VejVq1f2irRFlIXqUBYKKAsikiLKgkiJ5557LpYiLbTQQuG7777L5kpbRFmoDmWhgLIgIimiLEhrMmrUqNhC36jTzz//HDbZZJNwwAEHxO9T6T2NMrEvpHmUhepQFgooCyKSIsqCtJQRI0aEJ554IhxzzDFxCNKVVlopLLfccg05LbvssmHOOecM8803XwwkK72nEaZVVlklbLXVVqFv377hzTffjPIg5SgL1aEsFFAWRCRFlAVpCa+//nrYa6+9QocOHcLJJ58c7r///hiEvfXWWw07ffDBB2HIkCEVX2uU6eWXXw533nlnOPLII8OGG24YjjrqqPDFF19ke01AWagOZaGAsiAiKaIsyPjy6KOPhvXXXz8ceuih4eOPP04+jqhHhg0bFoPinXbaKWy55Zbh3XffzV4RZaE6lIUCyoKIpIiyIOMDHYE33njjcNZZZ8UyJKlvhg4dGg466KCw3XbbhU8++SSbmzbKQnUoCwWUBRFJEWVBauX3338PXbt2Dd26dbMTbQNB5+2NNtoo9mP4888/s7npoixUh7JQQFkQkRRRFqRWbr311rDNNtvE2nhpLB555JGw+eabh1dffTWbky7KQnUoCwWUBRFJEWVBaoFRdY444ojQvXv3bI40GpSPXXPNNckHycpCdSgLBZQFEUkRZUFq4csvvww9evQIAwcOzOZIo3HiiSeGU045Jfz222/ZnDRRFqpDWSigLIhIiigLUgtvvPFG2H///eMQqdKYXHHFFXFI1W+//TabkybKQnUoCwWUBRFJEWVBaoEAa7/99guDBw/O5kijQQnS4YcfHr755ptsTpooC9WhLBRQFkQkRZQFqYVcFh588MFsjjQaV199tbLw/1EWqkNZKKAsiEiKKAtSC8pC46MsjEZZqA5loYCyICIpoixILSgLjY+yMBploTqUhQLKgoikiLIgtaAsND7KwmiUhepQFgooCyKSIsqC1IKy0PgoC6NRFqpDWSigLIhIiigLUgvKQuOjLIxGWagOZaGAsiAiKaIsSC0oC42PsjAaZaE6lIUCyoKIpIiyILWgLDQ+ysJolIXqUBYKKAsikiLKgtSCstD4KAujURaqQ1kooCyISIooC1ILykLjoyyMRlmoDmWhgLIgIimiLEgtTEhZGDJkSHj66afD77//ns2ZsBAsDx48ODz00EPh119/zea2fZSF0SgL1aEsFFAWRCRFlAWphQklCwTrm266adh+++0nWhD78ssvh0022SRsu+224dNPP83mtn2UhdEoC9WhLBRQFkQkRZQFqYUJJQvnn39+WH311cMHH3yQzZnwDB06NPTq1Su88sor2Zz6Y8SIEWHQoEHhySefzOa0HGVhNMpCdSgLBZQFEUkRZUFqYWyycMMNN4TevXuHE044IVxzzTXZ3BDeeOONcNVVV4VPPvkkm1POo48+GtZbb72w5pprhmeeeabFwRvC0bdv33DaaaeF/v37x2D77bffjv9//vnn43t++OGHcPDBB4dFF100fp+vv/46zh9fXnzxxfDjjz9mf9XGH3/8Ea6//vpw8sknx2289NJLw1dffRVfu+WWW8Liiy8eNt544/Dcc8/FeS1FWRiNslAdykIBZUFEUkRZkFqoJAuUEPXp0ycsvfTSYZdddgl77LFHWHjhhcMhhxwSvvzyy3DOOeeEaaedNtx///3ZJ8ohCKavwr333htef/31Fgdv3333XTj++OPDcsstFyabbLLQr1+/KCxnnHFGlBEgsL/22mtjkH/XXXeFL774Is4fH+j30L59+/DRRx9lc2oH0dphhx3i9q6xxhpjyqIef/zx2KeCf1srA6IsjEZZqA5loYCyICIpoixILVSSheuuuy7MOuusYcCAAdmcEO67777Yuo8sXHLJJWHuuecOBxxwQNhzzz3DSSedFD7++OP4vpEjR8b7b48ePcIxxxwzJph/4YUXooAQRPMZWt2RiVNOOSWunwC9EojHoYceGmVh3333DYsttlgM4pnYDvopwPfffx/OO++8uF5a8v/8889YlnTuuefG7WEbWQ/f7eabbw577713uOCCC8JPP/0UP5/D9i677LJh6qmnDrvttlvcbn4HMgKAjLDNV155Zcx0kEUpgmghM4cddlhcJ9vLd83h83wfsiD33HNPnDds2LC47WRryOLwPe+88874GiBGBx54YJQ1BAlZe++997JXlYUcZaE6lIUCyoKIpIiyILXQVBYIXDt37hzWX3/9MaUzTSEY/7//+7+w4447RmGYbbbZYjAPl112Wfz86aefHtZee+2w0korxXVcdNFFsZWdIJ2AnjhlxRVXDD179ox9G5ZZZpm/tbSTHVh33XXDQgstFMWD9y2yyCLh/fffD7fffnuYaaaZwtlnnx3Lfrp37x5WXXXVcMQRR4Sllloqismbb74ZpWaJJZaIATwt/NNPP33cZkRg5plnjsE3gpNDYL7hhhvG14477riYAeDzdNQGvsc000wTlzXddNPFPhI5BKlnnnlmzLogRHxXgrL8tyETw7lJpmafffaJ23nbbbfFkinKp/huyAK/G0Hv559/HgVg8803j9/jxBNPDKusskpcPqVYOcrCaJSF6lAWCigLIpIiyoLUQlNZoPaf42frrbf+W6t7Di36tLwTOMNGG20Uy3Z+++23uDxKj2h9Jxj+97//HQNb7smzzDJLuPvuu2OrPzJC4Euswmv/+c9/wo033hiXl0NLO5/JW/WRjAUXXDC2qpOV4P8DBw6MJU9zzjlnuPDCC+P7CJzXWmut8PDDD8csQR7oIznIAq32BNb0HaBUiE7HRZAEBAFZYkJSCP6B9bFNBPVkDy6++OI4H5AbBIjfDuhPMcccc8R+H0gYozQRzOZDyW655ZZhnXXWCU899VQUBD5LZuKOO+4Is88+ezyX2VakJM9OICe8VswEKQujURaqQ1kooCyISIooC1ILlWSBwJVAtrkOvgTlBKx54N+xY8fYYZfPUp6zwQYbxMCelvW55porHpNkHOaZZ55Y1sNyuT8ztCqBHa+RPaCVvQit/nwm78RM2U9RFvgMwfsVV1wRA2rkhEzE/PPPH9/H8gjAKfkB5Ga++eaLIxF99tlnYeWVV44ZhqayQOBNS/8777wT+xoUZYF+EVNNNVUUDbIitP7n8H4+R3YD3nrrrfg34kRncOSIPiA5yAbLoY9Fu3btotQgXPzN74Yo8N3I3Nx6663xM2RS+H4PPPBA/BuUhdEoC9WhLBRQFkQkRZQFqYWmskDwz98EXZTkVIIafoJ4+hlQArTZZpvF+y3vJyBGHH755ZeYKSA4p78DQkApDVkApAJR4JkIrI9MRR7cFyEwJp5BSoDSoqaZBbIPZB5o7T/ooIPiusgo0Nfh1VdfjeVN+++/f/w8ksN208+A4B2RqCQLBPEE+TxUDqmgvGmvvfaKrzEqFGVA/F3sNwC8n8+RWaC0CVmgYzh9FwjkyabwO+Xrox8CgkPfBTIMu+++e8w6UGKFLPC9EQECO34/QKD4TZWFv6MsVIeyUEBZEJEUURakFprKAjz77LOxYy6ZAToOU0JDp1wCfAJigm5au6nBRxYI+pkInhkydZtttonDndJ3gTIk3ocQ8BlKbpAFhIIMBLJAiz9BfF5ulEN/AYJmto8WfKRk3nnnjeshkOYzLJfXCPzpAEwZD9t67LHHxj4QjOhEfwagQzMZkUceeSR2yEYkaOmvlFmg9Z7O02wr343t5begHGjyyScfU/JUJC81IuPBZ+lMTf8GtmXUqFGxvIl+CWRK6E/BNtN/gt+ULMfOO+8cl0EWAflBiF566aX4ma5du4Z33303xjV0PrcM6e8oC9WhLBRQFkQkRZQFqYVKskCwRUBL3T8t3wTVtJATzBNbcH+lfIYhQJEFWtK32GKL+Bot4LT4IxsE6vQl4HOUJ/EZWvwpQ9pqq62iTCALvMY6KL8pwmuUGSEMBNME7CussEIUEY5zPkM/BOCzvIe+BmQ3EA2yB5QQIQ/AtrENTzzxRMwY8P0QiaayQHYCEWH5ZCF4ZgKiw3MjOnToEL8X4lEJOl9TxkWAz3tZH2VIwOhMRx99dNxGlk1mgQwMEkJmgU7PZBYQIX7vXMbIqBDXkZngO7JsMwt/R1moDmWhgLIgIimiLEgtVJKFHIJYWuCZioEoAS2vDR8+PAZmP//885jO0AT4jO5DoM7zEZh4f/4ZAnNa2YufyV8jMG4Ky2e4VvoO8H5a+inxYd18hs/mfPvtt3FbmQ98lveTbYDiNrAMpIUAvim8xrJYJ5/hb+SCEipKm1gGGYDmYDv5/vxmrJ9+CDl8R35zhIXXgN8j3xa2mffwu/Ev2QT6MyBXCBBZG0aYIjORoyyMRlmoDmWhgLIgIimiLEgtjE0WpATB/K677hozES2Nr+gk3alTp/jMhXHBuhiOdckll4xZBTIryEExIFYWRqMsVIeyUEBZEJEUURakFpSF6shb/JlaGoySfSFGI6NQLWRSyHI0LZkCZWE0ykJ1KAsFlAURSRFlQWpBWWh8lIXRKAvVoSwUUBZEJEWUBakFZaHxURZGoyxUh7JQQFkQkRRRFqQWlIXGR1kYjbJQHcpCAWVBRFJEWZBaUBYaH2VhNMpCdSgLBZQFEUkRZUFqQVlofJSF0SgL1aEsFFAWRCRFlAWpBWWh8VEWRqMsVIeyUEBZEJEUURakFpSFxkdZGI2yUB3KQgFlQURSRFmQWlAWGh9lYTTKQnUoCwWUBRFJEWVBakFZaHyUhdEoC9WhLBRQFkQkRZQFqQVlofFRFkajLFSHslBAWRCRFFEWpBaUhcZHWRiNslAdykIBZUFEUkRZkFpQFhofZWE0ykJ1KAsFlAURSRFlQWpBWWh8lIXRKAvVoSwUUBZEJEWUBakFZaHxURZGoyxUh7JQQFkQkRRRFqQWhgwZEg444IBw++23Z3Ok0TjvvPPCscceG3788cdsTpooC9WhLBRQFkQkRZQFqYWhQ4eGgw46KJxyyinZHGk09thjj9C/f/8wYsSIbE6aKAvVoSwUUBZEJEWUBamV008/PWy//fbJxw2NCNmEddZZJ573qaMsVIeyUEBZEJEUURakVt55552w1VZbhSuuuCKbI41Cz549wz777JN8fwVQFqpDWSigLIhIiigLMj6cffbZsYWagEsag3vvvTestNJK8V9RFqpFWSigLIhIiigLMj789ttv4bjjjgvt27cPgwcPzuZKvXLdddeFdu3ahcsuuyyMHDkym5s2ykJ1KAsFlAURSRFlQcaXX375JZx44olh4403Dr169QqPP/548rFEPfHzzz+HQYMGhR49eoSNNtpIUWiCslAdykIBZUFEUkRZkJZCQHrwwQeHXXfdNeywww5hu+22C9tuu23DTl26dAm77LJLxdcaZWIf7LTTTvG7MEzq008/ne0tyVEWqkNZKKAsiEiKKAvSGvz+++/hqaeeCtdee20cx/+cc85pyKlfv36xL8Zmm21W8fVGmS644IJw4403hpdffjnbQ9IUZaE6lIUCyoKIpIiyIFLOqaee6khPCaAsVIeyUEBZEJEUURZEStBx+/jjj4/ZEWnbKAvVoSwUUBZEJEWUBZESykI6KAvVoSwUUBZEJEWUBZESykI6KAvVoSwUUBZEJEWUBZESykI6KAvVoSwUUBZEJEWUBZESykI6KAvVoSwUUBZEJEWUBZESykI6KAvVoSwUUBZEJEWUBZESykI6KAvVoSwUUBZEJEWUBZESykI6KAvVoSwUUBZEJEWUBZESykI6KAvVoSwUUBZEJEWUBZESykI6KAvVoSwUUBZEJEWUBZESykI6KAvVoSwUUBZEJEWUBZESykI6KAvVoSwUUBZEJEWUBZESykI6KAvVoSwUUBZEJEWUBZESykI6KAvVoSwUUBZEJEWUBZESykI6KAvVoSwUUBZEJEWUBZESykI6KAvVoSwUUBZEJEWUBZESykI6KAvVoSwUUBZEJEWUBZESykI6KAvVoSwUUBZEJEWUBZESykI6KAvVoSwUUBZEJEWUBZESykI6KAvVoSwUUBZEJEWUBZESykI6KAvVoSwUUBZEJEWUBZESykI6KAvVoSwUUBZEJEWUBZESykI6KAvVoSwUUBZEJEWUBZESykI6KAvVoSwUUBZEJEWUBZESykI6KAvVoSwUUBZEJEWUBZESykI6KAvVoSwUUBZEJEWUBZESykI6KAvVoSwUUBZEJEWUBZESykI6KAvVoSwUUBZEJEWUBZESykI6KAvVoSwUUBZEJEWUBZESykI6KAvVoSwUUBZEJEWUBZESykI6KAvVoSwUUBZEJEWUBZESykI6KAvVoSwUUBZEJEWUBZESykI6KAvVoSwUUBZEJEWUBZESykI6KAvVoSwUUBZEJEWUBZESykI6KAvVoSwUUBZEJEWUBZESxELKQhrksiBjR1kooCyISIooC5I6o0aNCo8//nh45513wq+//hr69OkTLrnkkvDHH3+E559/PrzwwgvZO6XR+eKLL8KLL74Yfvnll/Dhhx+GVVZZJc7//PPPw0svvRR+/PHH+LeUUBYKKAsikiLKgqQOUrDpppuGJZdcMpx66qlh3333DYcffng49thjw+yzzx4OO+yw7J3S6Nx2221huummC926dYtx31JLLRXuvvvu0K5du7DAAguEV155JXun5CgLBZQFEUkRZUEkhP/9739h+umnD5NNNlmYeeaZY0DJ/+eff/7w8ssvZ++SRmf48OFh9dVXj/u26bT//vtn75IiykIBZUFEUkRZEAlh5MiRYe211w7/+Mc/wpRTThmDx3/+859hv/32y94hbYWbb755jAzm08ILLxzefPPN7B1SRFkooCyISIooCyKjuf3228uCSMpS3n777exVaSuQXeCa969//SvuZ+TwwAMPzF6VpigLBZQFEUkRZUFkNASR66yzTswuEEiaVWi7IIbTTDNNlIUFF1wwDBkyJHtFmqIsFFAWRCRFlAWREvfee2+YfPLJwxxzzGEA2Yb5/fffY98FxPCggw7K5kollIUCyoKIpIiyIFLO+uuvH0dEkrbNo48+Gnbcccfw7bffZnOkEspCAWVBRFJkQsnCTz/9FG666aZYC8y1dYMNNnCahNOGG24YAyOGBn3jjTeyvdR60Arfv3//0LVr17DJJptU3IZGmNZdd904XCqlKZVeb5SpQ4cOcXjQK664Inz33XfZXmpdBg8eHHr27Bm23HLLittQzxPnA/uafikbb7xxxfc02sR+OOaYY+J+ocN+a6EsFFAWRCRFWlsW/vrrrzgMZceOHcOuu+4azjzzzHDdddfFEUicJt104403hksvvTQGd+3btw977713+Oijj7K9Nv58/fXX4bjjjgubbbZZOPjgg8OFF14Y11VpGxphuuWWW8KgQYPCPffcU/H1RpluuOGGKG/77LNP3Df8f9iwYdleaxk8wK5z585h2223DaecckoYOHBgxW2o94lnLrCf2eeVXm+06aqrror7A2nYeeedw9NPP53tsZahLBRQFkQkRVpTFnj67aGHHhpb7cgqfPDBB+HPP//MXpV6gCfUPvPMM+GAAw6IQUVLAgqGmtxiiy3CLrvsEgPIb775JntF6gHE/bPPPgt33XVXfOgcmQbkriVce+21UT769u0b3nrrrVYTEGkd2B+cl+eee25YY401wmWXXRaPg5agLBRQFkQkRVpLFkh7H3nkkWG99dYLzz//fDZX6pWhQ4eG8847L2y99dbhhRdeyOZWD2VHfJanG1vzXf8g7pShIYnff/99Nrc2yBh16tQp3H///TYC1DnsHzImyy+/fMz0tgRloYCyICIp0lqyQOslddJPPvlkNkfqHQIKSoj22muvmuraR40aFZ92SxkK0iGNwSeffBLWXHPNcMEFF9Tc2vzaa6/FGIkAVBqHq6++OmaCWlJyqCwUUBZEJEVaQxa+/PLLWBt99tlnZ3OkUSCA3HzzzWsKAh988MGYVXjqqaeyOdIoUB643XbbhXfffTebM24QC7KGPXr0sOyoAeHafPrpp4c//vgjm1MbykIBZUFEUqQ1ZIEOodS/t0aHWZn49O7dOxx11FFVZQnIKhx77LFh9913z+ZII0HgT6kg0lAtnNc77LBDuPPOO7M50kgwRCx9Vr766qtsTm0oCwWUBRFJkdaQBWrfaa2UxoRjgFIkOqyOC/on0MJ80UUXZXOk0Tj66KNDv3794oPJqoGnHXfv3r2mbITUD2QUVllllfDyyy9nc2pDWSigLIhIirRUFujYzNj9hx9+eDZHGg2CQIZarKasCKGgvwJPOpbGhCF0EYZq+6nQx4FRzhhJSxqPESNGxLLB8T1nlYUCyoKIpEhLZYFWqz59+oRevXplc6TRoN8CI+U89thj2ZzmoaPrfvvtFx/8JI3JNddcE+W+2qFuzzrrrPh+hkaWxgNZYHhjnisxPigLBZQFEUmR1pIFRtWRxuTjjz+uWRbo5CyNCSPk1CILDFzA+x35qjFBFsgcUk42PigLBZQFEUkRZUGUhbRQFtJCWWhFlAURSRFlQZSFtFAW0kJZaEWUBRFJEWVBlIW0UBbSQlloRZQFEUkRZWHikAfZjzzySDanflAW0kJZSAtloRVRFkQkRZSFCQ9PvT3wwAPDZpttFj788MNsbv2gLKSFspAWykIroiyISIrUuyw88MAD8enQTzzxRDZn4kAGgPU+9NBD2Zzx588//wwnnHBCfDDSe++9l81tPd58882w/fbbxyBwfFAW0iIFWUDKd9111/jAyNRRFloRZUFEUmRSysIvv/wSjjnmmLDSSiuFlVdeOWy66abhySefDH/99Vd8/euvvw5dunQJO+ywQ+jWrVv48ssv4/yW8vbbb8fgurlAgodV7b777vGp1DzZ+LPPPovzeR7B+eefH3777bf4d5FPP/00jl//+eefh48++ihsscUW4dprr42v8eTUrbbaKnTt2jUccMABVT85t8gXX3wRg59VV101/lZ777133E4CAR6w1alTp/j6+DylVVlIiwkhC8SQXAfyc3nFFVeMnxs1alTMrPEgv4MPPjie80U4xzmWTzzxxPiAx2rg/OMhcTxJvNK5yDnBgyLJ5PF8gVpL/9hefiPOpeHDh4fddtstXqfG57xtDdgGrq/77rtv+P7777O51aMstCLKgoikyKSSBQIVniq6+uqrh/vvvz88++yz8Wa47LLLxmwCcF96/fXXY5DOU4a56SES/MsNlIdEMVUKMngf76FVn4CCKX/fc889FxZccMEY9PJ5ggOCmhy+U75eMgEsh6fXIi7rrLNOFILi+wmAkIt27drFVn6CKtaRSwbreOWVV8YsL4fvwcT35D1sa3Ow/qeffjoce+yxYdpppw2nnHJK/CzQisqEBP38889xXi0oC2nR2rLA8b/HHnuEDTfcMDz88MPxXO7bt29YYIEFwiWXXBLPr7XXXjust9568TgtnrOca5wbnN95I0FO0/MjP95Z30YbbRTPRSS96bnDcoYMGRKn999/f8yTp5tbXhGWc8YZZ4QlllgiDBo0KK6LaxIyzvlcvI4A6+J3YeI6kZNfe/jufIb/sz7ex3dujvw9bGO+DK41nNuvvvrqmHXwL9vGsovXokqwTGWhlVAWRCRFJoUscIOl1X322WcvK52h5e6DDz6IN0tukrTis22rrbZaWH/99WNAQXaBVnoCEwKGhRdeOAbxP/30U7aU0fA+WhZpbe/YsWN8HwEPN1ZuurR8stx11103isNpp50Wt4tA4KKLLgprrbVWfJ0A56WXXgoXX3xxmGaaacK///3vsO2228YW0Rzez/ypp546ZizuueeeuG7uK6zv1ltvDcsvv3wMOmilJFDhu5Jl2GSTTWL2YtFFF43fgwxCU9hHvE7ARfaF7c2zFgRCtLCy/GWWWSZ+j1rv58pCWrSmLHDOcJzPNddc4a677srmjoblE9AydejQIR7/CPUiiywS5YJA+ttvv42ZwyOPPLIsCCfAPeSQQ0L79u3jObPYYouFzp07R1EnUKZEcOmll47XAJZHBoHAme159NFH4+fWXHPNuM7//e9/cdlk4NgOxB4Z4Nxrmq2k7JDza/LJJw9rrLFGuPPOO+M6yJZwTeA6wnmbB/L8lmzHCiusEK9Rzz//fBR2rlHbbLNNvFbwGb7jQQcdFM9Rrj00JrCtRRACrlV8V95PloYMCd+L35/vyHWOjCLXNZaz5JJLxvN/XAKiLLQSyoKIpMikkAUC5X322SfeOGltrwQtkNwEb7755nDVVVcF7lN8BmHg5sxnacVHKHjtnHPOKbv50gq41FJLhcUXXzw888wzsYyAls433ngjTvPPP38UBf5PkE5QQas/EkC5xA033BCuv/76MOuss8Zghe1BAAggaK0sBjYEPLxGiRDLo3xhjjnmiDd6AnBu6GeddVYMJHgP20KghFhMN910MbNyxRVXxM/kEpBDcEQLKoEPgTpBFZ+57rrrooiw7WwT6+S3WmihhaLYjKu1sYiyUA7HEYFutcF0o9GassBxTFCMWCOuHHcE4JwjLJ/PMB/J5fgma0j535xzzhmPIc5T+vJwLhB85xCMExBPOeWU8bhm4vPEaqxz8803H7OM/v37x9eQdK5H/fr1i9L8+OOPx4CbQJ7rRvfu3aPUIw833XRT/MyFF16YrXE0xMJHHHFEmGeeeaL8/PDDD1ESEAjOD651c889d8ye0LCBAHD+XnnlleE///lPFBGuFVxTkYQXXnghnHTSSXG9lE4hI8zn+xbLmvi+DILAMshocP3hux922GHxN0Q6WCbXA17nGsV1bc899wwzzjhj/H2aQ1loRZQFEUmRSSELtJQRgHMTr9SSDgQEBN60Bi633HKx9IbWyHfeeScGztT/A5/nb/oIFG++BCG0vG288cbxZsuNcrbZZovBBSVG3LAJRuD000+PwQElFHwfJITvw/b93//9X2zRozWPGzath2xbEW70vEarKe976623opgQsFCLTQYFCXjqqafCBhtsELeJQGqnnXaKMoMwkb2Yb775YnlREYILgiKkCAgK+Jtgh4CMVkhaOoFAjdZSsi5sR7UoC+UgXojkySef/LfW39aG/cT6CAInFq0pC5zLHPuUE5JBoFWdABehn3nmmeMxTh8eWszJfiESSDOB+sCBA+OxTzDOudhUFrhGcF5yzHE+E7D37t07tq5TFsR1gRp+Bj/gfWwn+4vz4rLLLov7ENnnPOacJhjnfVxXCOg5dwjgm8I5yLoQAq4HyDjbiPQMHjw4Xkc4/4ib2TbkhExFfq1g/WQByQ6wPXfccUf8vnyG34dMBVkSfrsczkGkiWsD6+T7sky2j9+dYJ/vw+/HfmM7kDS2kxie/lLNoSy0IsqCiKTIpJAF7jfcuLkZctOuBDdWAm5ucgTf3HxptSNVz42bDs9AJoBSIYKRYhDPzZYggZY35lMKxA2bIJcyJDITtNIDN3sCdTpX52UIBECsi+CegIf10MeCG3bTfgFICq+xjdzMCUxYBpkFOnYiOgRPZBX4PK2RBAe0LvIZypJoJeT7NpUF9g+yQespcMMn4LnllltiKcO8885b9hmCKJZZLJMaF8pCObQ8I5rs/wkNZS7sLzrTcxxMDFpTFgjwjzrqqHjs0kcAyLrxXmIqAuM8K8ffBNxIM8JLxnBsssA8AmjeQys+WTPkm2XQOEBJEQE3ZUecBwMGDIjHMsvj3Of8QFz4P4LANYdzkPfkol1JFlgH34frAec2IkTgz3cii8B15LbbbosB+yyzzBIFAdkn0Gc/sq3sU+bzW3DtoUyLcxY55H2UKRVlge0hC8J6gOsI2U5KsXJZ4FrEb0zGlWsAssWy+b+yMJFQFkQkRSaFLAApflr96EyY89VXX4X77rsvBrq9evWKATeiQFBDSRGZBcoJKHkgKAYCEcp8CHbZlpymssCNujlZIKinLIkghnIhxIHWXlowaQ3lRss2sU6Cn6atzSyflkKkhQCAbWR5ZCwouWC9BB5AUEEQmrfINpUFfssidGomIGHEGKD8iL8JaNkmAgq+O/D9CYYQl6Z9OMZGPckCsQhBHhmkCdWqz+9E6zb7gWxMEfYlJWEEkpStEJjmUG5WS8amGggm2cecB+Mz0s340JqyAAShBMN59gvIJnAskuUiEC7KAudCrbLAMpqTBUY7QhYovyM7yLbQjwg4rslAcB0pygJBN/sYmWgK1x7ORTKQHB9cb3JZ4PrE8m+88cb4uyDyHKtcu1gP6+OaxHnNdYPvlMsCWUGOH64hTWUBOeAzbB/XAxoc+E75786y+C1ffPHFWJaYn/N0IOc6ynWhOZSFVkRZEJEUqVYWuBlWYnxlgZIF6m4J6AmULr300tjihhQQLOYteARs3Kgnm2yyWKdMCyEtfXT4Pffcc+Nr3FTvvffebMmjIcDghk/rPTdl+h9QN0y9LzdcWuPy8p3jjz8+zDDDDDFYzgMZOh0TrLBeSnv4/ogHwQHBJLXMOQQ2lEXxGq2bbDv3VWqVEQe+Fx0yCUIofyKQISiljptgn2CAUoqZZprpb78jWQz6arC9iAzLYZsoswCEhM6XCA+/Fb9NrUNF1pMsEGTSYZW+GE0D+daCYwPBJGPEvitCwI7gEdhRz06QCgSXZLNoTW5tJvYzRFpbFvgNOYcQcLJcnMsEvhyn9M8hEOYaQ5DLeUMmgMECCHTZ33yO47qpLDCP85z3cB5xTlGWyDIInFkmgTX9IKaffvq4nZRzEXDTCs97KQ0iUEcOaWxAEAjmCfApJ+KcaQrL4XpA1oE+B2wfmUuuWTRy5P0eOBY4L7kucGzwfZEiAn3EgQYEvhP9D8guEtDzmyMfXBOaZpL4PWhkYL1kJKeaaqr4HVgvy0Kc2HaumzRoUJJFdpb1ju15EspCK6IsiEiKVCML3IAJrLgh0WJfZHxlAWg5pjWQFntEgICbQB5I/zP8Iql8hlQlHc9NnKwALfi0LBLA0ELHjbspBBRsE9d2Ag9u+rQsciNnuEWCGFoHgY6RLJ8AApAXbq75egnIuWHTAkxQTWBAAFOEAAi5IANA6yM3ecQEaKFEWrjhn3nmmXEe20RLLMEV91+CUoKEu+++O75ehACW4IFlsFwyIsUAk9+Q7aVMC9GqlXqSBbYFgULWmsoCQT4Zonz4WTJBtNoStBEIsf8oD+H35thiW3l/UeyA/U+ZUZ51Yv/TpyRv6SUgRPryfcExz/FGkMh+qPRgPZaBzFEOQmkRmSICRbaR5XGe0CLO9nIsAgLKvuO8IqAstjRPSFpbFnL4DTnGOZfJmhHMcuyyL+i/w+/Dd8xLaRBzXqdvCIFycdAAfjvm8TBD3sO2sg3U/7MMGgo4T/ldyRARQOdDLvMezgeOIeb37Nkzvod9k28TWTnOI373piAmlAoiKyyLMkXEkfOUY4rrCJlH/mZgBa5ByC3iwTZxDHNNpFGA78T+ZnkIC78hvwX7nG3P4Tfi2KV/BKVMDJGM5FDixXpYFtdDPs/2ca3kt6ZfB8uudN3IURZaEWVBRFKkGlng5kQGgBYsbqAEG7QW5oyvLFQDckBLfh5IUQ9MyzM31AkJGQzuC0hCI0A2YXwDznqTBVplka6mssD3I2jJW1HJKlGSRUsy/yJ1tBbTyk2QxjHJ+3MBzUEWqA8n6EMmaEUmmCKIJGND9oeWZFpt6SvCcwBoqaZ1mPlNhYxziBFyaC2mBAypQBzZF/yuLC/vyEzJCIEyZWL8y/Jo8SYOI4hsmumYEEwoWagnEETOX8qPGgGOdTKRjIaExHD8M/gBotlSlIVWBLvH0kREUoIRP+h0Oy4IiGjpQhj+8Y9/xKCI4QIJ7mhNm1CyQHkRy2Y9QOssLY7c+CZUTTvwfWndyztt1jsEgLQ8VhsAFmkUWaBVntIy9j+QGaCOnWCW45HWX8pMKMlCFpBY3k+wXwRZYAQtsgsIAcE6UkiJB5+nLh5oUSZgQyLyEpG870kOrcMINMJNHEV2A3Eg+0TWgtZtxIRl8NtRVpOXlpCBYHkc38RhjLTVtPP8hCAFWUASyB5OiLKxCQWZJrIvZK8okURki6VZ44uy0Ipw0nIhoDXAycnJKZWJ2l9asyq9VpxoyaemHlnIJ6SB+XQSpFxAGpNGlQUCclr76ftBmQZlKLTiI03jkgVK2fLjmEwE4okgUvtOKQhlHgT5nBuUn11wwQWxbwwlZkXYXvrZICusk2CfunW2jcxCU1lARpAFWr4pdaKRkhIWpIUsg7IgrY2y0IrQWsUJxMXFycnJKZWJOnc6y1V6rTiRGqcDb1EWKN+gBYzgh4BLGpN6lYWmmSM6HRP855276fjNMUitOJ9jpCka/cgI5HXyY8ss0DeCZ2PwGTJsjKRDPETQzjKQEmrBKbkjYEYW6LxehP4MbC9168gC5UV0iEcW6MBK1oIO6MynvwxSwLnCSEAEYGQVKD2iPwql0MqCtDbKgoiItAg6YlZThsRIHjwpFEngXzrV0amXWmxqxSdUGVIjQUsxv0tzI0fVK/UmCwTxlUapYZ0E7HkncQJ0+gDkdel0PKbMhyfwEoDTpwERqCQLeQdnnquBLCMndIJlpJp8OE06ztP5llIjjnHKi5qONEWZCJkBhIBOs2Q3OD9YHkEaHeQpZUIq6PDO07dZJiMGsTzKZFgv29m+ffuJ0kemrcoCnf7JCDVS6dHEQFkQEZEWUU0HZwJEWkSnnHLKWE/LCC954ECpCJmHepMFOkIzkhJDpk4IGHGHZeelMgSytA4TNNIHrjjSSb1TT7LAiEcE1zz9l+OSMfhp/aezKscc20mGi9Z/WvR5Fsfjjz8eP4sgIGvENAgwHZ+Ri6aywDp4SB5ZNT5D8M5wuWQW6CODcFA6RFaCfhAEW4x2xFC+nAeUQxWhAzXlRQyxyXp5H+VHwO9EvwoEiIwDZU70heHJ4wwlyjoYxnXqqaeOAjMxRLPRZQEp5NxmdKM8+8T5xkhHlICxf2sFgSQbxHdtaygLIiLSIqqRBUooCBZoGW3a8slNuh5lgQCOgDMv86gEgQalI5VAAnIRaAqBBSUj+RNagSCPztAEMrQiNy2h4X1N59UL9SQL7CvWwbbQP4CJ0p+8ozklQbTuMzFSFqNWFYNY+gbwWTIGZBwQBToaF2EdyB4dmoFyIYa1zIdY5djhvGDIy3yfMZQvy+J7VwpG2Q6yCgx/iWjQws3xQ6DG9+E1lscy8uGHEVq2E0lhnbxvYkhmo8sCo1Ex+hXlj/n+4V/2JxLWHGM7p9l/iCdDRPOe5s5VzuPmltHctWRSoyyIiEiLqEYWoLkhOetVFggk6exK51fq02lJzmvdgaCPoI7WacbQJ3gEggTKXJhPSzGtjfRpyyGwZOxzOndTbsIY7gRdfH9+R9ZFy3E+ug6lJQTilLfQEZb3NReITCrqSRYaHY4FHkhGGVK9Bo+NLguIFYE9mQTgnGTkIx5aRmaP7eVYZihbnmXC81LoSM6Tk7kOcKw3/e6Ugq2xxhrx82QnOFcpPcv3IX1JEEAyRDzVvXgtoa8M6+Kawb5HDOvpHFcWRESkRVQrC81Rz7JA+QdlIdQyM1oNZSnffvttDCQIBuhoSvBLQM+D4RCim266KQb29NGgZp3ykvzhbUCrIp1h+TyfoSWT8f/zPhyMnU+nW0qUWDY19ZTR0Dck7yTeGmOntybKQutBHwb6LjR9EFw90VZkgQcacs6ybZRwUR5JXxBKxQjaKUFD5pEEzjs6q1O6xDnJNasoczxLhnIwrhGcq/RnYTlcRwj8yTgwghYjY/FAOBoiyG7xwEoaG+hjw3Z16NAh9pUhG1svKAsiItIi2qosUO5BQEHtOAEcI+PwN4EALZJ0KM07xvLQN2rHCfrJJFAPTzkL8G/TrArBNUEFNe+AgFBiwmdZxxRTTBGXmWc3yDQA60MyEIt6QllIi7YiCwyRy3MtyBAS3APlYgTvtPJTJshD9egrwjlNBgLZJ9vIvPwcB5aDHPD0aWAkLDq+U3pJ1gHx4KFpwKAOZBB5ejLPQuBzDL8PXCsQRdZTLygLIiLSItqyLCAAeQsiD+riyc/Uh1MiwhOp886kZA4IPmgx5AFbBBMIQHO8//77sVyBYIFl00GWlkseqETnV0SEYANZoLMs2wDU3dMCWmmkn0mJspAWbUEWyBoiC7T08/+8JInrEcPV0mH80EMPjaWAZBZ4HgzbT5aALCMPwCue4wgBgsG1ARjZjGsC/WU41ukATwMAUJZI2RHXCp6/Mc8889RdtrCIsiAiIi2irctC/oAu/qWVn86RZBkYsYZgHs4777wY4FOmkA91mXeopS8DHVGLNch0YqZumVpoOstSxrTBBhvE1wgaZptttljTTGBNIMMIUpBnGgi86gllIS3aUmaBc3P11VePpT9A9oAHTZI5oJ8BndspH2LkKVr8yTLyNw0Cxb5IuSyQHQQkgHWQWeD84PpAh2qgzIzzn/OaDvgMgUv/BqABgj4MTTvVT0qUBRERaRFtVRYIKLi39erVK8oC/RMYHYkbORM1zZQR0UeBPgUEwLyPMdopK0AakIg848BrOYyGxJCeBCkM24k0IAW8j0CFZ1FQ/oAcICx0imToTwJyMg35UJ/1grKQFo0uCwg/5zLlfcSuyD8ZO1r+GXyAsqQ77rgjvpe+A5yTPH2egQu4HpAlQOaLDQCMhsS5SlANZAlZRz5MLs/eoC/TlVdeGQ4++OB47tMggYBw7nA9oI8TjQaIykcffRQ/Vw8oCyIi0iLaqixQfkB/BZ76S/0w/1LXTAkREMhTRsDE9lPrnEPnZG743PhpvWw69Cqtk3SApjMjwQcdHSlfoFaaJ1pvu+22cX0IC+JBWQRlELRmNh2jvx5QFtKi0WWBc5hzmz5GwPlNJoDSIs7JYkkQ2YM8k8BnEIczzjjjb30KGM72wAMPjKMnAc/b4P0MZgCIBXLCoAZkMRCFHMSAhgfWT1CeZyzrBWVBRERaRFuVhWogkCCopwShNSArwbCJOYzdT4tmXr5QrygLadHoslALtPzTPwlJaI3SIEY845pJg0GjoCyIiEiLSFkWCHwpKeDpvC2Fe2i/fv1iR2pqpYHWyhNOOCHWPRdLHuoNZSEtUpIFBIHyQIZUbakscK0755xz4vWukX4LZUFERFpEyrIgo1EW0iIlWRBlQUREWoiyIMpCWigLaaEsiIhIi1AWRFlIC2UhLZQFERFpEcqCKAtpoSykhbIgIiItQlkQZSEtlIW0UBZERKRFKAuiLKSFspAWyoKIiLSI1pIFHk4mjcknn3xSsyzwTAlpTK655hplISGQhV122UVZEBGR8aOlsjBy5Mj4fAGeVyCNyZtvvhmDiaeffjqb0zzvvPNOfEp18Sm50lhceOGFoWfPnuH777/P5oydiy66KBxyyCFVv1/qCx4gx5On77///mxObSgLIiKJ01JZAIKPrbbaqq4fPCbNc+edd4Zu3bqF9957L5vTPDz1ukePHrG1WRqTAw88MJx55pkxK1gNPFRw7733Dm+88UY2RxqJ3377Lay00krh9ddfz+bUhrIgIpI4rSELjzzySNh6660NJhqUI444Ihx//PHh999/z+aMnRNPPDHWQJNVksaCWG+dddaJglgtX331Vdh+++3DDTfckM2RRoJ9zfX522+/zebUhrIgIpI4rSELP/zwQyxDIuCUxgLB23TTTWsqUXjuuediJslSpMajf//+oUuXLrGfSi2ccsopYffddw8//fRTNkcaAbJHO+20U7jkkkti34XxQVkQEUmc1pAFePzxx8NGG20Ubr311myO1Dt0WN13333DYYcdVnPn1WOPPTa0b98+fP7559kcqXdefPHFsPLKK4drr702m1M9H330URTEAQMGZHOk3qEsFMljv41vVgGUBRGRxGktWYCzzjorrLrqqgpDA/DZZ5+Fo48+OnTt2jUMGTIkm1s9jKRDPwdaLekgLfUNMt+hQ4dw8sknh2HDhmVza+Phhx8OnTt3Dpdeemn49ddfs7lSj9BP4Ywzzoh9FR566KFs7vihLIiIJE5rysKoUaNix9cNN9wwnHrqqeHJJ5+MNy2pH3imwnXXXRe22WabsMcee1TVqbk5vvjiiygMHTt2DAMHDowjJdnJvX4YPnx4eOmll8I555wTNthgg3DCCSe0+Hzk+Rpbbrll3O+Urn333XfZK1IPsD/okE62kEzvfffdl70y/igLIiKJ05qykPPoo4/G+mbG7qcvAyUrPIehUaeTTjopjh5Dn4xKrzfCxEPzjjzyyLDPPvvEzo60MLdG/Tmxw8UXXxx22GGHsOeee8bx+FlXpW1ohIl9zFDAffv2rfh6o0yccwSM9E9gas1s39tvvx2Hz2Wf8y8Zqkrb0CgTHfZpheffSq83ysRwuIx0RUMA5+H777+f7bGWoSyIiCTOhJAFYKQcHvJ1+umnx4Bir732atiJ2nzukwRdlV5vhImWYIIJHshFRqC1oUXz5ptvjsF29+7dK25DI0yUZS2++OJhxRVXrPh6o0w8OI96dVqZyTBMCHhAH30YDj300Irb0CgTzyCYbbbZ4r+VXm+Uif3AMNbsl9ZEWRARSZwJJQttCW6+2223XfaXtHVOO+20cOWVV2Z/SVuHkaHIitU6QlQqKAsiIomjLIwbMiR07LRTZ9uHmn6yI+edd142R9o6r7zySnxuCP/K31EWREQSR1kYN8pCOigL6aEsjB1lQUQkcZSFcaMspIOykB7KwthRFkREEkdZGDfKQjooC+mhLIwdZUFEJHGUhXGjLKSDspAeysLYURZERBJHWRg3ykI6KAvpoSyMHWVBRCRxlIVxoyykg7KQHsrC2FEWREQSR1kYN8pCOigL6aEsjB1lQUQkcZSFcaMspIOykB7KwthRFkREEkdZGDfKQjooC+mhLIwdZUFEJHGUhXGjLKSDspAeysLYURZERBJHWRg3ykI6KAvpoSyMHWVBRCRxlIVxoyykg7KQHsrC2FEWREQSR1kYN8pCOigL6aEsjB1lQUQkcZSFcaMspIOykB7KwthRFkREEkdZGDfKQjooC+mhLIwdZUFEJHGUhXGjLKSDspAeysLYURZERBJHWRg3ykI6KAvpoSyMHWVBRCRxlIVxoyykg7KQHsrC2FEWREQSR1kYN8pCOigL6aEsjB1lQUQkcZSFcaMspIOykB7KwthRFkREEkdZGDfKQjooC+mhLIwdZUFEJHGUhXGjLKSDspAeysLYURZERBJHWRg3ykI6KAvpoSyMHWVBRCRxlIVxgyxsueWW2V/SllEW0uPDDz8Mu+66q7LQDMqCiEjiKAvj5pFHHgmrrbZauOSSS8I111zjNBGn6667LgwaNCh888032d6YsEwKWfjoo4/C7bffHq699tqKv4HThJ169+4dNtpoo/DSSy9le0SKKAsiIomjLIyb999/Pxx66KGhQ4cOoX379k4TcWrXrl1Ycsklww033JDtjQnLpJCFU089NSy00EIxYK30GzhN2GmzzTYLvXr1Cp999lm2R6SIsiAikjjKgtQz9BM56qijwvXXX5/NmbBMClk4++yzw2mnnZb9JVJfKAsiIomjLEg98/nnn4dDDjmkTWcWkIUTTzzROEzqEmVBRCRxlAWpZ5QFkUmLsiAikjjKgtQzyoLIpEVZEBFJHGVB6hllQWTSoiyIiCSOsiD1jLIgMmlRFkREEkdZkHpGWRCZtCgLIiKJoyxIPaMsiExalAURkcRRFqSe+eKLLyaqLPz++++TTBaGDx+ezRGpH5QFEZHEURak3iBofvfdd+MD2b7++utwxBFHhFtuuSWMGjUqfPTRR1EgWpO//vorDBkyJPz0009RFk466aRw0UUXxfms6+OPP87e2XrwPfhugJj06dMnfu8ff/wxPjFcpF5QFkREEkdZkHrjq6++isfkVlttFZ/cfOCBB4ZzzjknnHHGGWGhhRZq9Vb/P/74I3Tu3Dmsu+664dprrw1HHnlkOOWUU8LFF18cllpqqSgrrc1+++0Xll9++XD55ZeH3r17h549e4arr746rLHGGmHHHXcMI0eOzN4pMmlRFkREEkdZkHqD4P2oo44K//znP8O0004b5p133jDbbLOFySabLCy77LLhlVdeyd7ZevTv3z9MN910Yeqppw5zzz13mH322cPkk08e5phjjjB48ODsXa0HmRKWzXecc8454zTVVFOFaaaZJlx33XXZu0QmPcqCiEjiKAtSj1D6kwsCQTT/TjHFFKFXr17ZO1qXYcOGxZb+4vqYdtppp+wdrc/mm28ehaS4vrXWWiuMGDEie4fIpEdZEBFJHGVB6hHq9+n0SzCdB9IrrLBCePvtt7N3tD6XXnppzGTk66O1/6mnnspebX3uvffeuI58ff/+979jxkGknlAWREQSR1mQeuWDDz4YE0xPOeWU4dhjj81emTAwbCrZBTIYTBMyq5Dz3//+N5Yi8R3XXnttswpSdygLIiKJoyxIvUJcwihBBNJLL710eO+997JXJgyMfnTVVVfF9c0888zhueeey16ZcHD+sS7Wefvtt2dzReoHZUFEJHGUBalnGF6UEYlOOOGEbM6EZ9VVVw1dunTJ/prwbLnllmG99dbL/hKpL5QFEZHEURakNfjuu+/CzTffHB9o1r1797DXXnu1yrTddtvFkYnWXHPNiq+39oQkzD///LEcae+99674ntacWMfiiy8eFl100bD77rtXfM/4TAzNyvCvgwYN8mFv0iKUBRGRxFEWpCUQO/A8gh122CHsueee4fDDDw/HHXdcHLWoNSaeQXDmmWeGvn37Vny9tSdk5/TTTw/9+vWr+PqEmE477bQ4se5Kr4/PRP+Oww47LMoP06233prtMZHaUBZERBJHWZDxhacbd+vWLXTs2DEMHDgwvPPOO7HuX+oDMgovvfRSfKDdBhtsEEu56MQtUgvKgohI4igLMj588803URQYMejNN9/M5kq98vjjj4cOHTqEk08+OT5TQqRalAURkcRRFmR8oMylffv24fPPP8/mSL3z4osvhpVXXjlce+212RyRcaMsiIgkjrIgtcKQoltttVW46667sjnSKPTv3z/2Yfjkk0+yOSJjR1kQEUkcZUFqhScr77zzzmHkyJHZHGkUiPXWWWedcOedd2ZzRMaOsiAikjjKgtTCjz/+GHr06BHOPvvsbI40GgceeGAcYeqPP/7I5og0j7IgIpI4yoLUAiMeHXDAAZYgNTAXXnhh6NmzZ/j++++zOSLNoyyIiCSOsiC18Nprr8UHfg0ePDibI43GNddcE5+HwYhWIuNCWRARSRxlQWohl4UHH3wwmyONxtVXX60sSNUoCyIiiaMsSC0oC42PsiC1oCyIiCSOsiC1oCw0PsqC1IKyICKSOMqC1IKy0PgoC1ILyoKISOIoC1ILykLjoyxILSgLIiKJoyxILSgLjY+yILWgLIiIJI6yILXQUlngqc8DBgwI55133kR9AvSoUaPCJZdcEh8mN2LEiGxu22H48OHx+/Xp0ycMGzYsm1sZZUFqQVkQEUkcZUFqYVyywBOeef2///1v6NixYzjppJOyV0Zz6623hrXWWiseczfeeGM2t+W89dZb8WFxjzzySDanHB4it/baa4c111wzXHvttdncEL744otw//33h19++SWbU4Lv+sADD2R/TVw++eSTcMcdd8T/P/300+GQQw4JTz75ZPy7Eu+++25YeeWVw+mnnx6fzPzqq6+GffbZJ9xyyy3ZO0ooC1ILyoKISOIoC1ILY5OFIUOGREHYYIMNwuWXXx6zB8sss0zYddddw9dffx3f89FHH8XAnuD2/fffj/NaA47jaaaZJmYtKkHw/eabb4b33nsvbif8+uuvoUuXLmGvvfaK/y/CezfccMNw2mmnZXMmHgjXbrvtFnbeeef495VXXhlmmmmmMHDgwPh3JYjhEIQcRODee+8Nb7/9djanhLIgtaAsiIgkjrIgtdCcLPz111/h6KOPDgsssEB46qmnsrmj3//QQw/F0phvv/02HHPMMWGTTTYJHTp0iEErIBA77bRTOPDAA8NGG20UW//POeec+FqRxx57LOyxxx7hyCOPDFtttVXMFOSZhEcffTTMPffcYYcddoiZC5ZDxgB++OGHcPzxx8f1tm/fPgbdlECdcMIJYYoppoiBEMFzLgxkGzp37hwmm2yysMgii4RLL700lvhsv/32MYDfbLPNwssvvxzuvPPOKBRsB+v96quvYgB+0EEHxUzAnnvuGc+t/v37x+UC20nWZY011oi/I9+DeTm///57zMb885//jILQq1evuO4ll1wyrpfvtf7664dnnnkm+0QIZ555ZmjXrl38TY844oi4L954442w7777xkxOU5QFqQVlQUQkcZQFqYXmZOHLL78MK620UmypJ+CtxMUXXxxfp7SnU6dOYd55541BL5mGWWedNay22moxAOc988wzT3jiiSeyT47m5ptvDv/617/CtttuG+65556w1FJLxQD+559/jqU6s802W9hiiy1i6c2qq64a10F50VVXXRV22WWXuN6tt946SgWS8dJLL4XFF188BuDPPvts+PPPP+N6iIcI0NkmSps+/PDD+C/ycNxxx8XtevHFF0PXrl2jCPC9iKMI1MlcLLHEEnGi9Int4/+08CMjm266aQz8//e//0XxYJk33HBDXC8gMY8//nj8buuuu27McFx33XVh+umnj9/htttuC4suumjYfffd4/LYjm222SYuo2fPnmHGGWeM3/fhhx8Oc8wxR+jdu3e25BLKgtSCsiAikjjKgtRCc7JAQE0QzGvNxRO02JMdoMUbGSD2uO+++2JJ0oILLhizDkCAzN9HHXVU/DuHGn6CYVrbgSzDCiusEDMTzz33XJQFAmZa1g8++OAYpH/wwQexxZ8Af//99w/zzTdfXMbtt98ea/tp4Sfwbtrpmf4B888/f7jwwgvj3z169AgLL7xweOWVV+LfdChmu8mAICZTTTVVlIe87wClWEAWg6CdLAcZF74zmRG45ppropA07bvB9pKt2HHHHePfvD7ddNPF/giAgKy++urh008/jaLE73XsscfG7zv11FOHfv36xe+LVJx66qnxM0WUBakFZUFEJHGUBamF5mSBwHW55ZaLpTeV4gmyDQTySMD5558fA9qFFlooDBo0aIws5P0DPv7449iyTnBfhJIaAviLLroo/p3LAkJAZmDOOecMl112WZQAyoCWXXbZWMdPWQ/rIrCnZId10UJP1oFAnxb7oUOHxmXmUDpF5iMvh6JEiv4Xr7/+evyb749okL3gO7ActocMAucTAgJXXHFFmGuuueJ7yGwgNHm/Cr4PWY6mskD/CkqxyKAAmQW+N0E+UPLEunkfr/E9+a1uuumm+N3OOOMMZUFaDWVBRCRxlAWpheZkgRKe7t27x4Caevmc7777Lgb/zOM1Al244IILYis/Le65LOQt7gTc9H2grKcIwTXvow8BEJCvuOKKMauRywKdgZEFMgu08HN8r7LKKrFvAPBZJIAsBa3ylE7RmTgvQcrh+xHI55kFZAGB4fsDLfksh/InpIPlIAvvvPNOPJ/oNA109M5lgWwF8RZ9O4BtJbNAkF+E34uSrDyzcP3118ffAzEAMgv0y6DkiZItvif9QV544YX4myJEyoK0FsqCiEjiKAtSC83JAlA/T2BOkEsQPXjw4NhCTj8BWvi33HLLWD5Dqz7/Uq9PXT9BLyU+ZAkI4rt16xYzAcWOv0AL/H/+858oGsB6FltssTiqEiU+M8wwQ+w/gCwgLnROpk8EgkJAzXop72G99Bmg5p/toG8A7+NzOfQbQD4omSJzwTbRuk/HZiDgpryIwBxx+Mc//hH7DpB54HvkIxmRBaHsif4WdPKmTwUiwN+MHDXllFP+bXhTyrXosMxvhzjl/SeQCyCbsfzyy0epOOWUU6IgMBwsvwffjX4K9Flg+0888cT4mSLKgtSCsiAikjjKgtTC2GQBCKw333zzGJwz0aJPuQyQReBYW2+99eJ7qOunxZ2ae1rBaSVnxB+EI29FL0IATLCdP3/g5JNPjsOyElyzDD579913x/4HPHwNSSAgpjMzLfH5ehlNKA/QKTNifSyHTto533//ffyevEYZE8sjGM+HXf3pp5+iQLBcRlli3QTgdNbee++9YxAPyBCjHyFO9HOgRAjBYRQlJGqWWWaJElOELAflVKybjtX0e0BE6N8ByAnlXmQTKP9COvit2RY6UJ977rnh+eefj5+hs3NTlAWpBWVBRCRxlAWphXHJwrggYCboz1vogcCWYISRhiYUBOBkKsh+tCZkRTiHfvvtt2xO8yAgSEKeWUAW6OtQLNuaGCgLUgvKgohI4igLUgstlQVa76n/p3xn1KhRcR6jGVE2VOlpw60FgTH9GKjhZ3jS1oIMCKMgIQ3VQCYFSSAbQcYhfxbExERZkFpQFkREEkdZkFpoqSzIpEdZkFpQFkREEkdZkFpQFhofZUFqQVkQEUkcZUFqQVkowQhEDMVaHEWpEVAWpBaUBRGRxFEWpBbqVRboM8AToBlCdULA8xN4+nQOIxNttNFG8anJjM7Umv0gJjTKgtSCsiAikjjKgtRCvcoCx/HUU0895iFqrQlDs/KMCGQkhyFUEYiXXnopDhc7Kuus3QgoC1ILyoKISOIoC1IL9SoLPEuBJy7zvARa/HkeQ/GhbvyfEYh4xkLPnj3jMKY5AwYMiM98YFhTHvj2119/Za+E8MMPP8RnHUw++eRx+bzOMKmMqsTD0bbddtv4gDc+w7MeeIozT55mGzp06BAfJFdvKAtSC8qCiEjiKAtSC/UqC8jA7LPPHh+6dvnll4flllsuZgN4QNtDDz0UH1rWo0ePONTpMsssEwN64HkHPCmZoVwPOeSQMNdcc8XnQOQQG9E3gachd+7cOX5/nsq82267jXlWAk92fuKJJ+J6eCIzosB6Nt5441imxNOr6wllQWpBWRARSRxlQWqhnjMLs802WzjyyCPj3wcddFCUAvoyHHrooWHhhRcOH3/8cXyNh7/xFGWkYOeddw7bb7997KSMWLzwwgvxychFXn/99Rj052VILIffgXUstNBCURB4UjPbgGycfvrp8X2cW/PMM098anM9oSxILSgLIiKJoyxILdSrLBD40/qfj06EICy//PKxwzMlSZQfDR06NL6XUiKCfN677rrrxizB2J7AjEAgF2QjKDc67bTTwtJLLx1OPPHEcMopp8TypDvvvDNuw3zzzRcuueSS+Llnnnkmfu7444+Pf9cLyoLUgrIgIpI4yoLUQr3LwpVXXhllgac1U4pEVmDfffeNwT0dlaFv374x00A2YJtttgnt2rWLfROAf3/99df4/5znn38+LLLIIjHoRzhWXXXV+PRlMhH0SSCbkMsC4nDWWWfFz5FpWGCBBUKfPn3i3/WCsiC1oCyIiCSOsiC1UK+ywPbMNNNMsVUfWWAbyR5QMnTrrbeGRRddNJx77rnh5ZdfDmuvvXbYc8894/vof7DgggvGfgn0QVh22WWjcBR55ZVXYoaga9eu4aOPPgodO3aMy6CPAp2mJ5tssnDbbbfFoVUJqugs/fTTT8d1ICWPP/54tqT6QFmQWlAWREQSR1mQWqhXWXj22WfDOuusE8Vg+PDhMXtA6/9nn30WS4cYsWjFFVeMnZnp1/Djjz/Gz/F8BPoikHlgIogeNmxYfC2HTMPRRx8dllpqqdC7d+8oFmQjVltttbDZZpvF5bLewYMHR/Ho0qVLWGuttcJKK60U31tvKAtSC8qCiEjiKAtSC/UqC9Xw+eefx1KhL7/8MptTAmkY14PVRo0aNeZ5CmQl6A/B75F/7v777w8zzDBDLENiXnEI1npCWZBaUBZERBJHWZBaaGRZoOWfkY8I6lvKzz//HPtCnHzyyVEcgAe0bbfddrH/Qj2jLEgtKAsiIomjLEgtNLIsyGiUBakFZUFEJHGUBakFZaHxURakFpQFEZHEURakFpSFxkdZkFpQFkREEkdZkFpQFhofZUFqQVkQEUkcZUFqQVlofJQFqQVlQUQkcZQFqQVlofFRFqQWlAURkcRRFqQWcllgGFJpTK655hplQapGWRARSRxlQWrhrbfeCvvvv3+49957sznSaFx66aXxidTfffddNkekeZQFEZHEURakFr799tvQo0ePcNFFF2VzpNFAFPr16xd+//33bI5I8ygLIiKJoyxILfz111/h2GOPDbvvvns2RxoJ9t96660XbrrppmyOyNhRFkREEkdZkFqhc/PWW28dnnrqqWyONApIwnbbbRfefffdbI7I2FEWREQSR1mQWhk1alTst7DtttuGoUOHZnOl3vnkk0/CmmuuGS644IKYYRCpBmVBRCRxlAUZH4YMGRKzC4cddljsxyD1zQcffBB23HHHcMABB4Tvv/8+mysybpQFEZHEURZkfHnzzTfDFltsEXbZZZfw+OOPOxRnnUH24LPPPgt33XVX2HTTTUO3bt3C119/nb0qUh3KgohI4igL0hIIPo877riw2WabhYMPPjhceOGF4cYbbww333xzQ0633HJLuOeee2KAXen1RpluuOGG0L9//7DPPvvEfcP/hw0blu01kepRFkREEkdZkNaAsiQC0q5du4ZNNtkkbLDBBg05tWvXLsw111xhgQUWqPh6o0wdOnSImYQrrrjC5ylIi1AWREQSR1kQKadPnz7xwWUioiyIiCSPsiBS4rfffgvHH398OO+887I5ImmjLIiIJI6yIFJCWRApR1kQEUkcZUGkhLIgUo6yICKSOMqCSAllQaQcZUFEJHGUBZESyoJIOcqCiEjiKAsiJZQFkXKUBRGRxFEWREooCyLlKAsiIomjLIiUUBZEylEWREQSR1kQKaEsiJSjLIiIJI6yIFJCWRApR1kQEUkcZUGkhLIgUo6yICKSOMqCSAllQaQcZUFEJHGUBZESyoJIOcqCiEjiKAsiJZQFkXKUBRGRxFEWREooCyLlKAsiIomjLIiUUBZEylEWREQSR1kQKaEsiJSjLIiIJI6yIFJCWRApR1kQEUkcZUGkhLIgUo6yICKSOMqCSAllQaQcZUFEJHGUBZESyoJIOcqCiEjiKAsiJZQFkXKUBRGRxFEWREooCyLlKAsiIomjLIiUUBZEylEWREQSR1kQKaEsiJSjLIiIJI6yIFJCWRApR1kQEUkcZUGkhLIgUo6yICKSOMqCSAllQaQcZUFEJHGUBZESyoJIOcqCiEjiKAsiJZQFkXKUBRGRxFEWREooCyLlKAsiIomjLIiUUBZEylEWREQSR1kQKaEsiJSjLIiIJI6yIFJCWRApR1kQEUkcZUGkBLJw4oknhgEDBmRzRNJGWRARSRxlQaTETz/9FDp16hT222+/bI5I2igLIiKJoyyIlBg6dGg44IADYnZBRJQFEZHkURZESgwbNiyccsop4dxzz83miKSNsiAikjjKgkgJZOHkk08OZ5xxRjZHJG2UBRGRxFEWREr8/vvvoU+fPqFfv37ZHJG0URZERBJHWRApgSyceuqpoW/fvtkckbRRFkREEkdZEClBLHT66afHUiQRURZERJJHWRApQSx05plnht69e2dzRNJGWRARSRxlQaTEH3/8Ec4+++zQq1evbI5I2igLIiKJoyyIlEAWGDb12GOPzeaIpI2yICKSOMqCSInhw4eH8847L/Ts2TObI5I2yoKISOIoCyIlkIUBAwaEI444IpsjkjbKgohI4igLIiVGjBgRLrroonDYYYdlc0TSRlkQEUkcZUGkxJ9//hkuueSScMghh2RzRNJGWRARSRxlQaQEsnDZZZeFHj16ZHNE0kZZEBFJHGVBpMTIkSPD5ZdfHvbff/9sjkjaKAsiIomjLIiUGDVqVBg4cGDo3r17NkckbZQFEZHEURZESiAL11xzTejWrVs2RyRtlAURkcRRFkRK/PXXX+G6664Le+65ZzZHJG2UBRGRxFEWREogCzfccEPYfffdszkiaaMsiIgkjrIgUs6NN94Yunbtmv0lkjbKgohI4igLIuXcfPPNYZdddsn+EkkbZUFEJHGUBZFybr311rDjjjtmf4mkjbIgIpI4yoJIOXfccUfYbrvtsr9E0kZZEBFJHGVBpJy77rorbLPNNtlfImmjLIiIJI6yIFLO3XffHbbccsvsL5G0URZERBJHWRAp59577w2dOnXK/hJJG2VBRCRxlAWRcu6///7QsWPH7C+RtFEWREQSR1kQKeeBBx4Im222WfaXSNooCyIiiaMsiJTz0EMPhfbt22d/iaSNsiAikjjKgkgIt912W+jSpUt49NFHw1NPPRXLkIYOHRpOOOGEsNNOO4V33nkne6dIWigLIiKJoyyIhPDYY4+FaaedNsw///xh7bXXDrPPPntYddVVw5RTThk23XTT8PPPP2fvFEkLZUFEJHGUBZEQRo4cGXbeeecw2WSTlU1zzz13HB1JJFWUBRGRxFEWREbz0ksvhRlnnLFMFng4259//pm9QyQ9lAURkcRRFkRGgxR069ZtjCjMM8888WnOIimjLIiIJI6yIFLizTffHJNd+O9//xv++uuv7BWRNFEWREQSR1kQKTH8/089/l979xubZXWHcRxogdRlY2QskmEWMUb2QjEYwdKkWjVVgovaoIlIYWhoECExDhqZEmcwKAsyAS2VEMSOERMHMUuriSalCMZBKfLHBokoBg1F7EJVEFkpXDu/nqd7sOu98efd+X0/yUU4dx/uvinJuXruc5+nn9avr7tOf29qihcBxygLAOAcZQEIjh6Vdu+W3ntPh1at0up771WXbWx+/31p3z6JtyHBKcoCADhHWYBbtnG5uVmqqZHmzpUqKyU7ubm8PJ977pEeflh68klp3bpYHABHKAsA4BxlAS61tkrPPitNmhRLghWGnTulb7/NfSDHVhw2b5YWLpTuu0+aPFmqrZWOHMl9AEgbZQEAnKMswBXbsLxmjTRxojR7ttTYmPvCebCViPXrpSlTYnFgTwMcoCwAgHOUBbhx6pT04ovS2LHSSy/lLubYisKmTdKqVdKSJdLixdLSpVJdnbRjR+5DOR0d0uOPK/zHkRoacheBNFEWAMA5ygJcsFWBZcuk226LjxX1sIn/6tU6XVmpxquu0p/79dOCkD+E/DFkZUGBdo8ZE1ch3nwzrkz0CP9OZWX2nyh3AUgPZQEAnKMswAVbIbjxxh8XhZYWaepU/W3wYE0OxWBUSGFIz6Fslp+EjA2ZFbJt+HBp/vwf71dYuVIaNy6+SQlIEGUBAJyjLCB5n3wS33L08su5C0Fjow4XF+uxUAJGhJxbELJybciKggIdv/9+6fPP4326uqRHH5VmzZJOnozXgIRQFgDAOcoCkmZzm+eekx55RPqXHbkWbN+uwyUl+l2vMnA++WnI4pAT06blVxi+/lq66y6pvj6OgYRQFgDAOcoCkmaPB1VU5B8/am+Xpk/X78OEf0CuAFxofhayvrAwbpbu7Iz3tY3RViBOnIhjIBGUBQBwjrKApNkm5AceiI8Lmbo6bSwq0i97FYALje1j2HPFFfG8BmOrC7Z52vZBAAmhLACAc5QFJMtWEaqr83sVjh1T50MPaVqvif/FZmXI2eXL4xuSLPPmxVeynjkTvx+QAMoCADhHWUCy9u2LB6g1N8fx1q1quvrq7rce9TX5v9D8NuTgHXfEU57N669LVVX5vRFAAigLAOAcZQHJ2rZNmjChe0WhW12dasIEf9A5E/5Lya9C/hEmUdq/P95/+3apvJy3IiEplAUAcI6ygGTZpubS0twgqKnRol4T/kvN1hDt2RPv/9ln0g03sMkZSaEsAIBzlAUka9MmqaQkNwhWrNDCXpP9S013Weg5kO3QIWn0aMoCkkJZAADnKAtI1pYtUllZ/k1ItbX6U6/J/qVkYMjWggLpo4/i/e1xpJtuoiwgKZQFAHCOsoBk2WtM775b+vLLOH7jDa0dPLj7nIS+Jv8Xmt+EtFx5ZXz8yDQ1xe/HfAoJoSwAgHOUBSTLJvEzZtgPeRy3tmr/+PEa32vSf7GZ2b+//jl9uvTdd/H+r7wizZ0rnT4dx0ACKAsA4BxlAcn6/nvpmWekBQvi2F5pWl2teWGif7GnN/ekKGRDiDZsiPe2R52mTo2vT7UzF4BEUBYAwDnKApK2cWN8NKijI46bmtQ6cqSuPWfifzGZHHLklluktrZ4XzvJ+dZbpYMH4xhIBGUBAJyjLCBpX3wRf+P/2mtxbKsLixbpL5ddpl/0KgDnm+tDmi+/XHr77XhP88QT0vz5PIKE5FAWAMA5ygKSduaMtG6dNGlSfqPz0aP6YcYM1fbvr5/3KgL/L6ND3g1F4+zy5dKpU/F+dhjbnXdKe/fGMZAQygIAOEdZQPJsA7KtLthmZysPpq1NP8yZo/ow8S/vVQj6SmFIVUjL8OHd5zWESVO8z1dfSTffLL3wQhwDiaEsAIBzlAW4sGOHdPvt0tKluQvBN99Ia9bowKhR+mthYfc+hJG5YmAFwTYx296Gx0IaBg5Uu+1JeOed/LkNx49LVVWxiLS3x2tAYigLAOAcZQFubN4cC8Pzz0snT+YuBvaK1bVr1VZRod0jRmjnoEHaNWCAdhYVae8116jDViTq6/ObmY393a5PmRJPbgYSRVkAAOcoC3Dlgw8UfuClysr/fnORrTTYhuhPP5UOHIgl4vDh+ArWHp2d8R726JHdwz4PJIyyAADOURbgjpWB6mppwgRpyZJYCuyRov/FXr364Yfx0DXbzLxsmXTsWO6LQLooCwDgHGUBLtkrVLdskWbOlMrKpNmzu/cvqLFR2rUrnpvQ0iK99Vbc0Pzgg/Echaeekj7+OL9RGkgcZQEAnKMswDV7rGj/funVV6U5c6SJE6Vx46QxY6SSEqmiIp6fYIe72T6Fns3NgBOUBQBwjrIAnOPs2bhq0BMbA45RFgDAOcoCACALZQEAnKMsAACyUBYAwDnKAgAgC2UBAJyjLAAAslAWAMA5ygIAIAtlAQCcoywAALJQFgDAOcoCACALZQEAnKMsAACyUBYAwDnKAgAgC2UBAJyjLAAAslAWAMA5ygIAIAtlAQCcoywAALJQFgDAOcoCACALZQEAnKMsAACyUBYAwDnKAgAgC2UBAJyjLAAAslAWAMA5ygIAIAtlAQCcoywAALJQFgDAOcoCACALZQEAnKMsAACyUBYAwDnKAgAgC2UBAJyjLAAAslAWAMA5ygIAIAtlAQCcoywAALL8pyzYH11dXbnLAAAvGhsbVVpamhsBAJBn/WDo0KHqN2zYMHV0dHS3B0IIIX7S0NCgkpKSPr9GCCHEd6wf2BNI/YqLi2WFwVYYCCGE+In9xmjIkCF9fo0QQojvWD8oLi7WvwFs/AzzkYiQPQAAAABJRU5ErkJggg==;" vertex="1" parent="1">
          <mxGeometry x="910" y="90" width="779" height="1299" as="geometry" />
        </mxCell>
        <mxCell id="uPlZju0oY3Lkiqwc--5y-2" value="&lt;b&gt;Học viên/sinh viên&lt;/b&gt;" style="rounded=0;whiteSpace=wrap;html=1;strokeColor=none;" vertex="1" parent="1">
          <mxGeometry x="1030" y="151" width="118" height="17" as="geometry" />
        </mxCell>
      </root>
    </mxGraphModel>
  </diagram>
</mxfile>
